<svg viewBox="0 0 148.74 148.74" xmlns="http://www.w3.org/2000/svg"><g fill="#f4f4f4"><path d="m148.74 26.99-121.75 121.75h5.66l116.09-116.09z"/><path d="m148.74 39.95-108.79 108.79h5.66l103.13-103.13z"/><path d="m148.74 52.91-95.83 95.83h5.66l90.17-90.17z"/><path d="m148.74 65.88-82.86 82.86h5.66l77.2-77.2z"/><path d="m148.74 78.84-69.9 69.9h5.66l64.24-64.24z"/><path d="m148.74 91.81-56.93 56.93h5.65l51.28-51.28z"/><path d="m148.74 104.77-43.97 43.97h5.66l38.31-38.31z"/><path d="m148.74 117.73-31.01 31.01h5.66l25.35-25.35z"/><path d="m148.74 130.7-18.04 18.04h5.65l12.39-12.39z"/><path d="m148.74 143.66-5.08 5.08h5.08z"/><path d="m148.74 0-148.74 148.74h5.66l143.08-143.08z"/><path d="m148.74 12.96-135.78 135.78h5.66l130.12-130.12z"/></g></svg>