<?xml version="1.0" encoding="UTF-8"?>
<svg id="Capa_1" xmlns="http://www.w3.org/2000/svg" version="1.1" viewBox="0 0 32 32">
  <!-- Generator: Adobe Illustrator 29.5.1, SVG Export Plug-In . SVG Version: 2.1.0 Build 141)  -->
  <path d="M18.82,19.9l.62,4.88c-.09.75-.91,1.18-1.55.73l-1.91-1.4c-.11-.02-1.54,1.12-1.79,1.27-.8.49-1.55.12-1.63-.8l.74-4.68h-.76c-.09,0-.4-.08-.5-.11-.81-.29-.83-1.42-1.31-2.05-.43-.57-1.52-.93-1.61-1.7-.08-.67.41-1.33.37-2.08-.03-.59-.42-1.16-.37-1.75.07-.82,1.17-1.15,1.61-1.74.5-.66.47-1.78,1.37-2.07.59-.19,1.27-.02,1.89-.2.67-.19,1.25-.95,1.99-.96s1.34.77,2.03.96c.64.18,1.34,0,1.95.22.82.29.83,1.42,1.31,2.05.44.58,1.54.92,1.61,1.74.05.59-.34,1.17-.37,1.75-.07,1.15.96,1.92-.16,2.9-.34.29-.86.55-1.12.92-.44.62-.45,1.72-1.26,2.01-.1.04-.41.11-.5.11h-.63ZM22.04,16.25c.12-.13.19-.24.18-.41-.03-.67-.44-1.15-.37-2.01.03-.42.46-1.34.35-1.66s-1.08-.87-1.37-1.2c-.45-.52-.49-1.09-.79-1.63s-.88-.36-1.4-.4c-.44-.03-.85-.11-1.25-.3-.36-.18-1-.75-1.37-.76-.41-.01-1.33.8-1.91.95s-1.33.01-1.83.18c-.37.12-.54.95-.71,1.29-.48,1.03-1.02.97-1.63,1.64-.37.41.04,1.05.14,1.53.23,1.07-.18,1.35-.3,2.24-.03.25,0,.35.17.53.45.49,1.04.62,1.45,1.31.23.39.5,1.5.87,1.62.48.16,1.22.03,1.79.17.64.15,1.4.91,1.87.96.4.04,1.07-.57,1.45-.75s.79-.28,1.21-.31c.56-.04,1.15.16,1.46-.42.29-.54.33-1.09.77-1.6.34-.4.89-.63,1.21-.98ZM13.97,19.98s-.05.05-.06.1c-.29,1.5-.4,3.04-.69,4.54.13.45.34.38.66.17.58-.37,1.12-.87,1.71-1.24l.04-.08v-2.53s-1.22-.75-1.22-.75l-.44-.21ZM18.17,19.98c-.7.11-1.19.76-1.88.95l.02,2.61c.61.42,1.21.97,1.83,1.36.28.18.42.25.63-.09l-.6-4.82Z"/>
  <path d="M15.58,9.21c3.94-.32,6.65,3.92,4.67,7.35s-7.14,3.16-8.74-.49c-1.35-3.07.74-6.59,4.08-6.86ZM12.99,11.09c-2.16,2.14-1.38,5.83,1.42,6.95,3.47,1.39,6.94-2.07,5.54-5.53-1.13-2.81-4.8-3.56-6.96-1.42Z"/>
  <path d="M15.71,11.17c3.98-.36,4.36,5.61.52,5.87s-4.28-5.53-.52-5.87ZM15.75,11.82c-2.91.29-2.57,4.78.44,4.56s2.67-4.87-.44-4.56Z"/>
</svg>