<?xml version="1.0" encoding="UTF-8"?>
<svg id="Capa_1" data-name="Capa 1" xmlns="http://www.w3.org/2000/svg" viewBox="0 0 18.759 18.461">
  <path d="M3.503,1.589c.093-.964.911-1.671,1.883-1.571.786.081,1.431.91,2.068,1.318l.019-.272h3.814l.019.272c.935-.661,1.728-1.781,3.018-1.149.517.253.933.899.933,1.481v1.459h3.503v4.203h-1.654l-.058.058v11.073H1.712V7.388l-.058-.058H0V3.127h3.503c.035-.495-.047-1.05,0-1.537ZM7.473,3.127v-.992c-.537-.392-1.054-.91-1.599-1.281-.484-.329-1.129-.329-1.508.159-.067.086-.24.406-.24.499v1.615h3.347ZM14.634,3.127v-1.615c0-.015-.081-.256-.097-.292-.254-.566-1.019-.763-1.534-.444l-1.716,1.359v.992h3.347ZM10.664,1.648h-2.569v1.479h2.569v-1.479ZM7.473,3.711H.623v3.036h6.85v-3.036ZM10.664,3.711h-2.569v3.036h2.569v-3.036ZM18.137,3.711h-6.85v3.036h6.85v-3.036ZM7.473,7.33H2.355l-.058.058v10.43l.058.058h5.118V7.33ZM10.664,7.33h-2.569v10.547h2.569V7.33ZM16.463,17.877V7.388l-.058-.058h-5.118v10.547h5.176Z"/>
</svg>