<?xml version="1.0" encoding="UTF-8"?>
<svg id="Capa_1" xmlns="http://www.w3.org/2000/svg" xmlns:xlink="http://www.w3.org/1999/xlink" version="1.1" viewBox="0 0 163.06 57.16">
  <!-- Generator: Adobe Illustrator 29.5.1, SVG Export Plug-In . SVG Version: 2.1.0 Build 141)  -->
  <defs>
    <style>
      .st0, .st1, .st2, .st3, .st4, .st5, .st6, .st7, .st8, .st9, .st10, .st11, .st12, .st13, .st14, .st15, .st16, .st17, .st18, .st19, .st20, .st21, .st22, .st23, .st24, .st25, .st26, .st27, .st28, .st29, .st30, .st31, .st32, .st33, .st34, .st35, .st36, .st37, .st38, .st39, .st40, .st41, .st42, .st43, .st44, .st45, .st46, .st47, .st48, .st49, .st50, .st51, .st52, .st53, .st54, .st55, .st56, .st57, .st58, .st59, .st60, .st61, .st62, .st63, .st64, .st65, .st66, .st67, .st68, .st69, .st70, .st71, .st72, .st73, .st74, .st75, .st76, .st77, .st78, .st79, .st80, .st81, .st82, .st83, .st84, .st85, .st86, .st87, .st88, .st89, .st90, .st91, .st92, .st93, .st94, .st95, .st96, .st97, .st98, .st99, .st100 {
        fill: none;
      }

      .st1 {
        stroke: #d74032;
      }

      .st1, .st2, .st3, .st4, .st5, .st6, .st7, .st8, .st9, .st10, .st11, .st12, .st13, .st14, .st15, .st16, .st17, .st18, .st19, .st20, .st21, .st22, .st23, .st24, .st25, .st26, .st28, .st29, .st30, .st31, .st32, .st33, .st34, .st35, .st36, .st37, .st38, .st39, .st40, .st41, .st42, .st43, .st44, .st45, .st46, .st47, .st48, .st49, .st50, .st51, .st52, .st53, .st54, .st55, .st56, .st57, .st58, .st59, .st60, .st61, .st62, .st63, .st64, .st65, .st66, .st67, .st68, .st69, .st70, .st71, .st72, .st73, .st74, .st75, .st76, .st77, .st78, .st79, .st80, .st81, .st82, .st83, .st84, .st85, .st86, .st87, .st88, .st89, .st90, .st91, .st92, .st93, .st94, .st95, .st96, .st97, .st98, .st99, .st100 {
        stroke-width: 2px;
      }

      .st2 {
        stroke: #33523c;
      }

      .st3 {
        stroke: #2a4130;
      }

      .st4 {
        stroke: #ea854b;
      }

      .st5 {
        stroke: #be7947;
      }

      .st101, .st102 {
        fill: #f5ce67;
      }

      .st6 {
        stroke: #df8350;
      }

      .st7 {
        stroke: #8c5440;
      }

      .st8 {
        stroke: #752f30;
      }

      .st9 {
        stroke: #af2f27;
      }

      .st103 {
        fill: #52217d;
      }

      .st10 {
        stroke: #843e38;
      }

      .st104 {
        fill: #385a42;
      }

      .st105 {
        fill: #f0963f;
      }

      .st106 {
        fill: #3c602f;
      }

      .st11 {
        stroke: #507455;
      }

      .st107 {
        fill: #ea5e18;
      }

      .st108, .st109, .st110 {
        fill: #ff7220;
      }

      .st12 {
        stroke: #925853;
      }

      .st13 {
        stroke: #9f6e51;
      }

      .st111 {
        fill: #d0ce56;
      }

      .st14 {
        stroke: #476a75;
      }

      .st112 {
        fill: #608d69;
      }

      .st15 {
        stroke: #877845;
      }

      .st16 {
        stroke: #532329;
      }

      .st17 {
        stroke: #7d4538;
      }

      .st18 {
        stroke: #86733f;
      }

      .st19 {
        stroke: #3d5e59;
      }

      .st20 {
        stroke: #4a6f64;
      }

      .st21 {
        stroke: #496556;
      }

      .st22 {
        stroke: #51201e;
      }

      .st113 {
        fill: #ea6a2a;
      }

      .st113, .st114, .st110, .st115 {
        fill-rule: evenodd;
      }

      .st116 {
        fill: #719e75;
      }

      .st23 {
        stroke: #223027;
      }

      .st117 {
        fill: #f9e58b;
      }

      .st24 {
        stroke: #a4745a;
      }

      .st118 {
        fill: #bcb750;
      }

      .st25 {
        stroke: #98654a;
      }

      .st26 {
        stroke: #d74d36;
      }

      .st27 {
        stroke-width: 5px;
      }

      .st27, .st102 {
        stroke: #f5ce67;
        stroke-miterlimit: 10;
      }

      .st28 {
        stroke: #7d3d2f;
      }

      .st29 {
        stroke: #51796c;
      }

      .st30 {
        stroke: #814535;
      }

      .st31 {
        stroke: #d53c2f;
      }

      .st32 {
        stroke: #557c5c;
      }

      .st33 {
        stroke: #722c27;
      }

      .st119 {
        fill: #2e4a35;
      }

      .st34 {
        stroke: #925652;
      }

      .st120 {
        fill: #517a59;
      }

      .st35 {
        stroke: #b3bb73;
      }

      .st36 {
        stroke: #334939;
      }

      .st37 {
        stroke: #a6c990;
      }

      .st121 {
        fill: #42626f;
      }

      .st38 {
        stroke: #6f5241;
      }

      .st39 {
        stroke: #b1b66c;
      }

      .st40 {
        stroke: #202f27;
      }

      .st122 {
        clip-path: url(#clippath-11);
      }

      .st123 {
        fill: #f7d773;
      }

      .st41 {
        stroke: #8a7d4c;
      }

      .st124 {
        fill: #c1d798;
      }

      .st42 {
        stroke: #a36c51;
      }

      .st43 {
        stroke: #567360;
      }

      .st125 {
        clip-path: url(#clippath-4);
      }

      .st126 {
        clip-path: url(#clippath-2);
      }

      .st127 {
        clip-path: url(#clippath-7);
      }

      .st128 {
        clip-path: url(#clippath-9);
      }

      .st129 {
        fill: #f2e0b8;
      }

      .st44 {
        stroke: #80352a;
      }

      .st45 {
        stroke: #552923;
      }

      .st46 {
        stroke: #573128;
      }

      .st47 {
        stroke: #db4131;
      }

      .st130 {
        fill: #69bb35;
      }

      .st48 {
        stroke: #191f1d;
      }

      .st109, .st131, .st132 {
        clip-rule: evenodd;
      }

      .st49 {
        stroke: #9b9c6e;
      }

      .st50 {
        stroke: #9c674e;
      }

      .st51 {
        stroke: #273a36;
      }

      .st52 {
        stroke: #d97c48;
      }

      .st53 {
        stroke: #762722;
      }

      .st133 {
        fill: #e88a3d;
      }

      .st54 {
        stroke: #a07e57;
      }

      .st55 {
        stroke: #588361;
      }

      .st56 {
        stroke: #803431;
      }

      .st57 {
        stroke: #a9b26c;
      }

      .st58 {
        stroke: #7eac80;
      }

      .st59 {
        stroke: #ee8f52;
      }

      .st60 {
        stroke: #2c3d44;
      }

      .st61 {
        stroke: #758350;
      }

      .st134 {
        fill: #d9613e;
      }

      .st62 {
        stroke: #b1402e;
      }

      .st63 {
        stroke: #884a37;
      }

      .st135 {
        fill: url(#Degradado_sin_nombre_201);
      }

      .st136 {
        fill: url(#Degradado_sin_nombre_204);
      }

      .st64 {
        stroke: #3b5341;
      }

      .st65 {
        stroke: #8b8153;
      }

      .st66 {
        stroke: #99bb86;
      }

      .st67 {
        stroke: #314654;
      }

      .st137 {
        fill: #a9ce30;
      }

      .st68 {
        stroke: #3e5a45;
      }

      .st69 {
        stroke: #792f2f;
      }

      .st70 {
        stroke: #a87657;
      }

      .st71 {
        stroke: #8c4e4d;
      }

      .st138 {
        fill: #e24534;
      }

      .st72 {
        stroke: #456a4e;
      }

      .st73 {
        stroke: #1c2128;
      }

      .st74 {
        stroke: #f7d36d;
      }

      .st102 {
        stroke-width: 3px;
      }

      .st114, .st131 {
        fill: url(#Degradado_sin_nombre_20);
      }

      .st75 {
        stroke: #783d30;
      }

      .st76 {
        stroke: #75352c;
      }

      .st77 {
        stroke: #aa2e28;
      }

      .st78 {
        stroke: #f09457;
      }

      .st79 {
        stroke: #eb905d;
      }

      .st139 {
        fill: #171719;
      }

      .st80 {
        stroke: #718168;
      }

      .st140 {
        fill: #fc651a;
      }

      .st81 {
        stroke: #e4c463;
      }

      .st82 {
        stroke: #69966f;
      }

      .st83 {
        stroke: #702623;
      }

      .st84 {
        stroke: #e74d3a;
      }

      .st85 {
        stroke: #c77547;
      }

      .st86 {
        stroke: #7d2c24;
      }

      .st87 {
        stroke: #415d50;
      }

      .st88 {
        stroke: #4c7456;
      }

      .st141 {
        fill: #eb563f;
      }

      .st89 {
        stroke: #578072;
      }

      .st90 {
        stroke: #7b7449;
      }

      .st91 {
        stroke: #27382e;
      }

      .st92 {
        stroke: #96985a;
      }

      .st142 {
        fill: #8aba89;
      }

      .st143 {
        fill: #d53c2f;
      }

      .st132 {
        fill: url(#Degradado_sin_nombre_203);
      }

      .st144 {
        clip-path: url(#clippath);
      }

      .st93 {
        stroke: #f7d979;
      }

      .st145 {
        fill: #212b37;
      }

      .st94 {
        stroke: #374e59;
      }

      .st95 {
        stroke: #d03b30;
      }

      .st96 {
        stroke: #9a9768;
      }

      .st97 {
        stroke: #848a50;
      }

      .st115 {
        fill: url(#Degradado_sin_nombre_202);
      }

      .st146 {
        fill: #cb3a30;
      }

      .st98 {
        stroke: #2d423c;
      }

      .st99 {
        stroke: #395348;
      }

      .st100 {
        stroke: #c3b460;
      }
    </style>
    <clipPath id="clippath">
      <path class="st109" d="M27.33,9.42c-13.26,1.46-14.51,13.8-3.91,17.71,2.05.77,4.07.93,5.93.65l6.89-9.77-2.32-6.17-6.59-2.42h0ZM25.03,23.13c-5.93-2.54.41-13.41,6.83-10.39,4.63,2.34-.84,12.96-6.83,10.39h0Z"/>
    </clipPath>
    <linearGradient id="Degradado_sin_nombre_20" data-name="Degradado sin nombre 20" x1="-194.16" y1="-56.56" x2="-198.03" y2="-38.21" gradientTransform="translate(218.47 80.43) rotate(4.82)" gradientUnits="userSpaceOnUse">
      <stop offset="0" stop-color="#ffc823"/>
      <stop offset="1" stop-color="#e94e1b"/>
    </linearGradient>
    <clipPath id="clippath-2">
      <path class="st131" d="M27.36,9.41c-.82.09-1.6.22-2.33.39-6.35,2.05-7.77,10.87.53,13.5h0c-.17-.05-.34-.11-.51-.19-5.93-2.54.41-13.41,6.83-10.39,1.24.62,1.75,1.84,1.73,3.23l1.72-1.57-2.38-3.29c-1.44-1.07-3.23-1.73-5.61-1.69h0Z"/>
    </clipPath>
    <linearGradient id="Degradado_sin_nombre_201" data-name="Degradado sin nombre 20" x1="-195.42" y1="-56.82" x2="-199.29" y2="-38.48" gradientTransform="translate(33.63 218.84) rotate(74.13)" xlink:href="#Degradado_sin_nombre_20"/>
    <clipPath id="clippath-4">
      <path class="st109" d="M23.48,27.13c11.3,4.22,21.39-9.71,11.41-16.18-2.32-1.34-5.16-1.7-7.5-1.53,2.8.07,5.75,3.33,6.08,5.18h0c.51,1.67-.1,3.93-1.37,5.77h0s-.05.08-.05.08c-.01.02-.03.04-.04.06-2.22,3.12-5.91,6.94-8.52,6.62h0Z"/>
    </clipPath>
    <linearGradient id="Degradado_sin_nombre_202" data-name="Degradado sin nombre 20" x1="-211.16" y1="-22.49" x2="-189" y2="-30.97" xlink:href="#Degradado_sin_nombre_20"/>
    <linearGradient id="Degradado_sin_nombre_203" data-name="Degradado sin nombre 20" x1="-211.16" y1="-22.49" x2="-189" y2="-30.97" xlink:href="#Degradado_sin_nombre_20"/>
    <clipPath id="clippath-7">
      <path class="st132" d="M20.85,26.11c-1.31.24-2.54.55-3.69.91-9.95,4.06-11.17,18.4,2.49,21.62h0c-.28-.06-.56-.14-.84-.24-9.84-3.36-.97-21.59,9.71-17.52,2.06.85,3.03,2.74,3.17,4.98l2.58-2.73-4.21-4.99c-2.44-1.54-5.39-2.39-9.21-2.03h0Z"/>
    </clipPath>
    <linearGradient id="Degradado_sin_nombre_204" data-name="Degradado sin nombre 20" x1="-211.43" y1="-23.19" x2="-189.27" y2="-31.67" gradientTransform="translate(33.61 240.1) rotate(78.45)" xlink:href="#Degradado_sin_nombre_20"/>
    <clipPath id="clippath-9">
      <path class="st109" d="M16.72,55.02c18.66,5.4,33.18-18.19,16.36-27.36-3.89-1.86-8.5-2.11-12.22-1.55,4.51-.23,9.64,4.65,10.39,7.59h0c1.01,2.62.31,6.33-1.5,9.42h0s-.08.14-.08.14c-.02.04-.04.07-.06.11-3.19,5.28-8.65,11.86-12.88,11.66h0Z"/>
    </clipPath>
    <clipPath id="clippath-11">
      <rect class="st0" x="68.84" y="39.9" width="87.19" height="2.93"/>
    </clipPath>
  </defs>
  <path class="st108" d="M48.15,18.86h3.28c.92,0,1.61.85,1.42,1.75l-4.55,21.37c-.14.67-.73,1.15-1.42,1.15h-3.28c-.92,0-1.61-.85-1.42-1.75l4.55-21.37c.14-.67.73-1.15,1.42-1.15ZM59.65,43.13c-.46,0-.89-.21-1.16-.58l-6.54-8.68c-.52-.69-.76-1.35-.76-2.08,0-1.39.42-3.02,1.66-4.16l9.4-8.4c.27-.24.61-.37.97-.37h3.13c1.33,0,1.96,1.65.97,2.53l-8.74,7.8c-.76.66-1.35,1.18-1.35,2.15,0,.59.31,1.08.8,1.7l6.29,7.72c.77.95.1,2.37-1.12,2.37h-3.54Z"/>
  <path class="st107" d="M58.81,34l-3.97-5.07s-1.26-1.52.56-3.58l-2.8,2.53s-1.12,1.1-1.26,2.5-.33,1.79.27,2.96l6.44,8.62s.32,1.16,1.97,1.16h3.17s.78.11,1.28-.76-.15-1.6-.15-1.6l-5.51-6.76Z"/>
  <g>
    <path class="st103" d="M155.96,29.91s.09.09.11.14c.02.05.01.11-.02.19l-.55,1.46c-.04.09-.08.16-.12.19-.05.04-.1.05-.15.05-.07,0-.15-.03-.22-.09-.16-.12-.33-.22-.52-.29-.19-.07-.39-.13-.6-.18-.21-.04-.41-.07-.62-.09-.21-.01-.4-.02-.6-.02-.29,0-.55.04-.78.12-.23.08-.36.2-.4.35-.03.11,0,.2.06.26.07.06.17.11.31.14.14.04.31.07.51.1.2.03.41.07.65.12.38.07.72.17,1.01.29.29.12.52.28.7.47.18.19.29.41.35.67.05.26.03.57-.06.92-.13.47-.33.87-.6,1.21-.27.34-.59.61-.96.82-.37.21-.78.37-1.22.47-.44.1-.9.15-1.38.15-.23,0-.48-.02-.75-.05-.27-.03-.55-.08-.82-.14-.27-.06-.53-.15-.78-.25-.25-.1-.46-.23-.63-.37-.05-.04-.08-.09-.1-.14-.02-.05-.01-.11.02-.19l.6-1.62c.07-.18.17-.28.3-.28.07,0,.14.03.21.09.15.13.32.24.5.33.18.09.38.17.58.23.2.06.41.11.62.14.21.03.41.04.6.04.16,0,.32,0,.48-.03.16-.02.3-.05.43-.09.13-.04.24-.09.32-.14.09-.06.15-.13.18-.21.04-.12.03-.21-.03-.27-.06-.06-.16-.11-.29-.14-.13-.03-.3-.06-.48-.08-.19-.02-.39-.05-.61-.1-.79-.12-1.38-.39-1.76-.8-.38-.41-.48-.95-.3-1.62.12-.44.31-.82.57-1.14.26-.32.57-.59.93-.8.36-.21.76-.36,1.2-.46.44-.1.88-.15,1.35-.15.22,0,.46.01.71.04.25.02.5.07.76.13.25.06.49.14.72.23.23.1.43.21.6.36Z"/>
    <g>
      <path class="st103" d="M73.54,24.9c-.2,0-.32.09-.37.28l-.61,2.27c-.03.16-.13.24-.29.24h-.71c-.15,0-.21-.08-.18-.24l2.25-8.36c.03-.16.13-.24.29-.24h4.22c.62,0,1.12.12,1.5.35.38.23.65.53.81.89.16.36.23.76.19,1.2-.04.44-.17.87-.38,1.3-.22.43-.51.82-.89,1.18-.38.36-.82.64-1.33.84-.19.08-.26.2-.21.35l.85,2.42c.02.06,0,.13-.06.2-.06.07-.14.11-.22.11h-.82c-.09,0-.15-.02-.19-.05-.04-.03-.07-.08-.09-.14l-.82-2.36c-.05-.16-.18-.25-.37-.25h-2.56ZM76.74,23.78c.46,0,.87-.11,1.23-.29.36-.19.65-.42.88-.7.23-.28.38-.58.47-.91.09-.33.09-.63.01-.91-.08-.28-.25-.51-.5-.7-.26-.19-.61-.29-1.07-.29h-2.9c-.2,0-.32.09-.37.28l-.87,3.24c-.05.19.02.28.21.28h2.9Z"/>
      <path class="st103" d="M82.54,19.09c.03-.16.13-.24.29-.24h.71c.15,0,.21.08.18.24l-1.33,4.96c-.13.5-.17.92-.12,1.24.05.33.18.59.37.78.19.19.43.33.71.4.29.07.59.11.91.11.89,0,1.62-.2,2.2-.61.58-.41.99-1.05,1.23-1.93l1.33-4.95c.03-.16.13-.24.29-.24h.71c.15,0,.21.08.18.24l-1.33,4.97c-.16.6-.4,1.13-.7,1.59-.3.46-.67.85-1.09,1.16-.42.31-.9.55-1.43.71-.53.16-1.1.24-1.71.24-.47,0-.91-.06-1.33-.18s-.75-.33-1.03-.61c-.27-.29-.45-.67-.54-1.14-.09-.47-.04-1.06.15-1.76l1.34-4.98Z"/>
      <path class="st103" d="M91.42,20.03c-.16,0-.21-.08-.16-.24l.19-.71c.03-.16.13-.24.29-.24h7.19c.15,0,.21.08.18.24l-.19.71c-.05.16-.15.24-.31.24h-2.72c-.19,0-.31.09-.35.28l-1.92,7.14c-.03.16-.13.24-.29.24h-.71c-.15,0-.21-.08-.18-.24l1.92-7.14c.05-.19-.02-.28-.21-.28h-2.72Z"/>
      <path class="st103" d="M100.61,25.68l-1.24,1.78c-.1.16-.24.24-.4.24h-.73c-.09,0-.14-.03-.16-.08-.02-.05,0-.12.05-.21l5.78-8.32c.1-.16.23-.24.39-.24h1.18c.15,0,.24.08.27.24l1.31,8.32c.02.09,0,.16-.05.21-.05.05-.11.08-.2.08h-.73c-.16,0-.25-.08-.28-.24l-.27-1.78c-.02-.17-.13-.26-.33-.26h-4.12c-.2,0-.35.09-.47.26ZM104.43,20.15l-2.7,3.9c-.12.17-.08.26.11.26h3.18c.19,0,.27-.09.25-.26l-.62-3.9c0-.18-.08-.18-.21,0Z"/>
      <path class="st103" d="M111.92,27.69c-.15,0-.21-.08-.18-.24l2.25-8.36c.03-.16.13-.24.29-.24h3.86c.66,0,1.21.12,1.64.35.44.24.77.55,1.01.94.24.39.38.84.42,1.34.04.5,0,1.02-.11,1.56-.13.57-.34,1.14-.65,1.69-.31.55-.7,1.05-1.15,1.48-.46.44-.99.79-1.58,1.06-.59.27-1.24.41-1.94.41h-3.86ZM115.98,26.57c.52,0,.99-.11,1.43-.32.43-.2.81-.47,1.15-.8.33-.33.61-.69.84-1.1.22-.41.38-.82.48-1.25.09-.39.11-.78.08-1.15-.03-.37-.13-.71-.3-1-.17-.29-.41-.53-.72-.71-.31-.18-.7-.27-1.17-.28h-2.54c-.2,0-.32.09-.37.28l-1.61,6.03c-.05.19.02.28.2.28h2.54Z"/>
      <path class="st103" d="M122.88,26.51h5.08c.16,0,.21.08.16.24l-.19.71c-.03.16-.13.24-.29.24h-6.3c-.15,0-.21-.08-.18-.24l2.25-8.36c.03-.16.13-.24.29-.24h6.3c.15,0,.21.08.18.24l-.19.71c-.05.16-.15.24-.31.24h-5.08c-.19,0-.31.09-.35.28l-.59,2.18c-.05.19.02.28.21.28h4.14c.16,0,.21.08.16.24l-.16.64c-.05.16-.15.24-.29.24h-4.14c-.2,0-.32.09-.37.28l-.55,2.06c-.05.19.02.28.21.28Z"/>
      <path class="st103" d="M139.39,26.51c.16,0,.21.08.16.24l-.19.71c-.03.16-.13.24-.29.24h-6.3c-.15,0-.21-.08-.18-.24l2.25-8.36c.03-.16.13-.24.29-.24h.71c.15,0,.21.08.18.24l-1.92,7.14c-.05.19.02.28.21.28h5.08Z"/>
      <path class="st103" d="M143.13,25.68l-1.24,1.78c-.1.16-.24.24-.4.24h-.73c-.09,0-.14-.03-.16-.08-.02-.05,0-.12.05-.21l5.78-8.32c.1-.16.23-.24.39-.24h1.18c.15,0,.24.08.27.24l1.31,8.32c.02.09,0,.16-.05.21-.05.05-.11.08-.2.08h-.73c-.16,0-.25-.08-.28-.24l-.27-1.78c-.02-.17-.13-.26-.33-.26h-4.12c-.2,0-.35.09-.47.26ZM146.95,20.15l-2.7,3.9c-.12.17-.08.26.11.26h3.18c.19,0,.27-.09.25-.26l-.62-3.9c0-.18-.08-.18-.21,0Z"/>
      <path class="st103" d="M159.69,19.42c.05.04.1.09.12.15.03.06.02.13-.02.22l-.28.65c-.05.12-.11.18-.2.18-.04,0-.09-.02-.14-.06-.33-.27-.72-.46-1.17-.55-.45-.09-.89-.14-1.3-.14-.45,0-.82.03-1.13.1-.3.07-.55.16-.75.27-.2.11-.34.24-.44.38-.1.14-.16.29-.19.45-.05.2-.02.37.07.53.09.16.23.3.42.44.18.13.4.26.65.38.25.12.51.24.79.37.32.15.64.31.95.48.31.17.59.36.81.58.23.22.39.48.48.77.09.29.09.63-.02,1.02-.08.28-.22.56-.42.83-.2.27-.47.51-.8.72-.33.21-.73.38-1.2.51-.47.13-1.01.19-1.62.19-.24,0-.5-.01-.78-.04-.29-.02-.58-.06-.87-.11-.29-.05-.57-.12-.84-.21-.27-.09-.5-.2-.69-.34-.06-.04-.1-.09-.12-.15-.03-.06-.02-.13.02-.22l.28-.65c.05-.12.11-.18.2-.18.04,0,.09.02.14.06.16.13.36.25.61.34.25.09.51.16.78.22.27.06.55.1.82.13.27.03.51.04.71.04.49,0,.9-.03,1.21-.1.31-.07.56-.16.75-.27.19-.11.33-.24.42-.39.09-.15.16-.29.21-.44.07-.21.06-.4-.02-.56-.09-.16-.23-.31-.42-.44-.19-.13-.42-.26-.69-.37-.27-.11-.54-.23-.82-.36-.32-.14-.64-.29-.95-.45-.31-.16-.58-.35-.8-.57-.22-.22-.38-.48-.47-.77-.09-.29-.09-.64.02-1.04.08-.28.22-.56.41-.83.2-.27.46-.51.78-.72.33-.21.71-.38,1.17-.51.45-.13.97-.19,1.56-.19.23,0,.46,0,.71.03.24.02.48.05.72.1.24.05.47.11.7.2.22.09.43.2.63.33Z"/>
    </g>
    <g>
      <path class="st103" d="M71.18,36.77c-.06.3-.25.46-.56.46h-1.42c-.3,0-.41-.15-.34-.46l1.9-7.05c.08-.3.27-.45.57-.45h2.23c.27,0,.46.06.57.17.11.11.19.35.22.7l.45,3.61c.01.08.03.12.05.12s.06-.04.12-.12l2.37-3.61c.12-.18.23-.32.32-.43.1-.11.19-.2.29-.26s.19-.11.3-.13c.1-.02.22-.04.35-.04h2.24c.3,0,.41.15.33.45l-1.9,7.05c-.06.3-.25.46-.56.46h-1.42c-.3,0-.41-.15-.34-.46l1.09-4.06c.06-.2.03-.2-.08-.02l-2.72,4.11c-.19.28-.43.42-.73.42h-1.09c-.3,0-.47-.14-.5-.42l-.53-4.11c-.02-.16-.06-.15-.11.02l-1.09,4.06Z"/>
      <path class="st103" d="M83.02,35.87l-.66,1.01c-.1.15-.19.24-.26.29s-.19.06-.33.06h-1.68c-.29,0-.34-.16-.15-.47l4.62-7.1c.1-.16.19-.26.28-.31.08-.05.2-.07.35-.07h2.56c.16,0,.26.02.32.07.06.05.09.15.11.31l.82,7.1c.04.31-.1.47-.39.47h-1.68c-.15,0-.25-.02-.31-.06-.06-.04-.09-.14-.11-.29l-.11-.99c-.02-.16-.12-.24-.29-.24l-2.68-.02c-.17,0-.3.08-.4.24ZM85.76,31.58l-1.3,1.99c-.1.16-.06.24.11.24h1.37c.16,0,.24-.08.23-.23l-.23-2c-.01-.17-.07-.17-.17,0Z"/>
      <path class="st103" d="M96.06,33.44l1-3.72c.08-.3.28-.45.57-.45h1.42c.3,0,.41.15.33.45l-1.89,7.05c-.07.3-.26.46-.57.46h-1.23c-.12,0-.22-.03-.3-.08-.08-.05-.17-.17-.26-.34l-1.91-3.77c-.07-.13-.13-.11-.17.06l-.99,3.68c-.08.3-.28.46-.57.46h-1.42c-.3,0-.41-.15-.34-.46l1.9-7.05c.08-.3.26-.45.56-.45h1.27c.12,0,.22.02.29.07.07.05.16.17.26.37l1.88,3.77c.07.13.13.12.17-.05Z"/>
      <path class="st103" d="M98.63,37.22c-.3,0-.41-.15-.34-.46l1.9-7.05c.08-.3.27-.45.57-.45h3.92c.59,0,1.09.1,1.5.29.41.19.74.46.97.81.24.34.38.75.43,1.22.05.47,0,.99-.15,1.56-.15.58-.38,1.12-.69,1.61-.31.49-.68.92-1.11,1.29-.43.36-.91.65-1.45.86-.54.21-1.11.31-1.71.31h-3.85ZM102.73,35.17c.59,0,1.1-.18,1.53-.52.43-.34.73-.82.88-1.44.08-.31.1-.58.07-.82-.03-.23-.1-.43-.22-.59-.12-.16-.28-.28-.49-.37-.21-.08-.45-.13-.74-.13h-1.44c-.17.01-.28.1-.32.26l-.89,3.34c-.04.17.02.25.18.25h1.43Z"/>
      <path class="st103" d="M109.8,35.87l-.66,1.01c-.1.15-.19.24-.26.29s-.19.06-.33.06h-1.68c-.29,0-.34-.16-.15-.47l4.62-7.1c.1-.16.19-.26.28-.31.08-.05.2-.07.35-.07h2.56c.16,0,.26.02.32.07.06.05.09.15.11.31l.82,7.1c.04.31-.1.47-.39.47h-1.68c-.15,0-.25-.02-.31-.06-.06-.04-.09-.14-.11-.29l-.11-.99c-.02-.16-.12-.24-.29-.24l-2.68-.02c-.17,0-.3.08-.4.24ZM112.54,31.58l-1.3,1.99c-.1.16-.06.24.11.24h1.37c.16,0,.24-.08.23-.23l-.23-2c-.01-.17-.07-.17-.17,0Z"/>
      <path class="st103" d="M119.65,34.73c-.18,0-.29.08-.33.25l-.49,1.78c-.06.3-.25.46-.56.46h-1.42c-.3,0-.41-.15-.34-.46l1.9-7.05c.08-.3.27-.45.57-.45h4.4c.52,0,.95.1,1.27.29.32.19.56.44.72.75.15.31.22.65.2,1.03-.02.38-.11.76-.26,1.13-.16.37-.39.73-.68,1.05s-.64.6-1.05.81c-.17.08-.24.2-.2.35l.48,2c.04.18,0,.31-.1.4-.1.09-.23.13-.38.13h-1.46c-.31,0-.49-.12-.53-.37l-.38-1.89c-.03-.16-.13-.23-.3-.23h-1.05ZM122.08,32.99c.21,0,.4-.04.56-.13.16-.09.29-.2.4-.32.11-.13.18-.26.22-.41.04-.15.04-.29,0-.41-.04-.13-.11-.23-.22-.32-.11-.09-.27-.13-.48-.13h-1.97c-.18,0-.29.08-.33.25l-.33,1.23c-.05.17.01.25.18.25h1.97Z"/>
      <path class="st103" d="M136.02,33.44l1-3.72c.08-.3.28-.45.57-.45h1.42c.3,0,.41.15.33.45l-1.89,7.05c-.07.3-.26.46-.57.46h-1.23c-.12,0-.22-.03-.3-.08-.08-.05-.17-.17-.26-.34l-1.91-3.77c-.07-.13-.13-.11-.17.06l-.99,3.68c-.08.3-.28.46-.57.46h-1.42c-.3,0-.41-.15-.34-.46l1.9-7.05c.08-.3.26-.45.56-.45h1.27c.12,0,.22.02.29.07.07.05.16.17.26.37l1.88,3.77c.07.13.13.12.17-.05Z"/>
      <path class="st103" d="M141.2,35.87l-.66,1.01c-.1.15-.19.24-.26.29s-.19.06-.33.06h-1.68c-.29,0-.34-.16-.15-.47l4.62-7.1c.1-.16.19-.26.28-.31.08-.05.2-.07.35-.07h2.56c.16,0,.26.02.32.07.06.05.09.15.11.31l.82,7.1c.04.31-.1.47-.39.47h-1.68c-.15,0-.25-.02-.31-.06-.06-.04-.09-.14-.11-.29l-.11-.99c-.02-.16-.12-.24-.29-.24l-2.68-.02c-.17,0-.3.08-.4.24ZM143.95,31.58l-1.3,1.99c-.1.16-.06.24.11.24h1.37c.16,0,.24-.08.23-.23l-.23-2c-.01-.17-.07-.17-.17,0Z"/>
    </g>
    <path class="st103" d="M127.7,29.28h2c.27,0,.46.26.39.52l-1.96,7.19c-.05.18-.21.3-.39.3h-2c-.27,0-.46-.26-.39-.52l1.96-7.19c.05-.18.21-.3.39-.3Z"/>
  </g>
  <g>
    <path class="st110" d="M27.33,9.42c-13.26,1.46-14.51,13.8-3.91,17.71,2.05.77,4.07.93,5.93.65l6.89-9.77-2.32-6.17-6.59-2.42h0ZM25.03,23.13c-5.93-2.54.41-13.41,6.83-10.39,4.63,2.34-.84,12.96-6.83,10.39h0Z"/>
    <g class="st144">
      <rect class="st108" x="14.86" y="6.1" width="18.1" height="23.26" transform="translate(-1.12 33.84) rotate(-69.31)"/>
    </g>
  </g>
  <g>
    <path class="st114" d="M27.36,9.41c-.82.09-1.6.22-2.33.39-6.35,2.05-7.77,10.87.53,13.5h0c-.17-.05-.34-.11-.51-.19-5.93-2.54.41-13.41,6.83-10.39,1.24.62,1.75,1.84,1.73,3.23l1.72-1.57-2.38-3.29c-1.44-1.07-3.23-1.73-5.61-1.69h0Z"/>
    <g class="st126">
      <rect class="st135" x="18.45" y="7.7" width="15" height="16.48" transform="translate(1.87 34.58) rotate(-69.31)"/>
    </g>
  </g>
  <g>
    <path class="st110" d="M23.48,27.13c11.3,4.22,21.39-9.71,11.41-16.18-2.32-1.34-5.16-1.7-7.5-1.53,2.8.07,5.75,3.33,6.08,5.18h0c.51,1.67-.1,3.93-1.37,5.77h0s-.05.08-.05.08c-.01.02-.03.04-.04.06-2.22,3.12-5.91,6.94-8.52,6.62h0Z"/>
    <g class="st125">
      <rect class="st108" x="23.68" y="10.85" width="19.59" height="19.18" transform="translate(2.53 44.54) rotate(-69.31)"/>
    </g>
  </g>
  <path class="st110" d="M21.32,26.16s7.17-1.5,10.39-5.25,1.42,2.34,1.42,2.34l-1.24,2.08-.41,1.39-.33.66s-6.09.45-9.83-1.22Z"/>
  <path class="st113" d="M20.85,26.11C-.27,30.06-.78,50.02,16.72,55.02c3.39.98,6.65,1,9.6.33l9.88-16.53-4.47-9.63-10.88-3.08h0ZM18.81,48.4c-9.84-3.36-.97-21.59,9.71-17.52,7.72,3.19.22,20.91-9.71,17.52h0Z"/>
  <g>
    <path class="st115" d="M20.85,26.11c-1.31.24-2.54.55-3.69.91-9.95,4.06-11.17,18.4,2.49,21.62h0c-.28-.06-.56-.14-.84-.24-9.84-3.36-.97-21.59,9.71-17.52,2.06.85,3.03,2.74,3.17,4.98l2.58-2.73-4.21-4.99c-2.44-1.54-5.39-2.39-9.21-2.03h0Z"/>
    <g class="st127">
      <rect class="st136" x="7.3" y="23.49" width="24.15" height="26.54" transform="translate(-21.36 44.99) rotate(-73.62)"/>
    </g>
  </g>
  <g>
    <path class="st110" d="M16.72,55.02c18.66,5.4,33.18-18.19,16.36-27.36-3.89-1.86-8.5-2.11-12.22-1.55,4.51-.23,9.64,4.65,10.39,7.59h0c1.01,2.62.31,6.33-1.5,9.42h0s-.08.14-.08.14c-.02.04-.04.07-.06.11-3.19,5.28-8.65,11.86-12.88,11.66h0Z"/>
    <g class="st128">
      <rect class="st108" x="16.19" y="27.62" width="31.55" height="30.89" transform="translate(-18.36 61.59) rotate(-73.62)"/>
    </g>
  </g>
  <g class="st122">
    <g>
      <path class="st26" d="M75.7,32.85c-.05.03-.09.07-.13.11-.03.04-.02.04.02.02l.09-.05s.03,0,.03.02c-.04.18-.1.36-.18.52-.24.51-.48,1.02-.72,1.52-.05.1-.1.2-.17.31-.23.37-.39.8-.56,1.2-.13.3-.34.6-.48.93-.14.33-.34.62-.48.96-.03.08-.1.13-.14.2-.17.37-.39.71-.53,1.11-.07.2-.16.4-.27.58-.01.02,0,.04,0,.06l.08.08" vector-effect="non-scaling-stroke"/>
      <path class="st62" d="M72.27,40.42c-1.12.42-2.24.86-3.35,1.32-.03.01-.06.03-.08.04" vector-effect="non-scaling-stroke"/>
      <path class="st7" d="M78.52,32.85l-.14.02s-.02,0,0,.02c1.54.94,2.82,2.14,3.84,3.61.14.21.28.44.41.71,0,.02.02.03.03.04l.03.02" vector-effect="non-scaling-stroke"/>
      <path class="st69" d="M82.69,37.25v.06" vector-effect="non-scaling-stroke"/>
      <path class="st9" d="M82.69,37.32c-3.53.85-7,1.88-10.42,3.11" vector-effect="non-scaling-stroke"/>
      <path class="st99" d="M82.7,32.85v4.41" vector-effect="non-scaling-stroke"/>
      <path class="st51" d="M85.57,32.84c-1.3,2.1-2.31,4.42-2.87,6.83" vector-effect="non-scaling-stroke"/>
      <path class="st16" d="M82.7,39.67c-.02-.08-.04-.14-.03-.18.04-.69.06-1.39.06-2.08,0-.02,0-.05-.03-.1" vector-effect="non-scaling-stroke"/>
      <path class="st75" d="M89.6,32.85l.02.02s.01.02,0,.03c-.19.28-.1.48-.19.78-.12.43-.23.79-.35,1.1" vector-effect="non-scaling-stroke"/>
      <path class="st3" d="M89.1,34.78v-.23s-.01-.04-.03,0c-.14.28-.23.61-.35.87-.19.42-.37.95-.5,1.27-.39.98-.75,1.87-1.12,2.97-.11.33-.33.84-.44,1.29-.07.28-.22.58-.26.91-.02.15-.09.26-.15.4-.08.19-.06.4-.13.61-.09.26-.15.58-.19.86-.02.15-.06.3-.12.44-.06.13-.08.27-.07.42,0,.01,0,.02-.02.02h-.02s-.02.01-.03.02l-.07.19s-.02.04-.04.04c-.15.06-.39.18-.55.16-.16-.02-.29-.07-.45-.06-.35.02-.65.13-1,.17-.23.02-.37.09-.62,0-.02,0-.03,0-.04.02l-.11.18s-.02.02-.02,0v-.02s0-.03-.01,0c0,0,0,0,0,0-.01.02-.02.01-.02,0l-.03-.32s0,0,0,0l-.02.02" vector-effect="non-scaling-stroke"/>
      <path class="st46" d="M82.7,44.99v-5.31" vector-effect="non-scaling-stroke"/>
      <path class="st24" d="M91.65,32.85s-.02.01-.02.02c0,.01-.01.03-.01.05v1.17c0,.07.04.11.11.12l1.55.31" vector-effect="non-scaling-stroke"/>
      <path class="st8" d="M93.27,34.52l.22.85" vector-effect="non-scaling-stroke"/>
      <path class="st77" d="M93.49,35.37s0,.01,0,.02c0,0,0,.02-.01.02-2.28,1.75-3.79,3.98-4.52,6.7-.73,2.73-.35,5.26,1.13,7.59,1.08,1.69,2.67,2.98,4.51,3.76.04.02.08,0,.11-.03" vector-effect="non-scaling-stroke"/>
      <path class="st6" d="M94.71,53.44c.82,2.01,2.08,3.7,3.78,5.07" vector-effect="non-scaling-stroke"/>
      <path class="st83" d="M98.49,58.5c-.08.03-.14.04-.17.04-4.35-.16-8.22-1.79-10.83-5.37" vector-effect="non-scaling-stroke"/>
      <path class="st33" d="M87.49,53.18c-1.09-1.54-1.86-3.5-1.92-5.4" vector-effect="non-scaling-stroke"/>
      <path class="st76" d="M85.57,47.77c-.02-.92.05-1.85.22-2.79.66-3.58,2-6.84,3.3-10.21" vector-effect="non-scaling-stroke"/>
      <path class="st58" d="M97.49,32.85c-.06.73-.08,1.47-.06,2.2" vector-effect="non-scaling-stroke"/>
      <path class="st43" d="M97.44,35.05c-.2,0-.33,0-.38-.01-1.26-.15-2.52-.32-3.78-.52" vector-effect="non-scaling-stroke"/>
      <path class="st54" d="M103.96,32.85l.1.02" vector-effect="non-scaling-stroke"/>
      <path class="st21" d="M104.07,32.86c-1.38.83-2.89,1.46-4.53,1.9-.73.19-1.43.29-2.1.29" vector-effect="non-scaling-stroke"/>
      <path class="st17" d="M104.36,32.85l-.29.02" vector-effect="non-scaling-stroke"/>
      <path class="st10" d="M107.61,32.85s0,.01.01.02c0,0,0,.01,0,.02-.66,1.55-1.06,3.17-1.19,4.86" vector-effect="non-scaling-stroke"/>
      <path class="st65" d="M106.42,37.74c-4.29.34-8.26,2.37-10.65,6.02" vector-effect="non-scaling-stroke"/>
      <path class="st16" d="M95.77,43.76s-.03,0-.05,0c-.01,0-.02,0-.02-.02.01-.15,0-.31-.06-.45,0-.02,0-.04,0-.06.02-.09,0-.2-.03-.33-.05-.17-.06-.45-.11-.65-.23-1.01-.47-1.9-.72-2.65-.53-1.58-.95-2.98-1.26-4.18,0-.01-.01-.03-.03-.05" vector-effect="non-scaling-stroke"/>
      <path class="st13" d="M133.72,32.85l-.08.02s-.03.02-.02.04c1.48,3.37,1.75,6.96.81,10.52-.05.18-.17.48-.35.9,0,.02,0,.04,0,.06l.03.04" vector-effect="non-scaling-stroke"/>
      <path class="st12" d="M134.1,44.42c-.26.55-.51,1.18-.76,1.66-.59,1.13-1.33,2.17-2.21,3.1" vector-effect="non-scaling-stroke"/>
      <path class="st10" d="M131.13,49.18c-2.61,2.58-5.77,3.99-9.47,4.21-.01,0-.02.01-.03.03" vector-effect="non-scaling-stroke"/>
      <path class="st59" d="M121.62,53.42c-5.8.24-11.03-2.84-13.68-7.99" vector-effect="non-scaling-stroke"/>
      <path class="st78" d="M107.94,45.43c-.93-1.9-1.44-3.9-1.53-6.02-.01-.32,0-.87.02-1.67" vector-effect="non-scaling-stroke"/>
      <path class="st89" d="M140.36,32.85c-.42,2.66-1.33,5.13-2.74,7.41" vector-effect="non-scaling-stroke"/>
      <path class="st29" d="M137.62,40.26c-.93,1.54-2.07,2.89-3.44,4.06-.01.01-.04.05-.08.1" vector-effect="non-scaling-stroke"/>
      <path class="st34" d="M154.89,32.85l.03.02s.01.02,0,.03c-.15.12-.3.25-.45.38-2.01,1.8-4.02,3.61-6.01,5.42" vector-effect="non-scaling-stroke"/>
      <path class="st94" d="M148.46,38.7c-2.09.18-4.09.66-5.99,1.45-1.02.42-2,.96-2.96,1.62" vector-effect="non-scaling-stroke"/>
      <path class="st14" d="M139.52,41.77s-.02-.02-.04-.02c-.01,0-.02,0-.03,0l-.03-.05s-.02-.03-.04-.03c-.14-.02-.23-.14-.33-.2-.11-.07-.16-.17-.27-.24-.26-.17-.34-.44-.52-.66-.01-.01-.03-.02-.05-.02-.06,0-.1-.03-.14-.08-.01-.02-.03-.03-.05-.04-.08-.04-.14-.1-.18-.18,0-.02-.02-.03-.05-.02l-.18.05" vector-effect="non-scaling-stroke"/>
      <path class="st86" d="M156.04,41.42c-.13-.08-.27-.13-.42-.14-.02,0-.03,0-.03.02-.04.22-.09.43-.18.64-.19.48.15.8.62.66" vector-effect="non-scaling-stroke"/>
      <path class="st79" d="M156.04,44.66c-3.86-.01-7.71,0-11.57,0-.19,0-.37,0-.55.02" vector-effect="non-scaling-stroke"/>
      <path class="st4" d="M143.91,44.68h-.4" vector-effect="non-scaling-stroke"/>
      <path class="st42" d="M143.51,44.68l-.51.02" vector-effect="non-scaling-stroke"/>
      <path class="st84" d="M143,44.7c-.32-.01-.64-.01-.97,0-.06,0-.09-.01-.15-.03" vector-effect="non-scaling-stroke"/>
      <path class="st56" d="M141.89,44.68l6.57-5.98" vector-effect="non-scaling-stroke"/>
      <path class="st40" d="M85.57,47.77l-.15.33s-.02.03-.04.04c-.11.05-.22.08-.34.1-.37.04-.75.09-1.12.14-.02,0-.04,0-.06,0-.09-.05-.19-.09-.3-.11-.2-.05-.38.05-.62-.04-.02,0-.03-.02-.03-.03l-.02-.05s-.02-.02-.03-.02h-.06s-.02,0-.02,0v-.02s0-.03-.03,0c0,0,0,.02-.01.03,0,0,0,0,0,0h-.01s-.01-.02-.02,0c0,0,0,.01-.01.02" vector-effect="non-scaling-stroke"/>
      <path class="st45" d="M82.7,48.12v-3.14" vector-effect="non-scaling-stroke"/>
      <path class="st5" d="M95.77,43.76c-1.66,2.58-2.14,5.38-1.45,8.4.06.25.19.67.4,1.27" vector-effect="non-scaling-stroke"/>
      <path class="st22" d="M82.7,48.12v.33" vector-effect="non-scaling-stroke"/>
      <path class="st38" d="M82.7,48.45c-.8,1.18-1.81,2.19-3.05,3.01-2.14,1.43-4.5,2.09-7.06,1.97-.14,0-1.39-.07-1.43-.11,0,0,0,0-.01,0l-1.1-.23s-.01,0-.02-.02c0-.01-.01-.02-.02-.02-.38-.07-.75-.18-1.1-.33-.02,0-.03-.02-.04-.03l-.03-.04" vector-effect="non-scaling-stroke"/>
      <path class="st74" d="M107.94,45.43l-.16.18s-.02.04-.02.06c-.05.81-.03,1.62-.02,2.43.05,2.43-.08,4.88.05,7.31,0,.03.01.04.04.02,0,0,.02-.02.02-.03.01-.02.03-.03.04-.04.05-.02.08-.05.09-.1,0-.02.01-.04.02-.05.07-.1.12-.21.16-.32,0-.02.02-.04.04-.05.12-.1.25-.16.4-.21.02,0,.03-.01.05-.03.1-.1.2-.12.3-.06.05.03.1.09.13.19.05.13.13.24.14.39,0,.06,0,.12.02.17.04.2,0,1-.35.9" vector-effect="non-scaling-stroke"/>
      <path class="st15" d="M108.87,56.18c.38-.45.28-1.03.07-1.53-.01-.04-.05-.05-.09-.04-.64.23-.94.7-.9,1.41" vector-effect="non-scaling-stroke"/>
      <path class="st74" d="M107.95,56.01c-.05,0-.1.01-.15.04-.02.01-.03.03-.03.05-.02.32-.03.64-.03.96,0,1.49,0,2.97,0,4.46,0,.02,0,.03.03.04.5.26,1.21.19,1.74.08,0,0,0,0,0,0,0,0,0,0,0-.01,0,0,0-.01.02-.01.28,0,.59-.02.93-.07,1.06-.16,2.07-.42,3.03-.78.49-.19,1.1-.47,1.82-.87.03-.02.14-.07.32-.14.2-.09.36-.25.53-.35.22-.13.4-.22.61-.39.24-.2.49-.37.72-.58.15-.14.32-.28.48-.42.01-.01.03-.01.04,0,.05.03.06.09.03.16" vector-effect="non-scaling-stroke"/>
      <path class="st65" d="M118.06,58.18c-4.43,3.85-10.58,4.65-15.98,2.49" vector-effect="non-scaling-stroke"/>
      <path class="st49" d="M102.08,60.67c-.77-.35-1.51-.74-2.23-1.17" vector-effect="non-scaling-stroke"/>
      <path class="st15" d="M99.84,59.5c-.47-.31-.92-.65-1.35-1" vector-effect="non-scaling-stroke"/>
      <path class="st10" d="M141.89,44.68s-.01,0-.02,0c-.02,0-.02.02-.02.03,1.7,6.21,7.89,9.91,14.14,9.33,0,0,.02,0,.03,0,0,0,0,0,.01.01" vector-effect="non-scaling-stroke"/>
      <path class="st21" d="M156.04,55.52c-2.84.05-5.31-.02-8.66.01" vector-effect="non-scaling-stroke"/>
      <path class="st43" d="M147.37,55.54h-10.07" vector-effect="non-scaling-stroke"/>
      <path class="st80" d="M137.3,55.54h-.81" vector-effect="non-scaling-stroke"/>
      <path class="st43" d="M136.49,55.54h-1.15s-.03.01-.03.03c.98,5.96,6.1,10.04,12,10.4" vector-effect="non-scaling-stroke"/>
      <path class="st21" d="M147.31,65.97c2.72.13,5.14-.49,7.55-1.66" vector-effect="non-scaling-stroke"/>
      <path class="st10" d="M154.86,64.31c-3.68,2.86-5.71,7.31-5.65,11.95" vector-effect="non-scaling-stroke"/>
      <path class="st41" d="M149.2,76.26l-.75-.03" vector-effect="non-scaling-stroke"/>
      <path class="st65" d="M148.46,76.23c-.95-.02-1.8.03-2.57.15-.48.07-.8.12-.98.14" vector-effect="non-scaling-stroke"/>
      <path class="st87" d="M144.91,76.52c-1.07-.02-2.14-.03-3.21-.02-.06,0-.13-.02-.2-.02" vector-effect="non-scaling-stroke"/>
      <path class="st98" d="M141.49,76.49c-.34-.21-.68-.42-1.02-.64-3.67-2.31-6.3-5.94-7.32-10.15-.09-.36-.14-.79-.22-1.18" vector-effect="non-scaling-stroke"/>
      <path class="st67" d="M132.93,64.52c-.03-.36-.04-.93-.04-1.68,0-3.27,0-6.54,0-9.81,0-1.33.18-2.55.68-3.79,1.22-3.01,3.21-5.59,5.95-7.47" vector-effect="non-scaling-stroke"/>
      <path class="st19" d="M132.93,64.52l-.18.15" vector-effect="non-scaling-stroke"/>
      <path class="st20" d="M132.75,64.67l-1.5-.02" vector-effect="non-scaling-stroke"/>
      <path class="st67" d="M131.25,64.65c0-.13,0-.25,0-.38,0-4.56,0-9.11,0-13.67,0-.37-.05-.85-.14-1.42" vector-effect="non-scaling-stroke"/>
      <path class="st93" d="M156.04,50.55c-.2.02-.36.02-.49.01-.74-.06-1.59-.16-2.32-.3-2.99-.6-5.61-1.95-7.86-4.03-.21-.19-.61-.62-1.2-1.3-.06-.07-.14-.15-.26-.25" vector-effect="non-scaling-stroke"/>
      <path class="st70" d="M143,44.7c.28.58.65,1.05,1.06,1.56,1.96,2.45,4.91,4.2,7.92,4.99,1.25.33,2.58.51,4.01.54.02,0,.03,0,.04-.03l.02-.08" vector-effect="non-scaling-stroke"/>
      <path class="st39" d="M143.51,44.68c.73,1.04,1.47,1.91,2.24,2.6,2.78,2.51,6.47,3.96,10.28,3.96" vector-effect="non-scaling-stroke"/>
      <path class="st41" d="M121.62,53.42c-.86,1.81-2.05,3.47-3.56,4.76" vector-effect="non-scaling-stroke"/>
      <path class="st18" d="M107.95,56.01c.24.38.55.44.92.17" vector-effect="non-scaling-stroke"/>
      <path class="st48" d="M87.49,53.18s-.03.07.01.1c.02.01.02.02.02.04v.08s0,.04.02.05c.03.01.06.04.07.08,0,.02,0,.04-.02.05-.09.05-.16.12-.2.21,0,.02,0,.04.02.04l.18.08s.02.02,0,.04c-.13.12-.22.29-.45.28,0,0,0,0,0,0l.02.02s0,0,0,.01c0,0-.01,0-.02,0-.02,0-.02,0,0,0h.03s.03,0,.04.03c.04.08.11.12.21.11t0,0c-.13.02-.27.03-.4.04-.02,0-.03,0-.04.03-.03.05-.07.06-.13.03-.02,0-.04-.01-.06-.01-.53,0-1.05.05-1.56.17-.07.01-.18,0-.22.02-.15.06-.31.09-.47.11-.11.01-.25-.05-.36,0-.21.09-.34.03-.51.03-.21,0-.42.01-.64.01-.02,0-.04,0-.05-.02-.01-.01-.03-.02-.05-.01-.09.02-.09.02,0-.01h.02s0-.01,0-.02c-.06-.03-.11-.07-.15-.13-.02-.04-.05-.04-.09,0" vector-effect="non-scaling-stroke"/>
      <path class="st68" d="M82.71,54.64v-6.19" vector-effect="non-scaling-stroke"/>
      <path class="st64" d="M82.71,54.64v6.17s0,.02,0,.03c1.58.53,3.21.88,4.88,1.05" vector-effect="non-scaling-stroke"/>
      <path class="st29" d="M87.59,61.89c0,.08-.02.14-.01.22.42,4.71-.91,9.48-3.98,13.11-.33.39-.87.92-1.63,1.6" vector-effect="non-scaling-stroke"/>
      <path class="st13" d="M81.98,76.82l-.03-.07s0-.04,0-.06c.09-.26.19-.56.28-.91.47-1.83.69-3.74.54-5.61-.59-7.47-6.39-13.04-13.92-13.31" vector-effect="non-scaling-stroke"/>
      <path class="st99" d="M131.25,64.65h-.03" vector-effect="non-scaling-stroke"/>
      <path class="st10" d="M131.23,64.66h-13.2" vector-effect="non-scaling-stroke"/>
      <path class="st73" d="M118.03,64.65c-.01-.16-.02-.31-.04-.46-.04-.56-.71-.83-1.13-.47-.31.27-.23.58-.34.94" vector-effect="non-scaling-stroke"/>
      <path class="st10" d="M116.53,64.65h-7.96" vector-effect="non-scaling-stroke"/>
      <path class="st56" d="M108.57,64.66h-6.88" vector-effect="non-scaling-stroke"/>
      <path class="st67" d="M101.69,64.66c0-1.34.14-2.67.39-3.98" vector-effect="non-scaling-stroke"/>
      <path class="st60" d="M99.84,59.5c-3.85,1.91-7.93,2.71-12.25,2.39" vector-effect="non-scaling-stroke"/>
      <path class="st58" d="M147.37,55.54c.01.09-.03.14-.03.22,0,1.55,0,3.11-.01,4.68" vector-effect="non-scaling-stroke"/>
      <path class="st37" d="M147.33,60.43c-3.87.02-7.57-1.62-9.93-4.72-.03-.04-.07-.11-.1-.18" vector-effect="non-scaling-stroke"/>
      <path class="st66" d="M156.04,56.96c-2.35,2.16-5.48,3.5-8.71,3.47" vector-effect="non-scaling-stroke"/>
      <path class="st37" d="M136.49,55.54c2.16,3.38,6.23,5.4,10.2,5.53.21,0,.43.02.64.03" vector-effect="non-scaling-stroke"/>
      <path class="st58" d="M147.33,61.09v4.84s0,.01,0,.02l-.02.02" vector-effect="non-scaling-stroke"/>
      <path class="st66" d="M156.03,57.83c-2.51,2.1-5.41,3.19-8.71,3.27" vector-effect="non-scaling-stroke"/>
      <path class="st12" d="M81.98,76.82c-.11.12-.18.26-.23.42-.1.33-.26.61-.44.98-.65,1.35-1.52,2.57-2.62,3.67" vector-effect="non-scaling-stroke"/>
      <path class="st10" d="M78.68,81.89c-.74.7-1.54,1.32-2.4,1.86-.01,0-.01.02,0,.02l.06.02" vector-effect="non-scaling-stroke"/>
      <path class="st25" d="M68.84,75.06c.02.07.04.14.11.19,1.07.81,2.3,1.28,3.64,1.51" vector-effect="non-scaling-stroke"/>
      <path class="st13" d="M72.58,76.77l.24.05s.05,0,.05-.04c.14-1.87.43-3.63-.54-5.36-.84-1.48-1.95-2.19-3.44-2.91-.02,0-.03,0-.03.01l-.02.04" vector-effect="non-scaling-stroke"/>
      <path class="st70" d="M156.04,63.48v.03s-.04.03-.05.04c-.39.23-.77.48-1.12.75" vector-effect="non-scaling-stroke"/>
      <path class="st71" d="M101.69,64.66v1.62" vector-effect="non-scaling-stroke"/>
      <path class="st96" d="M101.69,66.28l-7.31-3.96c-.06-.03-.1-.02-.12.05-1,3.1-2,6.18-2.99,9.25-.09.29-.19.58-.3.86" vector-effect="non-scaling-stroke"/>
      <path class="st67" d="M90.96,72.48c-.44.14-.98.36-1.61.66-4.45,2.11-7.76,5.77-8.85,10.65" vector-effect="non-scaling-stroke"/>
      <path class="st67" d="M78.6,83.79l.02-1.76s0-.04.02-.06l.05-.08" vector-effect="non-scaling-stroke"/>
      <path class="st4" d="M101.69,66.28c.07,1.36.26,2.7.57,4.03" vector-effect="non-scaling-stroke"/>
      <path class="st81" d="M102.26,70.3l-.06.06s-.03.02-.05.02c-.13,0-.25.03-.36.08-.01,0-.02,0-.03,0-.02-.03-.53.24-.58.34-.2.39-.48.59-.78.85-.28.24-.58.57-.89.84-.02.01-.01.02,0,.03h.02s.03.02.01.04c-.18.19-.43.29-.6.45-.41.36-.82.73-1.22,1.09-.31.28-.6.62-.92.87-.13.1-.27.21-.41.31-.02.01-.04.02-.06.02-.11,0-.16.06-.15.19,0,.06.06,1.06-.06,1.17-.02.02-.03.01-.04,0-.08-.15-.68.32-.78.42-.01.01-.02.03-.02.05.02.23-.25.22-.35.06,0-.01-.01-.03-.02-.05v-.39s-.03-.04-.05-.04c-.22.02-.41.12-.55.3-.01.02-.02.03-.02.05,0,.03-.03.05-.06.05-.02,0-.04,0-.05.02-.4.32-.78.67-1.14,1.03-.25.26-.57.45-.81.63-.14.1-.29.17-.4.26-.21.17-.4.35-.58.54-.15.16-.32.22-.51.3-.07.03-.14.13-.23.29-.01.02-.03.03-.05.04l-.26.09s-.04.02-.05.03c-.08.07-.18.1-.29.1-.02,0-.04,0-.06.02-.22.18-.4.4-.54.66,0,.01-.02.02-.04.03-.18.06-.42.28-.3.49,0,.01,0,.02,0,.02-.07.02-.12,0-.17-.02-.02-.01-.04,0-.04.02-.05.13-.49-.15-.61-.07-.02.01-.03.01-.05,0-.02-.01-.03-.04-.03-.08" vector-effect="non-scaling-stroke"/>
      <path class="st41" d="M88.04,81.51l2.93-9.03" vector-effect="non-scaling-stroke"/>
      <path class="st84" d="M151.62,83.79s-.07-.08-.1-.13c-.35-.65-.77-1.3-1.03-1.98,0-.02-.02-.03-.04-.04-.03-.01-.06,0-.08.02" vector-effect="non-scaling-stroke"/>
      <path class="st59" d="M150.37,81.66c-.72-1.73-1.11-3.53-1.17-5.41" vector-effect="non-scaling-stroke"/>
      <path class="st44" d="M118.03,64.65h-1.5" vector-effect="non-scaling-stroke"/>
      <path class="st88" d="M141.49,76.49l-1.07.02" vector-effect="non-scaling-stroke"/>
      <path class="st32" d="M140.42,76.51h-4.59" vector-effect="non-scaling-stroke"/>
      <path class="st2" d="M135.83,76.5c0-.07,0-.12-.02-.15-.76-1.51-1.7-2.89-2.82-4.15-.06-.06-.12-.12-.19-.16" vector-effect="non-scaling-stroke"/>
      <path class="st91" d="M132.8,72.05l-.05-.08" vector-effect="non-scaling-stroke"/>
      <path class="st72" d="M132.76,71.97s.01,0,.02,0c0,0,.01,0,.01-.02,0-1.83,0-3.67,0-5.5,0-.58.01-1.05-.03-1.78" vector-effect="non-scaling-stroke"/>
      <path class="st84" d="M108.57,64.66h-.14s-.01.02,0,.03h.01s0,.03,0,.03c0,0-.01,0-.02,0-.01,0-.01,0,0,0l.06.02s.03.02,0,.04c-.15.11-.33.18-.27.42,0,.02,0,.04,0,.06-.06.15-.13.27-.14.44-.02.17-.05.35-.1.51-.06.18,0,.36-.06.55-.03.12-.05.22-.05.29,0,.51,0,1.01,0,1.52,0,.43-.11.9-.08,1.33,0,.13,0,.24,0,.32-.04.58,0,1.3.02,2.24.02.7,0,1.65-.05,2.85-.03.61.06,1.16.18,1.75.07.34.05.67.04,1.01-.01.33.03.73-.02,1.11,0,.03-.03.07-.08.13-.35.41.2.47.12.74,0,.02,0,.04,0,.06l.19.31s.03.04.04.05c.06.05.08.11.06.18,0,.02,0,.04.02.05.07.04.1.11.09.19" vector-effect="non-scaling-stroke"/>
      <path class="st71" d="M108.41,80.88c-.57-.53-1.1-1.1-1.59-1.7" vector-effect="non-scaling-stroke"/>
      <path class="st63" d="M106.82,79.18c-.38-.42-.72-.87-1.03-1.34" vector-effect="non-scaling-stroke"/>
      <path class="st85" d="M105.79,77.84c-.06-.07-.11-.14-.17-.21-.92-1.3-1.69-2.69-2.32-4.15" vector-effect="non-scaling-stroke"/>
      <path class="st52" d="M103.3,73.47c-.42-1.03-.77-2.09-1.04-3.17" vector-effect="non-scaling-stroke"/>
      <path class="st25" d="M131.23,64.66c-.03,1.21-.13,2.29-.31,3.23-.02.11-.03.2-.04.27-.04.6-.19,1.23-.35,1.81" vector-effect="non-scaling-stroke"/>
      <path class="st44" d="M130.53,69.97c-.55-.38-1.04-.68-1.48-.92-5.2-2.86-11.62-1.97-15.78,2.25-2.39,2.42-3.67,5.6-3.73,9.01,0,.51.06,1.09.09,1.63" vector-effect="non-scaling-stroke"/>
      <path class="st12" d="M109.64,81.94h-.01s-.02.02-.03.02l-1.18-1.07" vector-effect="non-scaling-stroke"/>
      <path class="st36" d="M132.76,71.97c-.83-.87-1.44-1.36-2.22-2.01" vector-effect="non-scaling-stroke"/>
      <path class="st23" d="M132.8,72.05v4.2s-.02.03-.02.04v.02" vector-effect="non-scaling-stroke"/>
      <path class="st53" d="M132.77,76.31l-.18-.32" vector-effect="non-scaling-stroke"/>
      <path class="st86" d="M132.58,75.98l-.19-.37" vector-effect="non-scaling-stroke"/>
      <path class="st53" d="M132.39,75.61c-.74-1.39-1.73-2.59-2.99-3.58-.02-.02-.05-.01-.07,0,0,0,0,0,0,0l-1.26,1.84" vector-effect="non-scaling-stroke"/>
      <path class="st53" d="M128.07,73.88c-.31.44-.62.88-.92,1.31-.02.04-.08.09-.16.16-.02.01-.03.02-.05.02-.11,0-.18-.06-.21-.15,0-.02,0-.04,0-.06.11-.19.18-.31.22-.36.69-1,1.38-2,2.08-2.99.01-.02,0-.03,0-.04-1.5-1.08-3.16-1.73-5-1.96" vector-effect="non-scaling-stroke"/>
      <path class="st83" d="M124.01,69.8c-1.77-.23-3.49-.05-5.17.54" vector-effect="non-scaling-stroke"/>
      <path class="st53" d="M118.84,70.34c-3.11,1.13-5.5,3.57-6.49,6.73,0,.02,0,.03.02.04,1.3.38,2.6.77,3.9,1.17.12.04.21.07.29.11.06.03.09.1.07.17-.05.12-.13.16-.24.13-.64-.18-1.28-.36-1.92-.56" vector-effect="non-scaling-stroke"/>
      <path class="st83" d="M114.46,78.12l-2.21-.66s-.03,0-.04.02c0,0,0,0,0,0-.55,2.12-.49,4.22.18,6.3" vector-effect="non-scaling-stroke"/>
      <path class="st60" d="M110.03,83.79c-.17-.61-.3-1.23-.4-1.85" vector-effect="non-scaling-stroke"/>
      <path class="st55" d="M72.58,76.77c-.13-.12-.41-.33-.84-.64-.36-.26-.82-.68-1.38-1.27-.55-.58-1.03-1.3-1.45-2.17,0-.02-.02-.03-.05-.04h-.03" vector-effect="non-scaling-stroke"/>
      <path class="st95" d="M124.01,69.8c-.03.06-.06.12-.11.16-.01.01-.02.03-.01.05.01.05.02.1.02.16,0,1.19,0,2.37,0,3.56,0,.16.03.29.07.45" vector-effect="non-scaling-stroke"/>
      <path class="st1" d="M123.98,74.18c-.07.27-.1.55-.09.83" vector-effect="non-scaling-stroke"/>
      <path class="st95" d="M123.9,75.01c.01,2.45.02,4.23,0,5.34,0,.1-.06.17-.16.21" vector-effect="non-scaling-stroke"/>
      <path class="st1" d="M123.74,80.55c-.16-.05-.28-.02-.37.11-.01.02-.02.04,0,.06.19.34.41.67.65.98" vector-effect="non-scaling-stroke"/>
      <path class="st95" d="M124.01,81.69s-.05.07-.1.1c-.02.01-.03.03-.03.05v1.95" vector-effect="non-scaling-stroke"/>
      <path class="st95" d="M122.75,83.79c-.06-.12-.08-.2-.08-.25.02-.86.01-1.71,0-2.57,0-.3.03-.64.03-.98,0-3.76-.04-6.56,0-9.65,0-.11-.01-.3,0-.46,0-.02.01-.04.03-.05.04-.03.09-.05.15-.06,0,0,0,0,0,0-.05-.04-.1-.05-.15-.02-.02.01-.04.02-.06,0-.25-.06-.47,0-.72,0-.12,0-.24,0-.36.03-.02,0-.03.01-.03.03-.02.1-.06.19-.12.27-.01.02-.02.04-.02.06-.03.39.03.78.01,1.17-.01.29,0,.68,0,.86,0,3.79,0,6.36,0,7.7,0,.96.01,1.84.06,2.65" vector-effect="non-scaling-stroke"/>
      <path class="st1" d="M121.48,82.52l-.44,1.22s-.02.03-.04.04h-.04" vector-effect="non-scaling-stroke"/>
      <path class="st95" d="M118.82,83.79c-.02-.41-.02-.81-.02-1.22.04-2.48,0-4.97-.01-7.45,0-.41-.02-.82-.04-1.23,0-.02,0-.04.02-.06.04-.04.09-.06.15-.06" vector-effect="non-scaling-stroke"/>
      <path class="st1" d="M118.91,73.78l1.23,2.31s.03.03.06.02l.28-.12s.04-.05.03-.08c0,0,0,0,0,0-.45-.87-.9-1.74-1.37-2.61-.14-.27-.27-.54-.39-.81" vector-effect="non-scaling-stroke"/>
      <path class="st95" d="M118.75,72.48c.05-.58.06-1.17.04-1.75,0-.15.06-.24.05-.39" vector-effect="non-scaling-stroke"/>
      <path class="st47" d="M121.47,83.79c.09-.31.21-.62.36-.91.16-.3-.08-.45-.35-.36" vector-effect="non-scaling-stroke"/>
      <path class="st31" d="M128.07,73.88s.01,0,.02,0c.02,0,.02.01.02.03l-.02.06s0,.01,0,.02c0,0,0,0,.02,0,.02,0,.03,0,.03.03,0,.3-.01.59-.02.89-.02,2.96-.04,5.92-.04,8.88" vector-effect="non-scaling-stroke"/>
      <path class="st47" d="M126.06,83.78c-.1-.21-.26-.46-.49-.77-.61-.82-1.22-1.64-1.83-2.47" vector-effect="non-scaling-stroke"/>
      <path class="st47" d="M123.9,75.01c.11.05.2.06.27.06.05,0,.08-.03.1-.09.13-.66.29-1.3.47-1.93.06-.21.08-.47.08-.68.01-.64.03-1.27.04-1.91,0-.05-.01-.1-.04-.15-.01-.02-.03-.03-.06-.04l-.26-.02c-.05,0-.1.04-.1.09,0,0,0,0,0,0-.02.73,0,1.54-.08,2.2-.07.55-.18,1.09-.34,1.63" vector-effect="non-scaling-stroke"/>
      <path class="st100" d="M103.3,73.47s-.09-.04-.13-.07c-.01-.01-.03-.01-.04,0-.13.06-.24.13-.34.23-.14.12-.31.2-.43.34-.01.02-.03.03-.05.03-.11.02-.19.05-.24.07-.16.1-.96.61-.91.72,0,.02,0,.03,0,.05-.1.25-.2.44-.31.56-.43.5-.99,1.04-1.67,1.61-.46.38-.92.88-1.25,1.16-.5.42-1,.75-1.5,1.02-.03.01-.09.03-.2.04-.02,0-.03.01-.03.03v.58s-.01.03-.03.03h-.19s-.04,0-.06.02l-.22.18s-.02.03-.02.05c0,.26-.52.5-.72.57-.02,0-.03,0-.03-.02v-.54s-.01-.04-.04-.04c-.08,0-.16.04-.25.12-.43.38-.87.74-1.29,1.15-.12.12-.38.32-.78.59-.19.13-.31.32-.34.55" vector-effect="non-scaling-stroke"/>
      <path class="st97" d="M92.23,82.49c-1.3-.13-2.61-.39-3.95-.79-.13-.04-.22-.08-.28-.11" vector-effect="non-scaling-stroke"/>
      <path class="st90" d="M88.01,81.59l.03-.08" vector-effect="non-scaling-stroke"/>
      <path class="st47" d="M118.75,72.48c-.22-.37-.43-.75-.62-1.13-.11-.22-.27-.3-.46-.11-.03.03-.04.09-.02.13.41.82.83,1.63,1.27,2.41" vector-effect="non-scaling-stroke"/>
      <path class="st47" d="M115.16,83.79l.02-.03s.03-.03.04-.03l1.44-.54s.04-.03.04-.06c0-.11-.02-.21-.08-.3-.01-.02-.03-.03-.05-.03-.07,0-.13.02-.19.05-.66.25-1.31.51-1.97.77-.06.02-.12.07-.17.14-.01.01-.03.02-.05.02h-.39" vector-effect="non-scaling-stroke"/>
      <path class="st95" d="M113.6,83.79c.03-.1.05-.18.05-.23-.02-1.78-.01-3.58,0-5.41,0-.06.05-.11.11-.11,0,0,.02,0,.02,0,.12.03.56.18.68.08" vector-effect="non-scaling-stroke"/>
      <path class="st47" d="M132.39,75.61l-3.04,2.06s-.03.03-.03.06c0,.11.04.22.1.31.02.04.07.05.11.02,0,0,0,0,0,0,.86-.55,1.7-1.1,2.52-1.65.17-.12.35-.29.54-.42" vector-effect="non-scaling-stroke"/>
      <path class="st28" d="M132.77,76.31l.03.18" vector-effect="non-scaling-stroke"/>
      <path class="st50" d="M132.8,76.49v4.25" vector-effect="non-scaling-stroke"/>
      <path class="st30" d="M132.79,80.74c0,.97,0,1.94,0,2.91,0,.05-.02.09-.02.14" vector-effect="non-scaling-stroke"/>
      <path class="st47" d="M132.16,83.8l-1.29-.41s-.1.01-.12.06c0,.01,0,.03,0,.04l.05.3" vector-effect="non-scaling-stroke"/>
      <path class="st11" d="M135.83,76.5h-3.03" vector-effect="non-scaling-stroke"/>
      <path class="st98" d="M88.01,81.59c-.27.73-.52,1.46-.74,2.2" vector-effect="non-scaling-stroke"/>
      <path class="st73" d="M84.62,83.79c.01-.1-.02-.17-.09-.22-.44-.27-.83-.2-1.16.21" vector-effect="non-scaling-stroke"/>
      <path class="st61" d="M105.79,77.84c-3.52,3.6-8.59,5.2-13.56,4.65" vector-effect="non-scaling-stroke"/>
      <path class="st74" d="M148.46,76.23l-.05.06s-.03.02-.05.02l-.87.02c-.05,0-.09.04-.09.09l-.04,7.37" vector-effect="non-scaling-stroke"/>
      <path class="st92" d="M135.41,83.79v-.02s0-.02,0-.03c.53-1.11,1.2-2.12,2.03-3.03" vector-effect="non-scaling-stroke"/>
      <path class="st35" d="M137.44,80.72c.89-.97,1.9-1.79,3.03-2.47" vector-effect="non-scaling-stroke"/>
      <path class="st57" d="M140.47,78.25c1.08-.64,2.21-1.12,3.43-1.45.34-.09.67-.18,1.01-.27" vector-effect="non-scaling-stroke"/>
      <path class="st4" d="M150.37,81.66c.31.74.68,1.45,1.12,2.12" vector-effect="non-scaling-stroke"/>
      <path class="st82" d="M140.42,76.51l-.02,1.58s0,.03.02.05c.03.03.05.07.05.11" vector-effect="non-scaling-stroke"/>
      <path class="st32" d="M137.44,80.72l-4.64.03" vector-effect="non-scaling-stroke"/>
      <path class="st19" d="M106.82,79.18s-.02,0-.03,0c-.02.01-.02.02-.02.04.09.23.05.41.05.64,0,1.31-.02,2.62-.02,3.92" vector-effect="non-scaling-stroke"/>
      <path class="st47" d="M125.63,83.79v-.1s-.02-.04-.04-.05l-1.58-1.94" vector-effect="non-scaling-stroke"/>
      <path class="st107" d="M68.84,32.85h6.86c-.05.03-.09.07-.13.11-.03.04-.02.04.02.02l.09-.05s.03,0,.03.02c-.04.18-.1.36-.18.52-.24.51-.48,1.02-.72,1.52-.05.1-.1.2-.17.31-.23.37-.39.8-.56,1.2-.13.3-.34.6-.48.93-.14.33-.34.62-.48.96-.03.08-.1.13-.14.2-.17.37-.39.71-.53,1.11-.07.2-.16.4-.27.58-.01.02,0,.04,0,.06l.08.08c-1.12.42-2.24.86-3.35,1.32-.03.01-.06.03-.08.04v-8.94Z"/>
      <path class="st140" d="M75.7,32.85h2.82l-.14.02s-.02,0,0,.02c1.54.94,2.82,2.14,3.84,3.61.14.21.28.44.41.71,0,.02.02.03.03.04l.03.02v.06c-3.53.85-7,1.88-10.42,3.11l-.08-.08s-.02-.04,0-.06c.11-.19.2-.38.27-.58.14-.4.35-.74.53-1.11.03-.07.11-.12.14-.2.14-.33.33-.63.48-.96.14-.32.35-.63.48-.93.18-.4.33-.82.56-1.2.07-.11.12-.21.17-.31.25-.51.49-1.01.72-1.52.08-.17.14-.34.18-.52,0-.03,0-.03-.03-.02l-.09.05s-.05.01-.02-.02c.04-.04.08-.08.13-.11Z"/>
      <path class="st120" d="M78.52,32.85h4.18v4.41s-.04-.02-.04-.02c-.02,0-.03-.02-.03-.04-.13-.26-.27-.5-.41-.71-1.02-1.47-2.3-2.67-3.84-3.61-.02-.01-.02-.02,0-.02l.14-.02Z"/>
      <path class="st111" d="M82.7,32.85h2.87c-1.3,2.09-2.31,4.42-2.87,6.83-.02-.08-.04-.14-.03-.18.04-.69.06-1.39.06-2.08,0-.02,0-.05-.03-.1v-4.47Z"/>
      <path class="st106" d="M85.57,32.84h4.04s.02.02.02.02c.01,0,.01.02,0,.03-.19.28-.1.48-.19.78-.12.43-.23.79-.35,1.1v-.23s-.01-.04-.03,0c-.14.28-.23.61-.35.87-.19.42-.37.95-.5,1.27-.39.98-.75,1.87-1.12,2.97-.11.33-.33.84-.44,1.29-.07.28-.22.58-.26.91-.02.15-.09.26-.15.4-.08.19-.06.4-.13.61-.09.26-.15.58-.19.86-.02.15-.06.3-.12.44-.06.13-.08.27-.07.42,0,.01,0,.02-.02.02h-.02s-.02.01-.03.02l-.07.19s-.02.04-.04.04c-.15.06-.39.18-.55.16-.16-.02-.29-.07-.45-.06-.35.02-.65.13-1,.17-.23.02-.37.09-.62,0-.02,0-.03,0-.04.02l-.11.18s-.02.02-.02,0v-.02s0-.03-.01,0c0,0,0,0,0,0-.01.02-.02.01-.02,0l-.03-.32s0,0,0,0l-.02.02v-5.31c.56-2.41,1.56-4.74,2.87-6.83Z"/>
      <path class="st103" d="M89.6,32.85h2.05s-.02.01-.02.02c0,.01-.01.03-.01.05v1.17c0,.07.04.11.11.12l1.55.31.22.85s0,.01,0,.02c0,0,0,.02-.01.02-2.28,1.75-3.79,3.98-4.52,6.7-.73,2.73-.35,5.26,1.13,7.59,1.08,1.69,2.67,2.98,4.51,3.76.04.02.08,0,.11-.03.82,2.01,2.08,3.7,3.78,5.07-.08.03-.14.04-.17.04-4.35-.16-8.22-1.79-10.83-5.37-1.09-1.54-1.86-3.5-1.92-5.4-.02-.92.05-1.85.22-2.79.66-3.58,2-6.84,3.3-10.21.12-.31.23-.68.35-1.1.08-.3,0-.5.19-.78,0-.01,0-.02,0-.03l-.02-.02Z"/>
      <path class="st142" d="M91.65,32.85h5.84c-.06.73-.08,1.47-.06,2.2-.2,0-.33,0-.38-.01-1.26-.15-2.52-.32-3.78-.52l-1.55-.31c-.07-.01-.1-.05-.1-.12v-1.17s0-.03,0-.05c0,0,.01-.02.02-.02Z"/>
      <path class="st116" d="M97.49,32.85h6.47s.1.02.1.02c-1.38.83-2.89,1.46-4.53,1.9-.73.19-1.43.29-2.1.29-.02-.74,0-1.47.06-2.2Z"/>
      <path class="st134" d="M103.96,32.85h.4l-.29.02-.1-.02Z"/>
      <path class="st111" d="M104.36,32.85h3.25s0,.01.01.02c0,0,0,.01,0,.02-.66,1.55-1.06,3.17-1.19,4.86-4.29.34-8.26,2.37-10.65,6.02-.01,0-.03,0-.05,0-.01,0-.02,0-.02-.02.01-.15,0-.31-.06-.45,0-.02,0-.04,0-.06.02-.09,0-.2-.03-.33-.05-.17-.06-.45-.11-.65-.23-1.01-.47-1.9-.72-2.65-.53-1.58-.95-2.98-1.26-4.18,0-.01-.01-.03-.03-.05l-.22-.85c1.26.19,2.52.37,3.78.52.05,0,.18.01.38.01.67,0,1.36-.1,2.1-.29,1.64-.43,3.15-1.06,4.53-1.9l.29-.02Z"/>
      <path class="st55" d="M120.53,34.03c.07.58.18,1.15.32,1.72.12.48.22.88.3,1.19.62,2.22,1.88,4.1,3.7,5.52.21.16.42.33.62.49" vector-effect="non-scaling-stroke"/>
      <path class="st112" d="M133.72,32.85h6.64c-.42,2.65-1.33,5.12-2.74,7.41-.93,1.54-2.07,2.89-3.44,4.06-.01.01-.04.05-.08.1l-.03-.04s-.01-.04,0-.06c.19-.41.3-.71.35-.9.95-3.56.67-7.15-.81-10.52,0-.02,0-.04.02-.04l.08-.02Z"/>
      <path class="st111" d="M140.36,32.85h14.53s.03.02.03.02c.01,0,.01.02,0,.03-.15.12-.3.25-.45.38-2.01,1.8-4.02,3.61-6.01,5.42-2.09.18-4.09.66-5.99,1.45-1.02.42-2,.96-2.96,1.62-.01-.02-.02-.02-.04-.02-.01,0-.02,0-.03,0l-.03-.05s-.02-.03-.04-.03c-.14-.02-.23-.14-.33-.2-.11-.07-.16-.17-.27-.24-.26-.17-.34-.44-.52-.66-.01-.01-.03-.02-.05-.02-.06,0-.1-.03-.14-.08-.01-.02-.03-.03-.05-.04-.08-.04-.14-.1-.18-.18,0-.02-.02-.03-.05-.02l-.18.05c1.41-2.28,2.32-4.75,2.74-7.41Z"/>
      <path class="st108" d="M154.89,32.85h1.14v8.57c-.13-.08-.27-.13-.42-.14-.02,0-.03,0-.03.02-.04.22-.09.43-.18.64-.19.48.15.8.62.66v2.06c-3.86-.01-7.71,0-11.57,0-.19,0-.37,0-.55.02h-.4l-.51.02c-.32-.01-.64-.01-.97,0-.06,0-.09-.01-.15-.03l6.57-5.98c2-1.81,4-3.62,6.01-5.42.15-.13.29-.26.45-.38.01-.01.01-.02,0-.03l-.03-.02Z"/>
      <path class="st106" d="M89.1,34.78c-1.3,3.36-2.64,6.62-3.3,10.21-.17.94-.25,1.87-.22,2.79l-.15.33s-.02.03-.04.04c-.11.05-.22.08-.34.1-.37.04-.75.09-1.12.14-.02,0-.04,0-.06,0-.09-.05-.19-.09-.3-.11-.2-.05-.38.05-.62-.04-.02,0-.03-.02-.03-.03l-.02-.05s-.02-.02-.03-.02h-.06s-.02,0-.02,0v-.02s0-.03-.03,0c0,0,0,.02-.01.03,0,0,0,0,0,0h-.01s-.01-.02-.02,0c0,0,0,.01-.01.02v-3.14l.02-.02s0,0,0,0l.03.32s0,.02.02,0c0,0,0,0,0,0,0-.03.01-.03.01,0v.02s0,.03.02,0l.11-.18s.02-.02.04-.02c.25.08.4.01.62,0,.34-.03.65-.14,1-.17.16,0,.28.04.45.06.16.02.4-.1.55-.16.02,0,.04-.02.04-.04l.07-.19s.01-.02.03-.02h.02s.02-.01.02-.02c-.01-.15.01-.29.07-.42.06-.14.1-.29.12-.44.04-.28.1-.6.19-.86.07-.21.06-.42.13-.61.06-.14.13-.25.15-.4.04-.32.19-.62.26-.91.11-.45.33-.96.44-1.29.37-1.1.72-1.99,1.12-2.97.13-.32.31-.85.5-1.27.12-.27.21-.59.35-.87.02-.03.02-.03.02,0v.23Z"/>
      <path class="st108" d="M93.49,35.37s.03.03.03.05c.32,1.2.74,2.6,1.26,4.18.25.75.49,1.64.72,2.65.05.21.06.48.11.65.04.12.05.23.03.33,0,.02,0,.04,0,.06.05.15.07.3.06.45,0,.01,0,.02.02.02.02,0,.03,0,.05,0-1.66,2.58-2.14,5.38-1.45,8.4.06.25.19.67.4,1.27-.03.04-.07.05-.11.03-1.85-.78-3.44-2.07-4.51-3.76-1.49-2.33-1.86-4.86-1.13-7.59.73-2.72,2.23-4.96,4.52-6.7,0,0,.01-.01.01-.02,0,0,0-.01,0-.02Z"/>
      <circle class="st129" cx="98.29" cy="37.37" r=".83"/>
      <path class="st108" d="M82.69,37.32s.03.08.03.1c0,.69-.02,1.39-.06,2.08,0,.04,0,.1.03.18v8.78c-.8,1.18-1.81,2.19-3.04,3.01-2.14,1.43-4.5,2.09-7.06,1.97-.14,0-1.39-.07-1.43-.11,0,0,0,0-.01,0l-1.1-.23s-.01,0-.02-.02c0-.01-.01-.02-.02-.02-.38-.07-.75-.18-1.1-.33-.02,0-.03-.02-.04-.03l-.03-.04v-10.85s.05-.03.08-.04c1.11-.46,2.22-.9,3.35-1.32,3.42-1.22,6.89-2.26,10.42-3.11Z"/>
      <path class="st105" d="M106.42,37.74c-.02.8-.03,1.36-.02,1.67.09,2.11.6,4.12,1.53,6.02l-.16.18s-.02.04-.02.06c-.05.81-.03,1.62-.02,2.43.05,2.43-.08,4.88.05,7.31,0,.03.01.04.04.02,0,0,.02-.02.02-.03.01-.02.03-.03.04-.04.05-.02.08-.05.09-.1,0-.02.01-.04.02-.05.07-.1.12-.21.16-.32,0-.02.02-.04.04-.05.12-.1.25-.16.4-.21.02,0,.03-.01.05-.03.1-.1.2-.12.3-.06.05.03.1.09.13.19.05.13.13.24.14.39,0,.06,0,.12.02.17.04.2,0,1-.35.9.38-.45.28-1.03.07-1.53-.01-.04-.05-.05-.09-.04-.64.23-.94.7-.9,1.41-.05,0-.1.01-.15.04-.02.01-.03.03-.03.05-.02.32-.03.64-.03.96,0,1.49,0,2.97,0,4.46,0,.02,0,.03.03.04.5.26,1.21.19,1.74.08,0,0,0,0,0,0,0,0,0,0,0-.01,0,0,0-.01.02-.01.28,0,.59-.02.93-.07,1.06-.16,2.07-.42,3.03-.78.49-.19,1.1-.47,1.82-.87.03-.02.14-.07.32-.14.2-.09.36-.25.53-.35.22-.13.4-.22.61-.39.24-.2.49-.37.72-.58.15-.14.32-.28.48-.42.01-.01.03-.01.04,0,.05.03.06.09.03.16-4.43,3.85-10.58,4.65-15.98,2.49-.77-.35-1.51-.74-2.23-1.17-.47-.31-.92-.65-1.35-1-1.69-1.36-2.95-3.05-3.78-5.07-.21-.6-.34-1.02-.4-1.27-.69-3.02-.2-5.82,1.45-8.4,2.39-3.65,6.36-5.68,10.65-6.02Z"/>
      <path class="st106" d="M148.46,38.7l-6.57,5.98s-.01,0-.02,0c-.02,0-.02.02-.02.03,1.7,6.21,7.89,9.91,14.14,9.33,0,0,.02,0,.03,0,0,0,0,0,.01.01v1.45c-2.84.05-5.31-.02-8.66.01h-12.03s-.03.01-.03.03c.98,5.96,6.1,10.04,12,10.4,2.72.13,5.14-.49,7.55-1.66-3.68,2.86-5.71,7.31-5.65,11.95l-.75-.03c-.95-.02-1.8.03-2.57.15-.48.07-.8.12-.98.14-1.07-.02-2.14-.03-3.21-.02-.06,0-.13-.02-.2-.02-.34-.21-.68-.42-1.02-.64-3.67-2.31-6.3-5.94-7.32-10.15-.09-.36-.14-.79-.22-1.18-.03-.36-.04-.93-.04-1.68,0-3.27,0-6.54,0-9.81,0-1.33.18-2.55.68-3.79,1.22-3.01,3.21-5.59,5.95-7.47.95-.66,1.94-1.2,2.96-1.62,1.9-.79,3.89-1.27,5.99-1.45Z"/>
      <path class="st118" d="M139.52,41.77c-2.74,1.87-4.72,4.45-5.95,7.47-.5,1.24-.68,2.46-.68,3.79,0,3.27,0,6.54,0,9.81,0,.76.01,1.32.04,1.68l-.18.15-1.5-.02c0-.13,0-.25,0-.38,0-4.56,0-9.11,0-13.67,0-.37-.05-.85-.14-1.42.88-.93,1.62-1.97,2.21-3.1.25-.48.51-1.11.76-1.66.04-.06.06-.09.08-.1,1.37-1.17,2.52-2.52,3.44-4.06l.18-.05s.04,0,.05.02c.04.08.1.15.18.18.02,0,.04.02.05.04.03.05.08.07.14.08.02,0,.03.01.05.02.19.22.26.5.52.66.11.07.16.17.27.24.1.06.19.18.33.2.02,0,.03.01.04.03l.03.05s.02.01.03,0c.02,0,.03,0,.04.02Z"/>
      <path class="st117" d="M156.04,44.66v5.89c-.2.02-.36.02-.49.01-.74-.06-1.59-.16-2.32-.3-2.99-.6-5.61-1.95-7.86-4.03-.21-.19-.61-.62-1.2-1.3-.06-.07-.14-.15-.26-.25.18-.01.37-.02.55-.02,3.86-.01,7.71-.02,11.57,0Z"/>
      <path class="st141" d="M141.89,44.68c.05.02.09.03.15.03.33-.02.65-.02.97,0,.28.58.65,1.05,1.06,1.56,1.96,2.45,4.91,4.2,7.92,4.99,1.25.33,2.58.51,4.01.54.02,0,.03,0,.04-.03l.02-.08v2.39s0,0-.01-.01c0,0-.02,0-.03,0-6.25.58-12.44-3.13-14.14-9.33,0-.02,0-.03.02-.03,0,0,.01,0,.02,0Z"/>
      <path class="st108" d="M143.51,44.68c.73,1.04,1.47,1.91,2.24,2.6,2.78,2.51,6.47,3.96,10.28,3.96v.44l-.02.08s-.02.03-.04.03c-1.42-.03-2.76-.2-4.01-.54-3-.8-5.96-2.54-7.92-4.99-.41-.51-.77-.98-1.06-1.56l.51-.02Z"/>
      <path class="st140" d="M143.51,44.68h.4c.11.1.2.18.26.25.59.67.99,1.11,1.2,1.3,2.25,2.08,4.87,3.42,7.86,4.03.73.15,1.58.25,2.32.3.13,0,.29,0,.49-.01v.69c-3.82,0-7.5-1.45-10.28-3.96-.76-.69-1.51-1.55-2.24-2.6Z"/>
      <path class="st133" d="M107.94,45.43c2.65,5.15,7.88,8.23,13.68,7.99-.86,1.81-2.05,3.47-3.56,4.76.03-.07.02-.13-.03-.16-.01-.01-.03,0-.04,0-.17.13-.33.27-.48.42-.23.21-.48.38-.72.58-.2.17-.39.26-.61.39-.17.1-.33.26-.53.35-.18.08-.28.12-.32.14-.72.39-1.33.68-1.82.87-.96.36-1.97.62-3.03.78-.34.05-.65.07-.93.07,0,0-.01,0-.02.01,0,0,0,.01,0,.01,0,0,0,0,0,0-.53.11-1.24.18-1.74-.08-.02,0-.03-.02-.03-.04,0-1.49,0-2.98,0-4.46,0-.32,0-.64.03-.96,0-.02.01-.04.03-.05.05-.03.09-.05.15-.04.24.38.55.44.92.17.36.1.4-.7.35-.9-.01-.05-.02-.11-.02-.17,0-.15-.09-.26-.14-.39-.04-.1-.08-.16-.13-.19-.1-.05-.2-.03-.3.06-.01.01-.03.02-.05.03-.15.04-.28.11-.4.21-.02.01-.03.03-.04.05-.04.11-.09.22-.16.32-.01.02-.02.03-.02.05,0,.04-.04.08-.09.1-.02,0-.03.02-.04.04,0,.01-.01.02-.02.03-.02.02-.04.01-.04-.02-.12-2.42,0-4.88-.05-7.31-.02-.81-.03-1.62.02-2.43,0-.02,0-.04.02-.06l.16-.18Z"/>
      <path class="st106" d="M85.57,47.77c.05,1.91.83,3.86,1.92,5.4-.03.04-.03.07.01.1.02.01.02.02.02.04v.08s0,.04.02.05c.03.01.06.04.07.08,0,.02,0,.04-.02.05-.09.05-.16.12-.2.21,0,.02,0,.04.02.04l.18.08s.02.02,0,.04c-.13.12-.22.29-.45.28,0,0,0,0,0,0l.02.02s0,0,0,.01c0,0-.01,0-.02,0-.02,0-.02,0,0,0h.03s.03,0,.04.03c.04.08.11.12.21.11t0,0c-.13.02-.27.03-.4.04-.02,0-.03,0-.04.03-.03.05-.07.06-.13.03-.02,0-.04-.01-.06-.01-.53,0-1.05.05-1.56.17-.07.01-.18,0-.22.02-.15.06-.31.09-.47.11-.11.01-.25-.05-.36,0-.21.09-.34.03-.51.03-.21,0-.42.01-.64.01-.02,0-.04,0-.05-.02-.01-.01-.03-.02-.05-.01-.09.02-.09.02,0-.01h.02s0-.01,0-.02c-.06-.03-.11-.07-.15-.13-.02-.04-.05-.04-.09,0v-6.19s-.02-.33-.02-.33c0,0,.01,0,.01-.02,0-.01.01-.01.02,0h.01s0,.01,0,0c0,0,0-.02.01-.03.02-.02.03-.02.03,0v.02s0,.02.02.02h.06s.03,0,.03,0l.02.05s.02.03.03.03c.24.09.42,0,.62.04.1.02.2.06.3.11.02,0,.04.01.06,0,.37-.05.74-.1,1.12-.14.12-.01.24-.05.34-.1.02,0,.03-.02.04-.04l.15-.33Z"/>
      <path class="st111" d="M82.7,48.45v6.19s0,6.17,0,6.17c0,.01,0,.02.02.03,1.58.53,3.21.88,4.88,1.05,0,.08-.02.14-.01.22.42,4.71-.91,9.48-3.98,13.11-.33.39-.87.92-1.63,1.6l-.03-.07s0-.04,0-.06c.09-.26.19-.56.28-.91.47-1.83.69-3.74.54-5.61-.59-7.47-6.39-13.04-13.92-13.31v-4.23l.03.04s.03.03.04.03c.35.15.72.26,1.1.33,0,0,.02,0,.02.02,0,0,0,.01.02.02l1.1.23s.01,0,.01,0c.03.05,1.28.11,1.43.11,2.56.12,4.91-.53,7.06-1.97,1.23-.82,2.25-1.83,3.05-3.01Z"/>
      <path class="st103" d="M131.13,49.18c.09.57.14,1.05.14,1.42,0,4.56,0,9.11,0,13.67,0,.13,0,.25,0,.38h-.03s-13.2,0-13.2,0c-.01-.16-.02-.31-.04-.46-.04-.56-.71-.83-1.13-.47-.31.27-.23.58-.34.94h-7.96s-6.88,0-6.88,0c0-1.34.14-2.67.39-3.98,5.4,2.16,11.55,1.36,15.98-2.49,1.51-1.3,2.7-2.95,3.56-4.76,0-.02.02-.03.03-.03,3.7-.22,6.86-1.63,9.47-4.21Z"/>
      <path class="st129" d="M136.56,50.68c-.38.12-.91-.22-.83-.66.1-.53.72-.78,1.21-.81.12,0,.19.04.2.15.09.48-.07,1.15-.58,1.32Z"/>
      <path class="st129" d="M156.34,42.29c-.13.38-.71.61-1.02.28-.37-.39-.21-1.04.06-1.45.07-.1.15-.12.24-.08.44.21.89.74.72,1.25Z"/>
      <path class="st106" d="M87.49,53.18c2.61,3.58,6.48,5.21,10.83,5.37.03,0,.09-.01.17-.04.43.35.88.69,1.35,1-3.85,1.91-7.93,2.71-12.25,2.39-1.67-.17-3.29-.52-4.88-1.05-.01,0-.02-.02-.02-.03v-6.17c.05-.04.08-.04.1,0,.04.06.09.1.15.13,0,0,0,0,0,0h-.02c-.09.04-.08.04,0,.02.02,0,.04,0,.05.01.01.01.03.02.05.02.21,0,.42,0,.64-.01.17,0,.3.05.51-.03.11-.05.25.02.36,0,.16-.02.32-.05.47-.11.05-.02.16,0,.22-.02.51-.12,1.03-.17,1.56-.17.02,0,.04,0,.06.01.06.03.1.02.13-.03.01-.02.02-.03.04-.03.14,0,.27-.02.4-.04t0,0c-.11.01-.18-.02-.21-.11,0-.02-.02-.03-.04-.03h-.03s-.02,0,0,0c0,0,.01,0,.02,0,0,0,0,0,0-.01l-.02-.02s0,0,0,0c.23,0,.32-.16.45-.28.02-.02.02-.03,0-.04l-.18-.08s-.03-.02-.02-.04c.04-.09.11-.16.2-.21.02-.01.03-.03.02-.05-.01-.04-.03-.06-.07-.08-.02,0-.03-.03-.03-.05v-.08s0-.03-.01-.04c-.04-.03-.05-.06-.01-.1Z"/>
      <path class="st133" d="M108.87,56.18c-.37.27-.68.21-.92-.17-.04-.71.26-1.18.9-1.41.04-.01.08,0,.09.04.21.51.31,1.08-.07,1.53Z"/>
      <path class="st142" d="M147.37,55.54c.01.09-.03.14-.03.22,0,1.55,0,3.11-.01,4.68-3.87.02-7.57-1.62-9.93-4.72-.03-.04-.07-.11-.1-.18h10.07Z"/>
      <path class="st116" d="M156.04,55.52v1.44c-2.35,2.16-5.48,3.5-8.71,3.47.01-1.56.02-3.12.01-4.68,0-.08.04-.14.03-.22,3.35-.04,5.83.03,8.66-.01Z"/>
      <path class="st142" d="M136.49,55.54c2.16,3.38,6.23,5.4,10.2,5.53.21,0,.43.02.64.03v4.84s0,.01,0,.02l-.02.02c-5.9-.36-11.02-4.44-12-10.4,0-.02,0-.03.03-.03h1.15Z"/>
      <path class="st124" d="M136.49,55.54h.81c.04.08.07.14.1.18,2.35,3.09,6.06,4.74,9.93,4.72,3.22.02,6.35-1.32,8.71-3.47v.87c-2.51,2.1-5.41,3.19-8.71,3.27-.21,0-.43-.02-.64-.03-3.97-.13-8.03-2.15-10.2-5.53Z"/>
      <path class="st141" d="M68.84,56.86c7.52.27,13.33,5.84,13.92,13.31.15,1.87-.07,3.78-.54,5.61-.09.35-.18.65-.28.91,0,.02,0,.04,0,.06l.03.07c-.11.12-.18.26-.23.42-.1.33-.26.61-.44.98-.65,1.35-1.52,2.57-2.62,3.67-.74.7-1.54,1.32-2.4,1.86-.01,0-.01.02,0,.02l.06.02h-7.5v-8.73c.02.07.04.14.11.19,1.07.81,2.3,1.28,3.64,1.51l.24.05s.05,0,.05-.04c.14-1.87.43-3.63-.54-5.36-.84-1.48-1.95-2.19-3.44-2.91-.02,0-.03,0-.03.01l-.02.04v-11.71Z"/>
      <path class="st116" d="M156.03,57.83v5.66s-.01.03-.01.03c0,.02-.02.03-.04.04-.39.23-.77.48-1.12.75-2.41,1.18-4.83,1.8-7.55,1.66l.02-.02s0-.01,0-.02v-4.84c3.29-.07,6.19-1.16,8.7-3.27Z"/>
      <path class="st112" d="M99.84,59.5c.72.44,1.47.83,2.23,1.17-.25,1.32-.38,2.64-.39,3.98v1.62s-7.31-3.96-7.31-3.96c-.06-.03-.1-.02-.12.05-1,3.1-2,6.18-2.99,9.25-.09.29-.19.58-.3.86-.44.14-.98.36-1.61.66-4.45,2.11-7.76,5.77-8.85,10.65h-1.9l.02-1.76s0-.04.02-.06l.05-.08c1.09-1.1,1.97-2.33,2.62-3.67.18-.37.34-.65.44-.98.05-.15.12-.29.23-.42.76-.68,1.3-1.21,1.63-1.6,3.07-3.63,4.4-8.41,3.98-13.11,0-.08,0-.14.01-.22,4.31.32,8.39-.48,12.25-2.39Z"/>
      <path class="st111" d="M101.69,66.28c.07,1.36.26,2.7.57,4.03l-.06.06s-.03.02-.05.02c-.13,0-.25.03-.36.08-.01,0-.02,0-.03,0-.02-.03-.53.24-.58.34-.2.39-.48.59-.78.85-.28.24-.58.57-.89.84-.02.01-.01.02,0,.03h.02s.03.02.01.04c-.18.19-.43.29-.6.45-.41.36-.82.73-1.22,1.09-.31.28-.6.62-.92.87-.13.1-.27.21-.41.31-.02.01-.04.02-.06.02-.11,0-.16.06-.15.19,0,.06.06,1.06-.06,1.17-.02.02-.03.01-.04,0-.08-.15-.68.32-.78.42-.01.01-.02.03-.02.05.02.23-.25.22-.35.06,0-.01-.01-.03-.02-.05v-.39s-.03-.04-.05-.04c-.22.02-.41.12-.55.3-.01.02-.02.03-.02.05,0,.03-.03.05-.06.05-.02,0-.04,0-.05.02-.4.32-.78.67-1.14,1.03-.25.26-.57.45-.81.63-.14.1-.29.17-.4.26-.21.17-.4.35-.58.54-.15.16-.32.22-.51.3-.07.03-.14.13-.23.29-.01.02-.03.03-.05.04l-.26.09s-.04.02-.05.03c-.08.07-.18.1-.29.1-.02,0-.04,0-.06.02-.22.18-.4.4-.54.66,0,.01-.02.02-.04.03-.18.06-.42.28-.3.49,0,.01,0,.02,0,.02-.07.02-.12,0-.17-.02-.02-.01-.04,0-.04.02-.05.13-.49-.15-.61-.07-.02.01-.03.01-.05,0-.02-.01-.03-.04-.03-.08l2.93-9.03c.11-.28.21-.57.3-.86,1-3.07,1.99-6.15,2.99-9.25.02-.07.06-.08.12-.05l7.31,3.96Z"/>
      <path class="st141" d="M156.04,63.48v20.31h-4.41s-.07-.08-.1-.13c-.35-.65-.77-1.3-1.03-1.98,0-.02-.02-.03-.04-.04-.03-.01-.06,0-.08.02-.72-1.73-1.11-3.53-1.17-5.41-.06-4.64,1.97-9.09,5.65-11.95.36-.27.73-.52,1.12-.75.02-.01.03-.03.04-.04v-.03Z"/>
      <path class="st129" d="M118.03,64.65h-1.5c.11-.36.03-.67.34-.94.42-.35,1.09-.08,1.13.47.01.15.02.31.04.46Z"/>
      <path class="st104" d="M132.93,64.52c.08.39.13.82.22,1.18,1.02,4.21,3.65,7.84,7.32,10.15.34.21.68.43,1.02.64l-1.07.02h-4.59c0-.08,0-.12-.02-.15-.76-1.51-1.7-2.89-2.82-4.15-.06-.06-.12-.12-.19-.16l-.05-.08s.01,0,.02,0c0,0,.01,0,.01-.02,0-1.83,0-3.67,0-5.5,0-.58.01-1.05-.03-1.78l.18-.15Z"/>
      <path class="st108" d="M101.69,64.66h6.88s-.14.01-.14.01c-.01,0-.01,0,0,.01h.01s0,.03,0,.03c0,0-.01,0-.02,0-.01,0-.01,0,0,0l.06.02s.03.02,0,.04c-.15.11-.33.18-.27.42,0,.02,0,.04,0,.06-.06.15-.13.27-.14.44-.02.17-.05.35-.1.51-.06.18,0,.36-.06.55-.03.12-.05.22-.05.29,0,.51,0,1.01,0,1.52,0,.43-.11.9-.08,1.33,0,.13,0,.24,0,.32-.04.58,0,1.3.02,2.24.02.7,0,1.65-.05,2.85-.03.61.06,1.16.18,1.75.07.34.05.67.04,1.01-.01.33.03.73-.02,1.11,0,.03-.03.07-.08.13-.35.41.2.47.12.74,0,.02,0,.04,0,.06l.19.31s.03.04.04.05c.06.05.08.11.06.18,0,.02,0,.04.02.05.07.04.1.11.09.19-.57-.53-1.1-1.1-1.59-1.7-.38-.42-.72-.87-1.03-1.34-.06-.07-.11-.14-.17-.21-.92-1.3-1.69-2.69-2.32-4.15-.42-1.03-.77-2.09-1.04-3.17-.31-1.33-.5-2.67-.57-4.03v-1.62Z"/>
      <path class="st140" d="M108.57,64.66h7.96s1.5,0,1.5,0h13.2c-.03,1.21-.13,2.29-.31,3.24-.02.11-.03.2-.04.27-.04.6-.19,1.23-.35,1.81-.55-.38-1.04-.68-1.48-.92-5.2-2.86-11.62-1.97-15.78,2.25-2.39,2.42-3.67,5.6-3.73,9.01,0,.51.06,1.09.09,1.63h-.01s-.02.02-.03.02l-1.18-1.07c0-.08-.02-.15-.09-.19-.02-.01-.03-.03-.02-.05.01-.07,0-.14-.06-.18-.02-.01-.03-.03-.04-.05l-.19-.31s-.01-.04,0-.06c.08-.27-.47-.33-.12-.74.05-.06.08-.1.08-.13.04-.37,0-.78.02-1.11.01-.34.03-.67-.04-1.01-.11-.58-.21-1.14-.18-1.75.06-1.2.07-2.14.05-2.85-.03-.94-.06-1.66-.02-2.24,0-.08,0-.19,0-.32-.03-.43.08-.9.08-1.33,0-.51,0-1.01,0-1.52,0-.07.02-.17.05-.29.05-.19,0-.37.06-.55.05-.17.09-.34.1-.51.02-.17.08-.29.14-.44,0-.02,0-.04,0-.06-.06-.24.12-.3.27-.42.03-.02.02-.03,0-.04l-.06-.02s-.01,0,0,0c0,0,.01,0,.02,0,.01,0,.01,0,0-.02h-.01s0-.03,0-.03h.14Z"/>
      <path class="st120" d="M131.23,64.66h.03s1.5.02,1.5.02c.05.73.03,1.2.03,1.78,0,1.83,0,3.67,0,5.5,0,0,0,.02-.01.02,0,0-.01,0-.02,0-.83-.87-1.44-1.36-2.22-2.01.16-.57.31-1.2.35-1.81,0-.07.02-.16.04-.27.18-.95.28-2.03.31-3.23Z"/>
      <path class="st139" d="M130.53,69.97c.78.64,1.39,1.14,2.22,2.01l.05.08v4.2s-.02.03-.02.04v.02s-.19-.32-.19-.32l-.19-.37c-.74-1.39-1.73-2.59-2.99-3.58-.02-.02-.05-.01-.07,0,0,0,0,0,0,0l-1.26,1.84c-.31.44-.62.88-.92,1.31-.02.04-.08.09-.16.16-.02.01-.03.02-.05.02-.11,0-.18-.06-.21-.15,0-.02,0-.04,0-.06.11-.19.18-.31.22-.36.69-1,1.38-2,2.08-2.99.01-.02,0-.03,0-.04-1.5-1.08-3.16-1.73-5-1.96-1.77-.23-3.49-.05-5.17.54-3.11,1.13-5.5,3.57-6.49,6.73,0,.02,0,.03.02.04,1.3.38,2.6.77,3.9,1.17.12.04.21.07.29.11.06.03.09.1.07.17-.05.12-.13.16-.24.13-.64-.18-1.28-.36-1.92-.56l-2.21-.66s-.03,0-.04.02c0,0,0,0,0,0-.55,2.12-.49,4.22.18,6.3h-2.36c-.17-.6-.3-1.22-.4-1.85-.04-.54-.1-1.12-.09-1.63.06-3.41,1.34-6.59,3.73-9.01,4.17-4.22,10.58-5.11,15.78-2.25.44.24.93.55,1.48.92Z"/>
      <path class="st112" d="M72.58,76.77c-.13-.12-.41-.33-.84-.64-.36-.26-.82-.68-1.38-1.27-.55-.58-1.03-1.3-1.45-2.17,0-.02-.02-.03-.05-.04h-.03v-4.08l.02-.04s.02-.02.03-.01c1.49.72,2.6,1.44,3.44,2.91.98,1.72.68,3.49.54,5.36,0,.03-.02.05-.05.04l-.24-.05Z"/>
      <path class="st146" d="M124.01,69.8c-.03.06-.06.12-.11.16-.01.01-.02.03-.01.05.01.05.02.1.02.16,0,1.19,0,2.37,0,3.56,0,.16.03.29.07.45-.07.27-.1.55-.09.83.01,2.45.02,4.23,0,5.34,0,.1-.06.17-.16.21-.16-.05-.28-.02-.37.11-.01.02-.02.04,0,.06.19.34.41.67.65.98-.02.04-.05.07-.1.1-.02.01-.03.03-.03.05v1.95s-1.13,0-1.13,0c-.06-.12-.08-.2-.08-.25.02-.86.01-1.71,0-2.57,0-.3.03-.64.03-.98,0-3.76-.04-6.56,0-9.65,0-.11-.01-.3,0-.46,0-.02.01-.04.03-.05.04-.03.09-.05.15-.06,0,0,0,0,0,0-.05-.04-.1-.05-.15-.02-.02.01-.04.02-.06,0-.25-.06-.47,0-.72,0-.12,0-.24,0-.36.03-.02,0-.03.01-.03.03-.02.1-.06.19-.12.27-.01.02-.02.04-.02.06-.03.39.03.78.01,1.17-.01.29,0,.68,0,.86,0,3.79,0,6.36,0,7.7,0,.96.01,1.84.06,2.65l-.44,1.22s-.02.03-.04.04h-.04s-2.14.01-2.14.01c-.02-.41-.02-.81-.02-1.22.04-2.48,0-4.97-.01-7.45,0-.41-.02-.82-.04-1.23,0-.02,0-.04.02-.06.04-.04.09-.06.15-.06l1.23,2.31s.03.03.06.02l.28-.12s.04-.05.03-.08c0,0,0,0,0,0-.45-.87-.9-1.74-1.37-2.61-.14-.27-.27-.54-.39-.81.05-.58.06-1.17.04-1.75,0-.15.06-.24.05-.39,1.68-.59,3.4-.77,5.17-.54Z"/>
      <path class="st143" d="M122.75,83.79h-1.29c.09-.31.21-.62.36-.91.16-.3-.08-.45-.35-.36-.05-.81-.07-1.7-.06-2.65.01-1.34.01-3.9,0-7.7,0-.18-.02-.57,0-.86.02-.39-.04-.77-.01-1.17,0-.02,0-.04.02-.06.07-.08.11-.17.12-.27,0-.02.01-.03.03-.03.12-.03.24-.04.36-.03.25.01.47-.05.72,0,.02,0,.04,0,.06,0,.05-.03.11-.03.15.02,0,0,0,0,0,0-.05,0-.1.02-.15.06-.02.01-.03.03-.03.05-.02.15,0,.35,0,.46-.04,3.08,0,5.89,0,9.65,0,.34-.03.68-.03.98.02.86.02,1.71,0,2.57,0,.05.03.13.08.25Z"/>
      <path class="st143" d="M124.01,69.8c1.83.23,3.5.88,5,1.96.02.01.02.03,0,.04-.69,1-1.38,1.99-2.08,2.99-.03.05-.11.17-.22.36-.01.02-.01.04,0,.06.03.1.1.15.21.15.02,0,.04,0,.05-.02.08-.07.14-.12.16-.16.31-.44.61-.88.92-1.31,0,0,.01,0,.02,0,.02,0,.02.01.02.03l-.02.06s0,.01,0,.02c0,0,0,0,.02,0,.02,0,.03,0,.03.03,0,.3-.01.59-.02.89-.02,2.96-.04,5.92-.04,8.88h-2.02c-.1-.21-.26-.47-.49-.78-.61-.82-1.22-1.64-1.83-2.47.11-.04.16-.1.16-.21.01-1.11.01-2.89,0-5.34.11.05.2.06.27.06.05,0,.08-.03.1-.09.13-.66.29-1.3.47-1.93.06-.21.08-.47.08-.68.01-.64.03-1.27.04-1.91,0-.05-.01-.1-.04-.15-.01-.02-.03-.03-.06-.04l-.26-.02c-.05,0-.1.04-.1.09,0,0,0,0,0,0-.02.73,0,1.54-.08,2.2-.07.55-.18,1.09-.34,1.63-.04-.15-.07-.28-.07-.45,0-1.19-.01-2.37,0-3.56,0-.05,0-.1-.02-.16,0-.02,0-.03.01-.05.05-.05.09-.1.11-.16Z"/>
      <path class="st138" d="M123.9,75.01c-.01-.28.02-.56.09-.83.16-.53.28-1.08.34-1.63.08-.65.06-1.47.08-2.2,0-.05.05-.1.1-.1,0,0,0,0,0,0l.26.02s.04.01.06.04c.03.05.04.1.04.15-.01.64-.02,1.27-.04,1.91,0,.21-.02.48-.08.68-.18.63-.34,1.27-.47,1.93-.01.05-.04.08-.1.09-.08,0-.17-.01-.27-.06Z"/>
      <path class="st111" d="M102.26,70.3c.27,1.08.62,2.14,1.04,3.17-.05-.01-.09-.04-.13-.07-.01-.01-.03-.01-.04,0-.13.06-.24.13-.34.23-.14.12-.31.2-.43.34-.01.02-.03.03-.05.03-.11.02-.19.05-.24.07-.16.1-.96.61-.91.72,0,.02,0,.03,0,.05-.1.25-.2.44-.31.56-.43.5-.99,1.04-1.67,1.61-.46.38-.92.88-1.25,1.16-.5.42-1,.75-1.5,1.02-.03.01-.09.03-.2.04-.02,0-.03.01-.03.03v.58s-.01.03-.03.03h-.19s-.04,0-.06.02l-.22.18s-.02.03-.02.05c0,.26-.52.5-.72.57-.02,0-.03,0-.03-.02v-.54s-.01-.04-.04-.04c-.08,0-.16.04-.25.12-.43.38-.87.74-1.29,1.15-.12.12-.38.32-.78.59-.19.13-.31.32-.34.55-1.3-.13-2.61-.39-3.95-.79-.13-.04-.22-.08-.28-.11l.03-.08s0,.07.03.08c.02,0,.03,0,.05,0,.12-.08.57.2.61.07,0-.02.02-.03.04-.02.05.03.11.04.17.02.01,0,.02-.01,0-.02-.12-.21.12-.43.3-.49.02,0,.03-.02.04-.03.14-.25.32-.47.54-.66.02-.01.04-.02.06-.02.11,0,.21-.03.29-.1.02-.01.03-.02.05-.03l.26-.09s.04-.02.05-.04c.09-.16.16-.26.23-.29.19-.09.36-.14.51-.3.18-.19.37-.37.58-.54.11-.09.26-.15.4-.26.24-.18.55-.37.81-.63.36-.36.74-.71,1.14-1.03.02-.01.03-.02.05-.02.03,0,.05-.02.06-.05,0-.02.01-.04.02-.05.14-.18.33-.28.55-.3.03,0,.04.01.04.04v.39s.02.03.03.05c.1.15.38.17.35-.06,0-.02,0-.03.02-.05.1-.09.7-.57.78-.42.01.02.02.02.04,0,.12-.11.06-1.11.06-1.17,0-.13.04-.19.15-.19.02,0,.04,0,.06-.02.14-.1.27-.21.41-.31.33-.25.61-.59.92-.87.41-.37.81-.73,1.22-1.09.17-.15.42-.26.6-.45.02-.02.02-.03-.01-.04h-.02s-.02-.01,0-.03c.31-.27.61-.6.89-.84.3-.26.58-.46.78-.85.05-.11.56-.37.58-.34,0,.01.02.01.03,0,.11-.06.23-.09.36-.08.02,0,.04,0,.05-.02l.06-.06Z"/>
      <path class="st143" d="M118.84,70.34c0,.15-.06.24-.05.39.02.58.01,1.17-.04,1.75-.22-.37-.43-.75-.62-1.13-.11-.22-.27-.3-.46-.11-.03.03-.04.09-.02.13.41.82.83,1.63,1.27,2.41-.06,0-.11.01-.15.06-.01.02-.02.03-.02.06.03.41.04.82.04,1.23.01,2.48.05,4.97.01,7.45,0,.41,0,.81.02,1.22h-3.66l.02-.03s.03-.03.04-.03l1.44-.54s.04-.03.04-.06c0-.11-.02-.21-.08-.3-.01-.02-.03-.03-.05-.03-.07,0-.13.02-.19.05-.66.25-1.31.51-1.97.77-.06.02-.12.07-.17.14-.01.01-.03.02-.05.02h-.39s-.21.01-.21.01c.03-.1.05-.18.05-.23-.02-1.78-.01-3.58,0-5.41,0-.06.05-.11.11-.11,0,0,.02,0,.02,0,.12.03.56.18.68.08.64.19,1.27.38,1.92.56.11.03.19-.01.24-.13.03-.07,0-.14-.07-.17-.08-.04-.17-.07-.29-.11-1.3-.4-2.59-.79-3.9-1.17-.02,0-.03-.02-.02-.04.99-3.16,3.39-5.6,6.49-6.73Z"/>
      <ellipse class="st139" cx="146.65" cy="71.35" rx=".83" ry=".84" transform="translate(-8.5 21.1) rotate(-8)"/>
      <path class="st138" d="M118.75,72.48c.12.27.25.55.39.81.46.86.92,1.73,1.37,2.61.02.03,0,.07-.03.08,0,0,0,0,0,0l-.28.12s-.04,0-.06-.02l-1.23-2.31c-.44-.78-.86-1.59-1.27-2.41-.02-.04-.01-.09.02-.13.19-.19.35-.11.46.11.19.38.4.76.62,1.13Z"/>
      <path class="st143" d="M132.39,75.61l-3.04,2.06s-.03.03-.03.06c0,.11.04.22.1.31.02.04.07.05.11.02,0,0,0,0,0,0,.86-.55,1.7-1.1,2.52-1.65.17-.12.35-.29.54-.42l.18.32.03.18v4.25c0,.97,0,1.94,0,2.91,0,.05-.02.09-.02.14h-.62s-1.29-.4-1.29-.4c-.05-.02-.1.01-.12.06,0,.01,0,.03,0,.04l.05.3h-2.73c0-2.96.01-5.92.04-8.88,0-.3,0-.59.02-.89,0-.02,0-.03-.03-.03,0,0-.01,0-.02,0,0,0-.01,0,0-.02l.02-.06s0-.02-.02-.03c0,0-.01,0-.02,0l1.26-1.84s.05-.03.07-.01c0,0,0,0,0,0,1.26.99,2.25,2.18,2.99,3.58Z"/>
      <path class="st119" d="M132.8,72.05c.07.04.14.09.19.16,1.12,1.26,2.06,2.64,2.82,4.15.01.03.02.08.02.15h-3.03s-.03-.2-.03-.2v-.02s.02-.02.02-.04v-4.2Z"/>
      <path class="st145" d="M90.96,72.48l-2.93,9.03-.03.08c-.27.73-.52,1.46-.74,2.2h-2.65c.01-.1-.02-.17-.09-.22-.44-.27-.83-.2-1.16.21h-2.87c1.09-4.87,4.4-8.54,8.85-10.65.63-.3,1.17-.52,1.61-.66Z"/>
      <path class="st120" d="M68.84,72.64h.03s.04.03.05.05c.42.87.9,1.6,1.45,2.17.56.59,1.02,1.01,1.38,1.27.43.31.71.52.84.64-1.33-.24-2.57-.71-3.64-1.51-.06-.05-.09-.12-.11-.19v-2.42Z"/>
      <path class="st111" d="M103.3,73.47c.63,1.46,1.41,2.85,2.32,4.15.05.07.11.14.17.21-3.52,3.6-8.59,5.2-13.56,4.65.03-.23.14-.41.34-.55.4-.27.65-.47.78-.59.41-.41.86-.76,1.29-1.15.09-.08.17-.12.25-.12.03,0,.04.01.04.04v.54s0,.02.03.02c.2-.06.73-.3.72-.57,0-.02,0-.04.02-.05l.22-.18s.04-.02.06-.02h.19s.03-.01.03-.03v-.58s0-.03.03-.03c.11-.01.17-.03.2-.04.5-.26,1.01-.6,1.5-1.02.33-.28.8-.77,1.25-1.16.68-.57,1.23-1.11,1.67-1.61.1-.12.21-.31.31-.56,0-.02,0-.03,0-.05-.05-.11.75-.62.91-.72.05-.03.13-.05.24-.07.02,0,.04-.01.05-.03.12-.15.3-.22.43-.34.1-.09.22-.17.34-.23.02,0,.03,0,.04,0,.04.04.08.06.13.07Z"/>
      <path class="st138" d="M132.39,75.61l.19.37c-.19.13-.37.3-.54.42-.82.56-1.66,1.11-2.52,1.65-.04.02-.08.01-.11-.02,0,0,0,0,0,0-.06-.1-.09-.2-.1-.31,0-.02,0-.04.03-.06l3.04-2.06Z"/>
      <path class="st123" d="M148.46,76.23l-.05.06s-.03.02-.05.02l-.87.02c-.05,0-.09.04-.09.09l-.04,7.37h-11.95v-.02s0-.02,0-.03c.53-1.11,1.2-2.12,2.03-3.03.89-.97,1.9-1.79,3.03-2.47,1.08-.64,2.21-1.12,3.43-1.45.34-.09.67-.18,1.01-.27.18-.02.5-.07.98-.14.77-.12,1.62-.17,2.57-.15Z"/>
      <path class="st101" d="M148.46,76.23l.75.03c.05,1.88.44,3.68,1.17,5.41.31.74.68,1.45,1.12,2.12h-4.13s.04-7.36.04-7.36c0-.05.04-.09.09-.09l.87-.02s.04,0,.05-.02l.05-.06Z"/>
      <path class="st116" d="M132.8,76.49h3.03s4.59.02,4.59.02l-.02,1.58s0,.03.02.05c.03.03.05.07.05.11-1.13.68-2.14,1.5-3.03,2.47l-4.64.03v-4.25Z"/>
      <path class="st112" d="M141.49,76.49c.07,0,.14.02.2.02,1.07,0,2.14,0,3.21.02-.34.09-.67.18-1.01.27-1.21.33-2.34.81-3.43,1.45,0-.05-.02-.08-.05-.11-.01-.01-.02-.03-.02-.05l.02-1.58,1.07-.02Z"/>
      <path class="st146" d="M114.46,78.12c-.12.11-.55-.05-.68-.08-.06-.01-.12.02-.13.08,0,0,0,.02,0,.02-.02,1.83-.02,3.63,0,5.41,0,.05-.01.13-.05.23h-1.21c-.67-2.08-.73-4.19-.18-6.31,0-.02.02-.02.04-.02,0,0,0,0,0,0l2.21.66Z"/>
      <path class="st104" d="M105.79,77.84c.31.47.65.92,1.03,1.34-.01,0-.02,0-.03,0-.02.01-.02.02-.02.04.09.23.05.41.05.64,0,1.31-.02,2.62-.02,3.92h-19.53c.22-.74.46-1.48.74-2.2.05.03.15.07.28.11,1.34.4,2.65.67,3.95.79,4.97.54,10.04-1.05,13.56-4.65Z"/>
      <path class="st121" d="M106.82,79.18c.49.6,1.02,1.17,1.59,1.7l1.18,1.07s.02,0,.03,0h.01c.09.61.23,1.23.4,1.84h-3.23c0-1.31.01-2.62.02-3.92,0-.23.05-.41-.05-.64,0-.02,0-.03.02-.04.01,0,.02,0,.03,0Z"/>
      <path class="st139" d="M145.39,81.65c-.45-.25-.78-.74-.8-1.24-.02-.69.9-.79,1.12-.2.17.49.12.95-.16,1.39-.04.06-.09.08-.16.04Z"/>
      <path class="st138" d="M123.74,80.55c.61.82,1.22,1.65,1.83,2.47.23.31.39.56.49.77h-.43s-.01-.09-.01-.09c0-.02-.01-.04-.02-.05l-1.58-1.94c-.25-.31-.46-.63-.65-.98-.01-.02-.01-.04,0-.06.09-.12.22-.16.37-.11Z"/>
      <path class="st104" d="M137.44,80.72c-.82.91-1.5,1.92-2.03,3.03,0,0,0,.02,0,.03v.02s-2.63,0-2.63,0c0-.05.02-.1.02-.14,0-.97,0-1.93,0-2.91l4.64-.03Z"/>
      <path class="st139" d="M141.52,82.06c-.62-.71.2-1.48.83-.84.36.36.49.8.4,1.31,0,.02-.02.04-.05.04-.44,0-.89-.19-1.18-.51Z"/>
      <path class="st138" d="M151.62,83.79h-.13c-.44-.68-.81-1.39-1.12-2.13.02-.03.05-.04.08-.02.02,0,.03.02.04.04.26.69.68,1.34,1.03,1.98.03.05.06.09.1.13Z"/>
      <path class="st143" d="M124.01,81.69l1.58,1.94s.02.03.02.05v.1s-1.72,0-1.72,0v-1.95s0-.04.02-.05c.04-.02.08-.06.1-.1Z"/>
      <path class="st145" d="M78.68,81.89l-.05.08s-.02.04-.02.06l-.02,1.76h-2.27l-.06-.02s-.02-.01,0-.02c.87-.53,1.67-1.15,2.4-1.86Z"/>
      <path class="st138" d="M121.47,83.79h-.51.04s.03-.03.04-.05l.44-1.22c.27-.09.5.06.35.36-.15.29-.27.59-.36.91Z"/>
      <path class="st138" d="M115.16,83.79h-1.35.39s.03-.02.05-.04c.06-.07.11-.11.17-.14.65-.27,1.31-.53,1.97-.77.06-.02.13-.04.19-.05.02,0,.04,0,.05.03.06.09.08.19.08.3,0,.03-.02.05-.04.06l-1.44.54s-.03.02-.04.03l-.02.03Z"/>
      <path class="st138" d="M132.16,83.8h-1.36s-.05-.31-.05-.31c0-.05.02-.1.08-.11.01,0,.03,0,.04,0l1.29.41Z"/>
      <path class="st139" d="M84.62,83.79h-1.25c.33-.41.71-.48,1.16-.22.07.04.1.12.09.22Z"/>
      <rect class="st102" x="107.51" y="37.74" width=".22" height="24.01"/>
      <rect class="st102" x="107.61" y="37.08" width=".25" height="25.66" transform="translate(-3.74 90.8) rotate(-45)"/>
      <rect class="st102" x="107.83" y="36.67" width=".22" height="25.84" transform="translate(66.68 -61.8) rotate(45)"/>
      <rect class="st102" x="106.81" y="36.95" width=".22" height="25.84" transform="translate(156.79 -57.06) rotate(90)"/>
      <ellipse class="st27" cx="108.08" cy="49.75" rx="14.07" ry="12"/>
      <path class="st108" d="M107.61,32.85h26.12l-.08.02s-.03.02-.02.04c1.48,3.37,1.75,6.96.81,10.52-.05.18-.17.48-.35.9,0,.02,0,.04,0,.06l.03.04c-.26.55-.51,1.18-.76,1.66-.59,1.13-1.33,2.17-2.21,3.1-2.61,2.58-5.77,3.99-9.47,4.21-.01,0-.02.01-.03.03-5.8.24-11.03-2.84-13.68-7.99-.93-1.9-1.44-3.9-1.53-6.02-.01-.32,0-.87.02-1.67.14-1.69.53-3.3,1.19-4.86,0,0,0-.01,0-.02,0-.01,0-.02-.01-.02Z"/>
      <g>
        <path class="st120" d="M120.63,40.13c.32.49.66.96,1.03,1.41.31.38.58.69.79.94,1.52,1.73,3.48,2.87,5.74,3.36.26.06.52.11.77.17-.39.07-.79.14-1.18.2-2.26.33-4.52-.24-5.88-2.2-.77-1.11-1.14-2.51-1.48-3.8,0-.02,0-.04.02-.04.07-.03.13-.04.18-.03Z"/>
        <path class="st112" d="M120.63,40.13c2.65-.42,5.39-.01,7.01,2.31.72,1.03,1.1,2.3,1.56,3.46.01.03,0,.05-.03.06,0,0,0,0,0,0l-.2.04c-.26-.06-.52-.11-.77-.17-2.26-.49-4.21-1.63-5.74-3.36-.21-.24-.48-.55-.79-.94-.37-.45-.72-.92-1.03-1.41Z"/>
      </g>
      <g>
        <path class="st120" d="M120.14,40.25c-.34.06-.67.15-1,.25-.28.09-.51.16-.68.22-1.28.44-2.33,1.25-3.1,2.37-.09.13-.18.26-.26.38.05-.23.1-.46.16-.68.32-1.3,1.13-2.41,2.5-2.71.78-.17,1.62-.06,2.4.04.01,0,.02,0,.02.02,0,.04,0,.08-.02.1Z"/>
        <path class="st112" d="M120.14,40.25c-.36,1.53-1.19,2.93-2.81,3.3-.72.16-1.5.09-2.23.08-.02,0-.03-.01-.03-.03,0,0,0,0,0,0l.02-.12c.09-.13.18-.26.26-.38.77-1.12,1.82-1.93,3.1-2.37.18-.06.41-.14.68-.22.33-.1.66-.18,1-.25Z"/>
      </g>
    </g>
  </g>
  <path class="st130" d="M29.58,7.99l6.68-3.81s-2.99-.12-4.91.9-1.77,2.91-1.77,2.91Z"/>
  <path class="st137" d="M30.28,7.89l6.71-3.76s-1.4,2.61-3.27,3.72-3.45.03-3.45.03Z"/>
  <path class="st130" d="M28.48,7.91l-9.45-5.64s4.3-.07,7.01,1.44,2.43,4.2,2.43,4.2Z"/>
  <path class="st137" d="M27.96,8l-9.49-5.57s1.92,3.75,4.55,5.4,4.94.17,4.94.17Z"/>
</svg>