<?xml version="1.0" encoding="UTF-8"?>
<svg id="Capa_1" data-name="Capa 1" xmlns="http://www.w3.org/2000/svg" xmlns:xlink="http://www.w3.org/1999/xlink" viewBox="0 0 163.056 57.162">
  <defs>
    <clipPath id="clippath">
      <path d="M27.333,9.419c-13.263,1.458-14.509,13.797-3.91,17.71,2.054.767,4.068.931,5.929.652l6.892-9.773-2.32-6.173-6.591-2.416h0ZM25.031,23.127c-5.934-2.542.41-13.412,6.832-10.393,4.629,2.335-.843,12.955-6.832,10.393h0Z" clip-rule="evenodd" fill="#ff7220"/>
    </clipPath>
    <linearGradient id="Degradado_sin_nombre_20" data-name="Degradado sin nombre 20" x1="-194.164" y1="-56.556" x2="-198.034" y2="-38.211" gradientTransform="translate(218.475 80.435) rotate(4.823)" gradientUnits="userSpaceOnUse">
      <stop offset="0" stop-color="#ffc823"/>
      <stop offset="1" stop-color="#e94e1b"/>
    </linearGradient>
    <clipPath id="clippath-2">
      <path d="M27.361,9.411c-.821.09-1.596.223-2.326.392-6.352,2.049-7.773,10.873.53,13.502h.001c-.169-.053-.338-.114-.508-.186-5.934-2.542.41-13.412,6.832-10.393,1.236.623,1.751,1.837,1.73,3.232l1.723-1.571-2.376-3.287c-1.441-1.07-3.229-1.729-5.606-1.689h0Z" clip-rule="evenodd" fill="url(#Degradado_sin_nombre_20)"/>
    </clipPath>
    <linearGradient id="Degradado_sin_nombre_20-2" data-name="Degradado sin nombre 20" x1="-195.423" y1="-56.821" x2="-199.294" y2="-38.477" gradientTransform="translate(33.628 218.836) rotate(74.135)" xlink:href="#Degradado_sin_nombre_20"/>
    <clipPath id="clippath-4">
      <path d="M23.478,27.132c11.3,4.217,21.394-9.714,11.406-16.176-2.323-1.335-5.164-1.702-7.496-1.533,2.804.07,5.755,3.331,6.082,5.183v.002c.505,1.666-.105,3.932-1.37,5.763v.003s-.055.077-.055.077c-.015.021-.029.041-.044.062-2.221,3.12-5.909,6.943-8.522,6.619h0Z" clip-rule="evenodd" fill="#ff7220"/>
    </clipPath>
    <linearGradient id="Degradado_sin_nombre_20-3" data-name="Degradado sin nombre 20" x1="-211.157" y1="-22.492" x2="-189" y2="-30.972" xlink:href="#Degradado_sin_nombre_20"/>
    <linearGradient id="Degradado_sin_nombre_20-4" data-name="Degradado sin nombre 20" x1="-211.157" y1="-22.492" x2="-189" y2="-30.972" xlink:href="#Degradado_sin_nombre_20"/>
    <clipPath id="clippath-7">
      <path d="M20.85,26.11c-1.308.245-2.537.551-3.687.911-9.952,4.059-11.166,18.401,2.486,21.619l.002-.002c-.277-.063-.556-.14-.838-.236-9.837-3.364-.965-21.587,9.712-17.517,2.06.851,3.034,2.738,3.169,4.982l2.576-2.732-4.214-4.991c-2.444-1.544-5.394-2.386-9.207-2.033h0Z" clip-rule="evenodd" fill="url(#Degradado_sin_nombre_20-4)"/>
    </clipPath>
    <linearGradient id="Degradado_sin_nombre_20-5" data-name="Degradado sin nombre 20" x1="-211.426" y1="-23.194" x2="-189.269" y2="-31.674" gradientTransform="translate(33.611 240.103) rotate(78.446)" xlink:href="#Degradado_sin_nombre_20"/>
    <clipPath id="clippath-9">
      <path d="M16.715,55.023c18.657,5.403,33.181-18.189,16.357-27.358-3.892-1.863-8.499-2.108-12.223-1.555,4.511-.228,9.645,4.653,10.395,7.587v.003c1.014,2.614.308,6.327-1.502,9.421v.005s-.079.131-.079.131c-.021.035-.042.07-.063.105-3.189,5.279-8.649,11.865-12.885,11.661h0Z" clip-rule="evenodd" fill="#ff7220"/>
    </clipPath>
    <clipPath id="clippath-11">
      <rect x="68.842" y="39.901" width="87.194" height="2.925" fill="none"/>
    </clipPath>
  </defs>
  <path d="M48.147,18.855h3.276c.923,0,1.611.85,1.419,1.753l-4.55,21.374c-.143.67-.734,1.149-1.419,1.149h-3.276c-.923,0-1.611-.85-1.419-1.753l4.55-21.374c.143-.67.734-1.149,1.419-1.149ZM59.648,43.131c-.456,0-.885-.214-1.159-.578l-6.535-8.681c-.52-.694-.763-1.352-.763-2.081,0-1.387.416-3.017,1.665-4.162l9.401-8.405c.266-.238.61-.369.967-.369h3.131c1.333,0,1.96,1.646.966,2.533l-8.743,7.801c-.763.659-1.352,1.179-1.352,2.15,0,.59.312,1.075.798,1.699l6.291,7.725c.772.948.097,2.367-1.125,2.367h-3.541Z" fill="#ff7220"/>
  <path d="M58.807,34.003l-3.965-5.071s-1.262-1.521.556-3.575l-2.798,2.526s-1.116,1.099-1.263,2.504-.327,1.791.274,2.964l6.44,8.622s.321,1.159,1.97,1.159h3.167s.775.113,1.277-.762-.152-1.605-.152-1.605l-5.507-6.761Z" fill="#ea5e18"/>
  <g>
    <path d="M155.962,29.915c.049.043.085.089.106.138.021.05.014.114-.021.191l-.553,1.458c-.036.092-.076.156-.122.192-.046.036-.098.053-.154.053-.071,0-.145-.028-.223-.085-.156-.121-.33-.218-.521-.293-.192-.074-.39-.133-.596-.176-.206-.043-.411-.071-.617-.085-.206-.014-.404-.021-.596-.021-.291,0-.55.039-.777.117-.227.078-.362.195-.404.351-.029.114-.009.2.058.261.067.06.17.108.309.144.138.036.307.068.505.096.198.028.415.068.649.117.383.071.72.169,1.011.293.291.124.525.28.702.468.177.188.293.411.346.67.053.259.034.566-.058.92-.128.468-.326.871-.596,1.208-.27.337-.589.612-.957.824-.369.213-.775.371-1.218.473-.443.103-.903.154-1.378.154-.227,0-.477-.016-.75-.048-.273-.032-.546-.08-.819-.144-.273-.064-.534-.147-.782-.25-.248-.103-.457-.225-.628-.367-.05-.043-.083-.089-.101-.138-.018-.05-.012-.113.016-.192l.596-1.617c.071-.184.17-.277.298-.277.071,0,.142.028.213.085.149.128.316.238.5.33.184.092.378.17.58.234.202.064.408.11.617.138.209.028.41.043.601.043.163,0,.323-.009.479-.027.156-.018.298-.046.426-.085.128-.039.236-.087.324-.144.089-.057.147-.128.176-.213.043-.121.034-.211-.027-.271-.06-.06-.158-.106-.293-.138-.135-.032-.296-.059-.484-.08-.188-.021-.392-.053-.612-.096-.794-.121-1.38-.387-1.755-.798-.376-.411-.475-.95-.298-1.617.121-.44.31-.821.569-1.144.259-.323.569-.589.931-.798.362-.209.761-.363,1.197-.463.436-.099.885-.149,1.346-.149.22,0,.456.012.707.037.252.025.503.067.755.128.252.06.493.138.723.234.23.096.431.215.601.356Z" fill="#52217d"/>
    <g>
      <path d="M73.544,24.9c-.196,0-.318.094-.365.283l-.613,2.274c-.031.157-.13.236-.295.236h-.707c-.149,0-.208-.078-.177-.236l2.25-8.365c.031-.157.13-.236.295-.236h4.218c.62,0,1.119.116,1.496.348.377.232.648.528.813.89.165.361.228.762.189,1.202-.039.44-.167.874-.383,1.302-.216.428-.513.823-.89,1.184-.377.361-.821.64-1.331.836-.189.079-.259.196-.212.354l.848,2.415c.024.063.004.13-.059.2-.063.071-.137.106-.224.106h-.825c-.086,0-.149-.016-.189-.047-.039-.031-.071-.078-.094-.141l-.825-2.356c-.055-.165-.177-.247-.365-.247h-2.557ZM76.737,23.781c.463-.008.874-.106,1.231-.295.357-.189.65-.422.878-.701.228-.279.385-.581.471-.907.086-.326.09-.628.012-.907-.079-.279-.246-.513-.501-.701-.255-.189-.611-.287-1.066-.295h-2.898c-.196,0-.318.094-.365.283l-.872,3.24c-.047.189.024.283.212.283h2.898Z" fill="#52217d"/>
      <path d="M82.545,19.092c.031-.157.13-.236.295-.236h.707c.149,0,.208.079.177.236l-1.331,4.96c-.134.503-.173.917-.118,1.243.055.326.177.585.365.778.189.193.426.326.713.401.287.075.591.112.913.112.888,0,1.622-.204,2.203-.613.581-.408.99-1.052,1.225-1.932l1.331-4.948c.031-.157.13-.236.295-.236h.707c.149,0,.208.079.177.236l-1.331,4.972c-.165.597-.399,1.127-.701,1.591-.302.464-.666.85-1.09,1.16-.424.31-.901.546-1.431.707-.53.161-1.102.242-1.714.242-.471,0-.913-.061-1.325-.183s-.754-.326-1.025-.613c-.271-.287-.45-.666-.536-1.137-.086-.471-.035-1.056.153-1.756l1.343-4.984Z" fill="#52217d"/>
      <path d="M91.416,20.035c-.157,0-.212-.078-.165-.236l.188-.707c.031-.157.13-.236.295-.236h7.187c.149,0,.208.079.177.236l-.189.707c-.047.157-.149.236-.306.236h-2.722c-.189,0-.306.094-.354.283l-1.92,7.14c-.031.157-.13.236-.295.236h-.707c-.149,0-.208-.078-.177-.236l1.92-7.14c.047-.189-.024-.283-.212-.283h-2.722Z" fill="#52217d"/>
      <path d="M100.606,25.678l-1.237,1.779c-.102.157-.236.236-.401.236h-.73c-.087,0-.14-.025-.159-.077-.02-.051-.002-.12.053-.206l5.785-8.318c.102-.157.232-.236.389-.236h1.178c.149,0,.24.079.271.236l1.308,8.318c.016.087,0,.155-.047.206-.047.051-.114.077-.2.077h-.73c-.157,0-.251-.078-.283-.236l-.271-1.779c-.024-.173-.134-.259-.33-.259h-4.123c-.196,0-.354.086-.471.259ZM104.435,20.152l-2.698,3.9c-.118.173-.082.259.106.259h3.181c.189,0,.271-.086.247-.259l-.624-3.9c-.008-.181-.079-.181-.212,0Z" fill="#52217d"/>
      <path d="M111.916,27.693c-.149,0-.208-.078-.177-.236l2.25-8.365c.031-.157.13-.236.295-.236h3.864c.66,0,1.208.118,1.644.353.436.236.772.55,1.007.942.236.393.375.841.418,1.343.043.503.006,1.021-.112,1.555-.126.573-.344,1.137-.654,1.691-.31.554-.695,1.049-1.155,1.484-.46.436-.986.789-1.579,1.06-.593.271-1.239.406-1.938.406h-3.864ZM115.981,26.573c.518-.008.994-.114,1.426-.318.432-.204.815-.469,1.149-.795.334-.326.613-.693.836-1.102.224-.408.383-.825.477-1.249.086-.393.114-.776.082-1.149-.031-.373-.132-.707-.3-1.001-.169-.295-.409-.53-.719-.707-.31-.177-.701-.269-1.172-.277h-2.545c-.196,0-.318.094-.365.283l-1.614,6.032c-.047.189.02.283.2.283h2.545Z" fill="#52217d"/>
      <path d="M122.885,26.514h5.078c.157,0,.212.079.165.236l-.189.707c-.031.157-.13.236-.295.236h-6.303c-.149,0-.208-.078-.177-.236l2.25-8.365c.031-.157.13-.236.295-.236h6.303c.149,0,.208.079.177.236l-.189.707c-.047.157-.149.236-.306.236h-5.078c-.189,0-.306.094-.353.283l-.589,2.18c-.047.189.024.283.212.283h4.135c.157,0,.212.079.165.236l-.165.636c-.047.157-.145.236-.295.236h-4.135c-.196,0-.318.094-.365.283l-.554,2.062c-.047.189.024.283.212.283Z" fill="#52217d"/>
      <path d="M139.39,26.514c.157,0,.212.079.165.236l-.189.707c-.031.157-.13.236-.295.236h-6.303c-.149,0-.208-.078-.177-.236l2.25-8.365c.031-.157.13-.236.295-.236h.707c.149,0,.208.079.177.236l-1.92,7.14c-.047.189.024.283.212.283h5.078Z" fill="#52217d"/>
      <path d="M143.125,25.678l-1.237,1.779c-.102.157-.236.236-.401.236h-.73c-.087,0-.14-.025-.159-.077-.02-.051-.002-.12.053-.206l5.785-8.318c.102-.157.232-.236.389-.236h1.178c.149,0,.24.079.271.236l1.308,8.318c.016.087,0,.155-.047.206-.047.051-.114.077-.2.077h-.73c-.157,0-.251-.078-.283-.236l-.271-1.779c-.024-.173-.134-.259-.33-.259h-4.123c-.196,0-.354.086-.471.259ZM146.954,20.152l-2.698,3.9c-.118.173-.082.259.106.259h3.181c.189,0,.271-.086.247-.259l-.624-3.9c-.008-.181-.079-.181-.212,0Z" fill="#52217d"/>
      <path d="M159.69,19.422c.055.039.096.088.124.147.027.059.022.132-.018.218l-.283.648c-.047.118-.114.177-.2.177-.039,0-.086-.02-.141-.059-.33-.275-.721-.459-1.172-.554-.452-.094-.886-.141-1.302-.141-.448,0-.823.034-1.125.1-.302.067-.552.157-.748.271-.196.114-.344.242-.442.383-.098.141-.163.291-.194.448-.047.196-.024.373.071.53.094.157.234.302.418.436.184.134.402.259.654.377.251.118.514.24.789.365.322.149.64.308.954.477.314.169.585.363.813.583.228.22.389.475.483.766.094.291.086.632-.024,1.025-.079.283-.218.56-.418.831-.2.271-.465.511-.795.719-.33.208-.729.377-1.196.507-.467.13-1.007.194-1.62.194-.236,0-.497-.012-.784-.035-.287-.024-.575-.061-.866-.112-.291-.051-.571-.122-.842-.212-.271-.09-.501-.202-.689-.336-.055-.039-.096-.088-.124-.147-.028-.059-.022-.131.018-.218l.283-.648c.047-.118.114-.177.2-.177.039,0,.086.02.141.059.157.134.359.246.607.336.247.09.509.165.784.224.275.059.548.102.819.13.271.028.509.041.713.041.495,0,.897-.033,1.208-.1.31-.067.56-.157.748-.271.189-.114.33-.243.424-.389.094-.145.165-.293.212-.442.071-.212.063-.399-.024-.56-.086-.161-.226-.308-.418-.442-.193-.133-.422-.257-.689-.371-.267-.114-.542-.234-.825-.359-.322-.141-.64-.293-.954-.454-.314-.161-.581-.351-.801-.571-.22-.22-.377-.475-.471-.766-.094-.29-.086-.636.024-1.037.078-.283.216-.56.412-.831.196-.271.457-.51.783-.719.326-.208.715-.377,1.166-.507.452-.13.972-.194,1.561-.194.228,0,.463.01.707.029.243.02.485.053.725.1.24.047.471.114.695.2.224.087.434.196.63.33Z" fill="#52217d"/>
    </g>
    <g>
      <path d="M71.183,36.768c-.063.304-.251.456-.562.456h-1.42c-.297,0-.41-.152-.339-.456l1.897-7.047c.078-.297.268-.445.572-.445h2.225c.268,0,.459.057.572.17.113.113.187.346.223.699l.445,3.613c.014.078.032.117.053.117.021,0,.06-.039.117-.117l2.374-3.613c.12-.177.228-.321.323-.434.095-.113.191-.201.286-.265s.194-.108.297-.132c.102-.025.221-.037.355-.037h2.236c.297,0,.406.148.328.445l-1.897,7.047c-.063.304-.251.456-.562.456h-1.42c-.297,0-.41-.152-.339-.456l1.091-4.059c.057-.198.028-.205-.085-.021l-2.723,4.111c-.191.283-.434.424-.731.424h-1.091c-.304,0-.47-.141-.498-.424l-.53-4.111c-.021-.155-.057-.148-.106.021l-1.091,4.059Z" fill="#52217d"/>
      <path d="M83.019,35.868l-.657,1.007c-.099.148-.185.244-.26.286s-.185.064-.334.064h-1.685c-.29,0-.339-.155-.148-.466l4.62-7.1c.099-.155.191-.258.276-.307.085-.049.201-.074.35-.074h2.564c.155,0,.261.025.318.074.056.05.092.152.106.307l.816,7.1c.035.311-.095.466-.392.466h-1.685c-.148,0-.251-.021-.307-.064-.057-.042-.092-.138-.106-.286l-.106-.985c-.021-.162-.117-.244-.286-.244l-2.681-.021c-.17,0-.304.081-.403.244ZM85.764,31.576l-1.303,1.992c-.099.163-.064.244.106.244h1.367c.162,0,.24-.078.233-.233l-.233-2.003c-.014-.17-.071-.17-.17,0Z" fill="#52217d"/>
      <path d="M96.064,33.441l.996-3.719c.085-.297.276-.445.572-.445h1.42c.304,0,.413.148.329.445l-1.886,7.047c-.071.304-.262.456-.572.456h-1.229c-.12,0-.221-.027-.302-.079-.081-.053-.168-.168-.26-.344l-1.907-3.772c-.071-.134-.127-.113-.17.064l-.985,3.677c-.085.304-.276.456-.572.456h-1.42c-.297,0-.41-.152-.339-.456l1.897-7.047c.078-.297.265-.445.562-.445h1.272c.12,0,.217.025.291.074.074.05.161.173.26.371l1.876,3.772c.07.134.127.117.17-.053Z" fill="#52217d"/>
      <path d="M98.628,37.224c-.297,0-.41-.152-.339-.456l1.897-7.047c.078-.297.268-.445.572-.445h3.921c.586,0,1.086.097,1.499.291.413.194.738.463.975.805.237.343.38.751.429,1.224.049.473,0,.993-.148,1.558-.148.579-.378,1.116-.689,1.611-.311.495-.682.924-1.113,1.287-.431.364-.915.65-1.452.858-.537.208-1.106.313-1.706.313h-3.847ZM102.729,35.168c.586-.007,1.097-.18,1.531-.519.434-.339.729-.819.885-1.441.078-.311.102-.583.074-.816-.028-.233-.102-.429-.223-.588-.12-.159-.284-.281-.493-.366-.209-.085-.454-.127-.737-.127l-1.441.011c-.17,0-.276.085-.318.254l-.89,3.338c-.042.17.017.254.18.254h1.431Z" fill="#52217d"/>
      <path d="M109.796,35.868l-.657,1.007c-.099.148-.185.244-.26.286s-.185.064-.334.064h-1.685c-.29,0-.339-.155-.148-.466l4.62-7.1c.099-.155.191-.258.276-.307.085-.049.201-.074.35-.074h2.564c.155,0,.261.025.318.074.056.05.092.152.106.307l.816,7.1c.035.311-.095.466-.392.466h-1.685c-.148,0-.251-.021-.307-.064-.057-.042-.092-.138-.106-.286l-.106-.985c-.021-.162-.117-.244-.286-.244l-2.681-.021c-.17,0-.304.081-.403.244ZM112.541,31.576l-1.303,1.992c-.099.163-.064.244.106.244h1.367c.162,0,.24-.078.233-.233l-.233-2.003c-.014-.17-.071-.17-.17,0Z" fill="#52217d"/>
      <path d="M119.651,34.734c-.177,0-.286.085-.329.254l-.487,1.78c-.063.304-.251.456-.562.456h-1.42c-.297,0-.41-.152-.339-.456l1.897-7.047c.078-.297.268-.445.572-.445h4.398c.523,0,.947.095,1.272.286.325.191.563.44.715.747.152.307.219.652.201,1.033-.018.381-.106.759-.265,1.134-.159.375-.385.726-.678,1.054s-.645.599-1.054.811c-.17.085-.237.201-.201.35l.477,2.003c.035.177.002.309-.101.397-.102.088-.228.132-.376.132h-1.462c-.311,0-.487-.123-.53-.371l-.381-1.886c-.028-.155-.127-.233-.297-.233h-1.049ZM122.078,32.985c.212,0,.397-.044.556-.132.159-.088.291-.196.397-.323.106-.127.178-.265.217-.413.039-.148.041-.286.005-.413-.036-.127-.11-.235-.223-.323-.113-.088-.272-.132-.477-.132h-1.971c-.177,0-.286.085-.328.254l-.329,1.229c-.05.17.011.254.18.254h1.971Z" fill="#52217d"/>
      <path d="M136.022,33.441l.996-3.719c.085-.297.276-.445.572-.445h1.42c.304,0,.413.148.329.445l-1.886,7.047c-.071.304-.262.456-.572.456h-1.229c-.12,0-.221-.027-.302-.079-.081-.053-.168-.168-.26-.344l-1.907-3.772c-.071-.134-.127-.113-.17.064l-.985,3.677c-.085.304-.276.456-.572.456h-1.42c-.297,0-.41-.152-.339-.456l1.897-7.047c.078-.297.265-.445.562-.445h1.272c.12,0,.217.025.291.074.074.05.161.173.26.371l1.876,3.772c.07.134.127.117.17-.053Z" fill="#52217d"/>
      <path d="M141.204,35.868l-.657,1.007c-.099.148-.185.244-.26.286s-.185.064-.334.064h-1.685c-.29,0-.339-.155-.148-.466l4.62-7.1c.099-.155.191-.258.276-.307.085-.049.201-.074.35-.074h2.564c.155,0,.261.025.318.074.056.05.092.152.106.307l.816,7.1c.035.311-.095.466-.392.466h-1.685c-.148,0-.251-.021-.307-.064-.057-.042-.092-.138-.106-.286l-.106-.985c-.021-.162-.117-.244-.286-.244l-2.681-.021c-.17,0-.304.081-.403.244ZM143.948,31.576l-1.303,1.992c-.099.163-.064.244.106.244h1.367c.162,0,.24-.078.233-.233l-.233-2.003c-.014-.17-.071-.17-.17,0Z" fill="#52217d"/>
    </g>
    <path d="M127.702,29.277h2.001c.269,0,.465.256.394.516l-1.962,7.193c-.048.178-.21.301-.394.301h-2.001c-.269,0-.465-.256-.394-.516l1.962-7.193c.048-.178.21-.301.394-.301Z" fill="#52217d"/>
  </g>
  <g>
    <path d="M27.333,9.419c-13.263,1.458-14.509,13.797-3.91,17.71,2.054.767,4.068.931,5.929.652l6.892-9.773-2.32-6.173-6.591-2.416h0ZM25.031,23.127c-5.934-2.542.41-13.412,6.832-10.393,4.629,2.335-.843,12.955-6.832,10.393h0Z" fill="#ff7220" fill-rule="evenodd"/>
    <g clip-path="url(#clippath)">
      <rect x="14.864" y="6.098" width="18.101" height="23.263" transform="translate(-1.12 33.839) rotate(-69.312)" fill="#ff7220"/>
    </g>
  </g>
  <g>
    <path d="M27.361,9.411c-.821.09-1.596.223-2.326.392-6.352,2.049-7.773,10.873.53,13.502h.001c-.169-.053-.338-.114-.508-.186-5.934-2.542.41-13.412,6.832-10.393,1.236.623,1.751,1.837,1.73,3.232l1.723-1.571-2.376-3.287c-1.441-1.07-3.229-1.729-5.606-1.689h0Z" fill="url(#Degradado_sin_nombre_20)" fill-rule="evenodd"/>
    <g clip-path="url(#clippath-2)">
      <rect x="18.449" y="7.699" width="14.998" height="16.481" transform="translate(1.87 34.583) rotate(-69.312)" fill="url(#Degradado_sin_nombre_20-2)"/>
    </g>
  </g>
  <g>
    <path d="M23.478,27.132c11.3,4.217,21.394-9.714,11.406-16.176-2.323-1.335-5.164-1.702-7.496-1.533,2.804.07,5.755,3.331,6.082,5.183v.002c.505,1.666-.105,3.932-1.37,5.763v.003s-.055.077-.055.077c-.015.021-.029.041-.044.062-2.221,3.12-5.909,6.943-8.522,6.619h0Z" fill="#ff7220" fill-rule="evenodd"/>
    <g clip-path="url(#clippath-4)">
      <rect x="23.684" y="10.848" width="19.591" height="19.182" transform="translate(2.531 44.539) rotate(-69.312)" fill="#ff7220"/>
    </g>
  </g>
  <path d="M21.321,26.161s7.173-1.499,10.387-5.245,1.423,2.336,1.423,2.336l-1.239,2.083-.411,1.389-.332.66s-6.085.45-9.828-1.223Z" fill="#ff7220" fill-rule="evenodd"/>
  <path d="M20.85,26.11C-.273,30.058-.78,50.023,16.715,55.023c3.392.982,6.645,1.003,9.6.329l9.884-16.528-4.473-9.632-10.877-3.082h0ZM18.813,48.402c-9.837-3.364-.965-21.587,9.712-17.517,7.716,3.189.216,20.907-9.712,17.517h0Z" fill="#ea6a2a" fill-rule="evenodd"/>
  <g>
    <path d="M20.85,26.11c-1.308.245-2.537.551-3.687.911-9.952,4.059-11.166,18.401,2.486,21.619l.002-.002c-.277-.063-.556-.14-.838-.236-9.837-3.364-.965-21.587,9.712-17.517,2.06.851,3.034,2.738,3.169,4.982l2.576-2.732-4.214-4.991c-2.444-1.544-5.394-2.386-9.207-2.033h0Z" fill="url(#Degradado_sin_nombre_20-3)" fill-rule="evenodd"/>
    <g clip-path="url(#clippath-7)">
      <rect x="7.295" y="23.495" width="24.154" height="26.541" transform="translate(-21.364 44.985) rotate(-73.624)" fill="url(#Degradado_sin_nombre_20-5)"/>
    </g>
  </g>
  <g>
    <path d="M16.715,55.023c18.657,5.403,33.181-18.189,16.357-27.358-3.892-1.863-8.499-2.108-12.223-1.555,4.511-.228,9.645,4.653,10.395,7.587v.003c1.014,2.614.308,6.327-1.502,9.421v.005s-.079.131-.079.131c-.021.035-.042.07-.063.105-3.189,5.279-8.649,11.865-12.885,11.661h0Z" fill="#ff7220" fill-rule="evenodd"/>
    <g clip-path="url(#clippath-9)">
      <rect x="16.192" y="27.617" width="31.55" height="30.891" transform="translate(-18.362 61.591) rotate(-73.624)" fill="#ff7220"/>
    </g>
  </g>
  <g clip-path="url(#clippath-11)">
    <g>
      <path d="M75.704,32.846c-.05.029-.094.066-.132.11-.031.036-.025.043.017.022l.091-.045c.024-.012.033-.005.026.021-.044.181-.105.356-.183.525-.238.51-.479,1.018-.724,1.524-.047.097-.103.199-.169.306-.23.373-.385.797-.56,1.198-.129.296-.336.605-.477.926-.145.329-.336.623-.476.955-.034.08-.105.13-.139.203-.175.37-.389.71-.526,1.106-.069.202-.158.397-.266.585-.012.02-.01.039.006.056l.079.084" vector-effect="non-scaling-stroke" fill="none" stroke="#d74d36" stroke-width="2"/>
      <path d="M72.271,40.421c-1.122.421-2.237.86-3.345,1.316-.029.012-.057.027-.084.045" vector-effect="non-scaling-stroke" fill="none" stroke="#b1402e" stroke-width="2"/>
      <path d="M78.52,32.846l-.14.017c-.023.002-.024.01-.005.021,1.539.94,2.819,2.143,3.84,3.61.144.207.281.443.411.707.008.016.019.028.034.036l.032.018" vector-effect="non-scaling-stroke" fill="none" stroke="#8c5440" stroke-width="2"/>
      <path d="M82.693,37.255v.061" vector-effect="non-scaling-stroke" fill="none" stroke="#792f2f" stroke-width="2"/>
      <path d="M82.693,37.316c-3.529.85-7.004,1.885-10.422,3.105" vector-effect="non-scaling-stroke" fill="none" stroke="#af2f27" stroke-width="2"/>
      <path d="M82.699,32.846l-.006,4.409" vector-effect="non-scaling-stroke" fill="none" stroke="#395348" stroke-width="2"/>
      <path d="M85.566,32.84c-1.304,2.098-2.312,4.423-2.868,6.834" vector-effect="non-scaling-stroke" fill="none" stroke="#273a36" stroke-width="2"/>
      <path d="M82.698,39.674c-.025-.083-.036-.145-.034-.184.037-.692.057-1.385.059-2.078,0-.017-.01-.049-.03-.096" vector-effect="non-scaling-stroke" fill="none" stroke="#532329" stroke-width="2"/>
      <path d="M89.603,32.846l.02.017c.011.009.013.02.005.032-.187.278-.104.476-.186.776-.115.426-.23.794-.345,1.104" vector-effect="non-scaling-stroke" fill="none" stroke="#783d30" stroke-width="2"/>
      <path d="M89.097,34.775l-.005-.227c0-.034-.009-.036-.024-.006-.14.285-.228.607-.348.874-.188.416-.371.948-.499,1.271-.392.984-.749,1.869-1.116,2.97-.11.33-.326.844-.437,1.289-.07.283-.217.584-.26.906-.02.149-.093.261-.149.397-.077.187-.06.405-.132.612-.091.26-.152.58-.188.863-.019.151-.059.296-.12.437-.057.132-.08.272-.068.419,0,.012-.005.019-.017.02l-.017.002c-.012.002-.021.008-.025.02l-.072.187c-.009.021-.023.036-.044.044-.149.059-.391.18-.551.157-.163-.023-.287-.07-.448-.061-.35.021-.654.133-.996.165-.225.021-.37.094-.622.009-.019-.006-.033-.001-.043.015l-.108.18c-.013.021-.019.019-.019-.006v-.023c.001-.031-.003-.033-.012-.004,0,.003-.002.006-.004.008-.01.016-.016.015-.018-.004l-.033-.322s-.002-.006-.006-.002l-.017.018" vector-effect="non-scaling-stroke" fill="none" stroke="#2a4130" stroke-width="2"/>
      <path d="M82.698,44.986v-5.312" vector-effect="non-scaling-stroke" fill="none" stroke="#573128" stroke-width="2"/>
      <path d="M91.654,32.846c-.01.007-.018.015-.024.024-.009.014-.014.029-.014.046l.009,1.17c0,.067.034.108.1.121l1.549.31" vector-effect="non-scaling-stroke" fill="none" stroke="#a4745a" stroke-width="2"/>
      <path d="M93.273,34.517l.217.855" vector-effect="non-scaling-stroke" fill="none" stroke="#752f30" stroke-width="2"/>
      <path d="M93.49,35.372c-.002.008-.003.015-.003.021,0,.01-.005.018-.013.024-2.283,1.748-3.789,3.983-4.518,6.705-.731,2.731-.354,5.259,1.131,7.587,1.078,1.688,2.666,2.98,4.514,3.76.044.018.082.007.113-.033" vector-effect="non-scaling-stroke" fill="none" stroke="#aa2e28" stroke-width="2"/>
      <path d="M94.715,53.436c.825,2.014,2.084,3.702,3.778,5.065" vector-effect="non-scaling-stroke" fill="none" stroke="#df8350" stroke-width="2"/>
      <path d="M98.493,58.501c-.083.029-.14.043-.171.042-4.348-.159-8.225-1.791-10.832-5.368" vector-effect="non-scaling-stroke" fill="none" stroke="#702623" stroke-width="2"/>
      <path d="M87.489,53.175c-1.089-1.541-1.864-3.497-1.918-5.404" vector-effect="non-scaling-stroke" fill="none" stroke="#722c27" stroke-width="2"/>
      <path d="M85.571,47.772c-.024-.918.051-1.848.225-2.791.66-3.581,2.004-6.843,3.301-10.206" vector-effect="non-scaling-stroke" fill="none" stroke="#75352c" stroke-width="2"/>
      <path d="M97.493,32.846c-.059.732-.077,1.467-.056,2.203" vector-effect="non-scaling-stroke" fill="none" stroke="#7eac80" stroke-width="2"/>
      <path d="M97.437,35.048c-.203-.002-.331-.007-.383-.013-1.263-.152-2.523-.325-3.781-.518" vector-effect="non-scaling-stroke" fill="none" stroke="#567360" stroke-width="2"/>
      <path d="M103.962,32.846l.103.018" vector-effect="non-scaling-stroke" fill="none" stroke="#a07e57" stroke-width="2"/>
      <path d="M104.066,32.864c-1.38.833-2.891,1.465-4.531,1.896-.733.193-1.432.289-2.097.288" vector-effect="non-scaling-stroke" fill="none" stroke="#496556" stroke-width="2"/>
      <path d="M104.36,32.846l-.295.018" vector-effect="non-scaling-stroke" fill="none" stroke="#7d4538" stroke-width="2"/>
      <path d="M107.605,32.846s.009.012.013.024c.002.005.001.011-.001.016-.66,1.552-1.058,3.171-1.194,4.856" vector-effect="non-scaling-stroke" fill="none" stroke="#843e38" stroke-width="2"/>
      <path d="M106.423,37.742c-4.29.344-8.264,2.375-10.654,6.021" vector-effect="non-scaling-stroke" fill="none" stroke="#8b8153" stroke-width="2"/>
      <path d="M95.769,43.763c-.014-.004-.029-.005-.046-.001-.015.003-.021-.003-.02-.018.013-.154-.005-.306-.055-.454-.007-.02-.008-.04-.004-.06.019-.093.009-.202-.028-.326-.051-.169-.064-.448-.111-.653-.229-1.013-.469-1.897-.721-2.651-.528-1.584-.949-2.979-1.264-4.183-.003-.013-.013-.028-.029-.046" vector-effect="non-scaling-stroke" fill="none" stroke="#532329" stroke-width="2"/>
      <path d="M133.721,32.846l-.084.02c-.023.005-.03.019-.02.041,1.478,3.367,1.752,6.961.806,10.517-.049.182-.166.481-.353.896-.009.021-.008.041.006.06l.027.039" vector-effect="non-scaling-stroke" fill="none" stroke="#9f6e51" stroke-width="2"/>
      <path d="M134.102,44.419c-.257.552-.51,1.177-.762,1.659-.592,1.134-1.33,2.167-2.212,3.101" vector-effect="non-scaling-stroke" fill="none" stroke="#925853" stroke-width="2"/>
      <path d="M131.128,49.18c-2.614,2.583-5.772,3.986-9.473,4.21-.014,0-.025.011-.033.031" vector-effect="non-scaling-stroke" fill="none" stroke="#843e38" stroke-width="2"/>
      <path d="M121.621,53.42c-5.805.237-11.032-2.843-13.68-7.991" vector-effect="non-scaling-stroke" fill="none" stroke="#ee8f52" stroke-width="2"/>
      <path d="M107.941,45.429c-.931-1.896-1.442-3.901-1.533-6.016-.013-.315-.008-.872.015-1.671" vector-effect="non-scaling-stroke" fill="none" stroke="#f09457" stroke-width="2"/>
      <path d="M140.363,32.846c-.42,2.655-1.333,5.125-2.74,7.41" vector-effect="non-scaling-stroke" fill="none" stroke="#578072" stroke-width="2"/>
      <path d="M137.623,40.255c-.927,1.541-2.075,2.894-3.443,4.06-.015.013-.041.047-.078.103" vector-effect="non-scaling-stroke" fill="none" stroke="#51796c" stroke-width="2"/>
      <path d="M154.892,32.846l.031.02c.014.009.015.02.001.031-.152.124-.301.25-.446.38-2.011,1.799-4.015,3.606-6.014,5.42" vector-effect="non-scaling-stroke" fill="none" stroke="#925652" stroke-width="2"/>
      <path d="M148.464,38.697c-2.093.18-4.088.664-5.987,1.454-1.016.423-2.002.963-2.956,1.62" vector-effect="non-scaling-stroke" fill="none" stroke="#374e59" stroke-width="2"/>
      <path d="M139.521,41.771c-.011-.016-.025-.021-.04-.016-.011.004-.02,0-.027-.01l-.032-.051c-.01-.016-.025-.026-.043-.029-.137-.024-.23-.139-.328-.204-.11-.073-.159-.172-.266-.241-.262-.167-.337-.443-.524-.664-.012-.014-.028-.022-.047-.024-.058-.005-.105-.032-.139-.08-.013-.018-.03-.032-.05-.042-.08-.038-.139-.099-.176-.183-.009-.021-.024-.028-.046-.022l-.181.051" vector-effect="non-scaling-stroke" fill="none" stroke="#476a75" stroke-width="2"/>
      <path d="M156.037,41.421c-.129-.078-.269-.125-.421-.142-.016-.002-.025.005-.028.021-.035.221-.094.434-.176.64-.192.481.152.804.624.661" vector-effect="non-scaling-stroke" fill="none" stroke="#7d2c24" stroke-width="2"/>
      <path d="M156.036,44.657c-3.856-.011-7.713-.009-11.569.005-.185,0-.37.007-.555.02" vector-effect="non-scaling-stroke" fill="none" stroke="#eb905d" stroke-width="2"/>
      <path d="M143.912,44.682h-.398" vector-effect="non-scaling-stroke" fill="none" stroke="#ea854b" stroke-width="2"/>
      <path d="M143.514,44.682l-.512.019" vector-effect="non-scaling-stroke" fill="none" stroke="#a36c51" stroke-width="2"/>
      <path d="M143.002,44.701c-.317-.015-.639-.012-.966.007-.058.004-.094-.012-.145-.031" vector-effect="non-scaling-stroke" fill="none" stroke="#e74d3a" stroke-width="2"/>
      <path d="M141.892,44.677l6.572-5.98" vector-effect="non-scaling-stroke" fill="none" stroke="#803431" stroke-width="2"/>
      <path d="M85.571,47.772l-.153.33c-.009.019-.022.033-.042.042-.107.049-.222.081-.343.096-.373.045-.746.093-1.118.144-.02.003-.039,0-.057-.01-.094-.05-.192-.087-.296-.11-.201-.046-.381.047-.617-.04-.016-.006-.027-.017-.032-.034l-.015-.049c-.005-.016-.016-.023-.032-.02l-.059.011c-.013.002-.019-.003-.019-.015v-.02c0-.029-.008-.032-.025-.008-.005.008-.009.017-.012.025-.002.005-.005.006-.009.002l-.011-.011c-.009-.009-.015-.008-.019.004-.003.009-.007.014-.013.015" vector-effect="non-scaling-stroke" fill="none" stroke="#202f27" stroke-width="2"/>
      <path d="M82.698,48.124v-3.138" vector-effect="non-scaling-stroke" fill="none" stroke="#552923" stroke-width="2"/>
      <path d="M95.769,43.763c-1.658,2.577-2.143,5.377-1.454,8.402.056.247.19.67.4,1.271" vector-effect="non-scaling-stroke" fill="none" stroke="#be7947" stroke-width="2"/>
      <path d="M82.698,48.124v.331" vector-effect="non-scaling-stroke" fill="none" stroke="#51201e" stroke-width="2"/>
      <path d="M82.699,48.454c-.798,1.184-1.814,2.187-3.046,3.011-2.144,1.432-4.496,2.087-7.056,1.966-.145-.007-1.393-.068-1.427-.115-.003-.004-.008-.007-.013-.009l-1.101-.233c-.009-.002-.014-.007-.017-.015-.004-.013-.01-.02-.019-.022-.38-.068-.748-.179-1.102-.333-.017-.008-.032-.019-.045-.033l-.031-.036" vector-effect="non-scaling-stroke" fill="none" stroke="#6f5241" stroke-width="2"/>
      <path d="M107.941,45.429l-.162.181c-.015.016-.023.035-.024.057-.049.81-.031,1.617-.015,2.427.049,2.429-.077,4.884.047,7.307.002.031.014.036.039.017.009-.007.017-.017.023-.029.01-.019.025-.033.045-.041.047-.02.076-.052.086-.096.004-.02.012-.037.023-.053.069-.099.122-.205.16-.32.007-.021.019-.039.036-.053.118-.096.251-.164.399-.205.018-.005.034-.014.047-.028.099-.097.198-.118.296-.064.051.028.096.091.134.188.05.129.133.239.137.389.002.062.008.118.018.17.041.205.002,1-.355.903" vector-effect="non-scaling-stroke" fill="none" stroke="#f7d36d" stroke-width="2"/>
      <path d="M108.874,56.18c.381-.453.279-1.028.066-1.534-.015-.035-.054-.053-.091-.04-.638.228-.937.696-.898,1.406" vector-effect="non-scaling-stroke" fill="none" stroke="#877845" stroke-width="2"/>
      <path d="M107.951,56.011c-.051-.002-.099.013-.145.044-.019.012-.029.029-.03.051-.018.32-.027.64-.027.961.003,1.487.006,2.975.008,4.463,0,.02.009.034.026.043.501.258,1.206.187,1.741.076.002,0,.004-.002.005-.005.002-.004.003-.009.005-.015.002-.008.007-.012.015-.012.278.001.588-.023.93-.073,1.062-.156,2.072-.416,3.03-.778.491-.185,1.097-.474,1.82-.867.033-.018.138-.065.315-.142.204-.088.359-.248.532-.347.221-.126.405-.22.607-.389.239-.201.495-.372.723-.585.155-.145.315-.283.482-.415.014-.011.028-.011.043-.001.05.034.059.088.028.162" vector-effect="non-scaling-stroke" fill="none" stroke="#f7d36d" stroke-width="2"/>
      <path d="M141.892,44.677c-.007,0-.014.001-.02.004-.016.006-.022.017-.017.034,1.699,6.209,7.892,9.912,14.14,9.335.01,0,.019.001.028.007.005.003.01.007.015.011" vector-effect="non-scaling-stroke" fill="none" stroke="#843e38" stroke-width="2"/>
      <path d="M156.036,55.521c-2.835.048-5.314-.022-8.664.014" vector-effect="non-scaling-stroke" fill="none" stroke="#496556" stroke-width="2"/>
      <path d="M147.372,55.535h-10.073" vector-effect="non-scaling-stroke" fill="none" stroke="#567360" stroke-width="2"/>
      <path d="M137.299,55.535h-.811" vector-effect="non-scaling-stroke" fill="none" stroke="#718168" stroke-width="2"/>
      <path d="M136.488,55.535h-1.15c-.021,0-.03.01-.026.031.982,5.965,6.103,10.043,11.999,10.404" vector-effect="non-scaling-stroke" fill="none" stroke="#567360" stroke-width="2"/>
      <path d="M132.934,64.519c-.029-.364-.043-.925-.043-1.684,0-3.27,0-6.539.001-9.809.001-1.334.179-2.551.683-3.789,1.224-3.014,3.207-5.592,5.947-7.466" vector-effect="non-scaling-stroke" fill="none" stroke="#314654" stroke-width="2"/>
      <path d="M131.253,64.654c.006-.127.009-.254.009-.38.004-4.557.006-9.114.006-13.67,0-.374-.047-.849-.14-1.424" vector-effect="non-scaling-stroke" fill="none" stroke="#314654" stroke-width="2"/>
      <path d="M156.036,50.546c-.201.017-.365.02-.49.011-.742-.056-1.591-.156-2.322-.303-2.988-.604-5.607-1.947-7.857-4.029-.205-.19-.605-.622-1.2-1.296-.06-.067-.145-.15-.255-.247" vector-effect="non-scaling-stroke" fill="none" stroke="#f7d979" stroke-width="2"/>
      <path d="M143.002,44.701c.282.584.646,1.048,1.056,1.561,1.956,2.449,4.912,4.195,7.917,4.99,1.249.33,2.585.509,4.006.535.021,0,.033-.01.038-.031l.017-.078" vector-effect="non-scaling-stroke" fill="none" stroke="#a87657" stroke-width="2"/>
      <path d="M143.514,44.682c.729,1.044,1.474,1.909,2.237,2.597,2.784,2.51,6.465,3.961,10.285,3.956" vector-effect="non-scaling-stroke" fill="none" stroke="#b1b66c" stroke-width="2"/>
      <path d="M121.621,53.42c-.861,1.811-2.048,3.465-3.562,4.761" vector-effect="non-scaling-stroke" fill="none" stroke="#8a7d4c" stroke-width="2"/>
      <path d="M107.951,56.011c.243.38.55.437.923.169" vector-effect="non-scaling-stroke" fill="none" stroke="#86733f" stroke-width="2"/>
      <path d="M87.489,53.175c-.033.039-.028.072.014.1.016.01.022.024.021.043l-.008.079c-.002.023.007.04.029.05.034.015.057.04.068.075.007.022,0,.038-.02.048-.093.049-.16.118-.2.208-.009.02-.003.035.017.045l.181.083c.022.01.024.024.006.04-.129.119-.217.288-.448.281-.007,0-.008.002-.002.006l.021.018s.004.008-.002.01c-.006.002-.011.004-.017.006-.018.007-.017.01.002.01h.028c.02,0,.034.009.043.028.038.084.109.12.214.107t0,0c-.132.021-.265.034-.4.04-.019,0-.034.01-.044.026-.03.05-.074.06-.132.029-.018-.01-.038-.015-.059-.015-.527-.004-1.047.051-1.561.167-.066.015-.175.002-.223.02-.154.055-.311.092-.473.11-.112.012-.249-.05-.363-.004-.212.086-.339.028-.511.034-.212.007-.424.011-.636.011-.02,0-.037-.007-.051-.02-.013-.012-.029-.016-.048-.012-.091.021-.094.017-.009-.012l.021-.007c.007-.002.007-.005,0-.008-.061-.029-.111-.071-.148-.127-.024-.036-.054-.036-.089,0" vector-effect="non-scaling-stroke" fill="none" stroke="#191f1d" stroke-width="2"/>
      <path d="M82.713,54.645l-.014-6.191" vector-effect="non-scaling-stroke" fill="none" stroke="#3e5a45" stroke-width="2"/>
      <path d="M82.713,54.645l-.015,6.169c0,.012.008.024.02.028,1.585.527,3.21.876,4.875,1.046" vector-effect="non-scaling-stroke" fill="none" stroke="#3b5341" stroke-width="2"/>
      <path d="M81.976,76.824l-.029-.072c-.007-.018-.008-.037-.001-.056.093-.258.185-.561.276-.91.473-1.828.687-3.743.539-5.613-.588-7.473-6.394-13.042-13.919-13.312" vector-effect="non-scaling-stroke" fill="none" stroke="#9f6e51" stroke-width="2"/>
      <path d="M147.372,55.535c.014.085-.031.143-.031.222.006,1.554.002,3.114-.012,4.678" vector-effect="non-scaling-stroke" fill="none" stroke="#7eac80" stroke-width="2"/>
      <path d="M147.33,60.435c-3.867.024-7.572-1.623-9.926-4.715-.034-.045-.069-.106-.105-.184" vector-effect="non-scaling-stroke" fill="none" stroke="#a6c990" stroke-width="2"/>
      <path d="M156.036,56.96c-2.353,2.158-5.483,3.499-8.707,3.475" vector-effect="non-scaling-stroke" fill="none" stroke="#99bb86" stroke-width="2"/>
      <path d="M136.488,55.535c2.162,3.379,6.228,5.403,10.195,5.532.214.007.429.015.643.025" vector-effect="non-scaling-stroke" fill="none" stroke="#a6c990" stroke-width="2"/>
      <path d="M156.032,57.826c-2.507,2.103-5.409,3.191-8.706,3.266" vector-effect="non-scaling-stroke" fill="none" stroke="#99bb86" stroke-width="2"/>
      <path d="M68.842,32.846h6.862c-.05.029-.094.066-.132.11-.031.036-.025.043.017.022l.091-.045c.024-.012.033-.005.026.021-.044.181-.105.356-.183.525-.238.51-.479,1.018-.724,1.524-.047.097-.103.199-.169.306-.23.373-.385.797-.56,1.198-.129.296-.336.605-.477.926-.145.329-.336.623-.476.955-.034.08-.105.13-.139.203-.175.37-.389.71-.526,1.106-.069.202-.158.397-.266.585-.012.02-.01.039.006.056l.079.084c-1.122.421-2.237.86-3.345,1.316-.029.012-.057.027-.084.045v-8.936Z" fill="#ea5e18"/>
      <path d="M75.704,32.846h2.817l-.14.017c-.023.002-.024.01-.005.021,1.539.94,2.819,2.143,3.84,3.61.144.207.281.443.411.707.008.016.019.028.034.036l.032.018v.061c-3.529.85-7.004,1.885-10.422,3.105l-.079-.084c-.016-.017-.018-.036-.006-.056.108-.188.196-.383.266-.585.137-.397.351-.736.526-1.106.034-.073.105-.122.139-.203.14-.332.331-.626.476-.955.141-.321.348-.63.477-.926.175-.4.331-.825.56-1.198.066-.107.122-.208.169-.306.245-.506.487-1.014.724-1.524.078-.169.139-.344.183-.525.007-.026-.002-.033-.026-.021l-.091.045c-.042.021-.048.013-.017-.022.038-.044.082-.081.132-.11Z" fill="#fc651a"/>
      <path d="M78.52,32.846h4.179l-.006,4.409-.032-.018c-.015-.009-.027-.021-.034-.036-.13-.264-.267-.499-.411-.707-1.021-1.467-2.301-2.671-3.84-3.61-.02-.012-.018-.019.005-.021l.14-.017Z" fill="#517a59"/>
      <path d="M82.699,32.846l2.867-.007c-1.304,2.098-2.312,4.423-2.868,6.834-.025-.083-.036-.145-.034-.184.037-.692.057-1.385.059-2.078,0-.017-.01-.049-.03-.096v-.061l.006-4.409Z" fill="#d0ce56"/>
      <path d="M85.566,32.84l4.037.007.02.017c.011.009.013.02.005.032-.187.278-.104.476-.186.776-.115.426-.23.794-.345,1.104l-.005-.227c0-.034-.009-.036-.024-.006-.14.285-.228.607-.348.874-.188.416-.371.948-.499,1.271-.392.984-.749,1.869-1.116,2.97-.11.33-.326.844-.437,1.289-.07.283-.217.584-.26.906-.02.149-.093.261-.149.397-.077.187-.06.405-.132.612-.091.26-.152.58-.188.863-.019.151-.059.296-.12.437-.057.132-.08.272-.068.419,0,.012-.005.019-.017.02l-.017.002c-.012.002-.021.008-.025.02l-.072.187c-.009.021-.023.036-.044.044-.149.059-.391.18-.551.157-.163-.023-.287-.07-.448-.061-.35.021-.654.133-.996.165-.225.021-.37.094-.622.009-.019-.006-.033-.001-.043.015l-.108.18c-.013.021-.019.019-.019-.006v-.023c.001-.031-.003-.033-.012-.004,0,.003-.002.006-.004.008-.01.016-.016.015-.018-.004l-.033-.322s-.002-.006-.006-.002l-.017.018v-5.312c.557-2.411,1.564-4.736,2.868-6.834Z" fill="#3c602f"/>
      <path d="M89.603,32.846h2.051c-.01.007-.018.015-.024.024-.009.014-.014.029-.014.046l.009,1.17c0,.067.034.108.1.121l1.549.31.217.855c-.002.008-.003.015-.003.021,0,.01-.005.018-.013.024-2.283,1.748-3.789,3.983-4.518,6.705-.731,2.731-.354,5.259,1.131,7.587,1.078,1.688,2.666,2.98,4.514,3.76.044.018.082.007.113-.033.825,2.014,2.084,3.702,3.778,5.065-.083.029-.14.043-.171.042-4.348-.159-8.225-1.791-10.832-5.368-1.089-1.541-1.864-3.497-1.918-5.404-.024-.918.051-1.848.225-2.791.66-3.581,2.004-6.843,3.301-10.206.115-.31.23-.678.345-1.104.082-.301-.001-.498.186-.776.008-.012.007-.022-.005-.032l-.02-.017Z" fill="#52217d"/>
      <path d="M91.654,32.846h5.838c-.059.732-.077,1.466-.056,2.202-.203-.002-.331-.007-.383-.013-1.263-.152-2.523-.325-3.781-.518l-1.549-.31c-.066-.013-.099-.054-.1-.121l-.009-1.17c0-.017.005-.032.014-.046.007-.009.015-.017.024-.024Z" fill="#8aba89"/>
      <path d="M97.493,32.846h6.469s.103.018.103.018c-1.38.833-2.891,1.465-4.531,1.896-.733.193-1.432.289-2.097.288-.022-.736-.003-1.47.056-2.203Z" fill="#719e75"/>
      <path d="M103.962,32.846h.398l-.295.018-.103-.018Z" fill="#d9613e"/>
      <path d="M104.36,32.846h3.245s.009.012.013.024c.002.005.001.011-.001.016-.66,1.552-1.058,3.171-1.194,4.856-4.29.344-8.264,2.375-10.654,6.021-.014-.004-.029-.005-.046-.001-.015.003-.021-.003-.02-.018.013-.154-.005-.306-.055-.454-.007-.02-.008-.04-.004-.06.019-.093.009-.202-.028-.326-.051-.169-.064-.448-.111-.653-.229-1.013-.469-1.897-.721-2.651-.528-1.584-.949-2.979-1.264-4.183-.003-.013-.013-.028-.029-.046l-.217-.855c1.258.193,2.518.366,3.781.518.052.006.179.01.383.013.665,0,1.364-.096,2.097-.288,1.641-.431,3.151-1.063,4.531-1.896l.295-.018Z" fill="#d0ce56"/>
      <path d="M120.531,34.03c.074.58.18,1.153.318,1.719.117.48.218.875.305,1.187.618,2.225,1.881,4.098,3.705,5.524.208.162.416.325.623.488" vector-effect="non-scaling-stroke" fill="none" stroke="#588361" stroke-width="2"/>
      <path d="M133.721,32.846h6.642c-.42,2.655-1.333,5.125-2.74,7.409-.927,1.541-2.075,2.894-3.443,4.06-.015.013-.041.047-.078.103l-.027-.039c-.013-.019-.015-.039-.006-.06.187-.415.305-.713.353-.896.945-3.556.672-7.151-.806-10.517-.01-.022-.003-.036.02-.041l.084-.02Z" fill="#608d69"/>
      <path d="M140.363,32.846h14.529s.031.021.031.021c.014.009.015.02.001.031-.152.124-.301.25-.446.38-2.011,1.799-4.015,3.606-6.014,5.42-2.093.18-4.088.664-5.987,1.454-1.016.423-2.002.963-2.956,1.62-.011-.016-.025-.021-.04-.016-.011.004-.02,0-.027-.01l-.032-.051c-.01-.016-.025-.026-.043-.029-.137-.024-.23-.139-.328-.204-.11-.073-.159-.172-.266-.241-.262-.167-.337-.443-.524-.664-.012-.014-.028-.022-.047-.024-.058-.005-.105-.032-.139-.08-.013-.018-.03-.032-.05-.042-.08-.038-.139-.099-.176-.183-.009-.021-.024-.028-.046-.022l-.181.051c1.407-2.284,2.32-4.754,2.74-7.41Z" fill="#d0ce56"/>
      <path d="M154.892,32.846h1.144v8.574c-.128-.078-.268-.125-.42-.142-.016-.002-.025.005-.028.021-.035.221-.094.434-.176.64-.192.481.152.804.624.661v2.056c-3.856-.011-7.713-.009-11.569.005-.185,0-.37.007-.555.02h-.398l-.512.019c-.317-.015-.639-.012-.966.007-.058.004-.094-.012-.145-.031l6.572-5.98c1.998-1.814,4.003-3.621,6.014-5.42.145-.13.294-.257.446-.38.013-.011.013-.021-.001-.031l-.031-.02Z" fill="#ff7220"/>
      <path d="M89.097,34.775c-1.297,3.363-2.641,6.624-3.301,10.206-.173.943-.248,1.873-.225,2.791l-.153.33c-.009.019-.022.033-.042.042-.107.049-.222.081-.343.096-.373.045-.746.093-1.118.144-.02.003-.039,0-.057-.01-.094-.05-.192-.087-.296-.11-.201-.046-.381.047-.617-.04-.016-.006-.027-.017-.032-.034l-.015-.049c-.005-.016-.016-.023-.032-.02l-.059.011c-.013.002-.019-.003-.019-.015v-.02c0-.029-.008-.032-.025-.008-.005.008-.009.017-.012.025-.002.005-.005.006-.009.002l-.011-.011c-.009-.009-.015-.008-.019.004-.003.009-.007.014-.013.015v-3.138l.017-.018s.005-.003.006.002l.033.322c.002.019.008.021.018.004.002-.002.003-.005.004-.008.009-.029.013-.028.012.004v.023c0,.025.006.027.019.006l.108-.18c.01-.016.025-.021.043-.015.252.084.396.012.622-.009.342-.032.646-.144.996-.165.162-.01.285.038.448.061.16.023.402-.099.551-.157.021-.008.036-.023.044-.044l.072-.187c.004-.011.013-.018.025-.02l.017-.002c.012-.002.017-.008.017-.02-.012-.147.011-.287.068-.419.061-.141.101-.287.12-.437.036-.282.097-.603.188-.863.072-.207.055-.425.132-.612.056-.135.129-.248.149-.397.043-.322.19-.623.26-.906.111-.445.327-.959.437-1.289.367-1.102.724-1.986,1.116-2.97.128-.322.311-.854.499-1.271.121-.267.208-.59.348-.874.015-.031.023-.029.024.006l.005.227Z" fill="#3c602f"/>
      <path d="M93.49,35.372c.016.018.026.033.029.046.315,1.204.737,2.598,1.264,4.183.251.754.492,1.638.721,2.651.047.205.059.484.111.653.038.124.047.232.028.326-.004.02-.003.04.004.06.05.149.069.3.055.454-.001.015.006.021.02.018.017-.004.032-.003.046.001-1.658,2.577-2.143,5.377-1.454,8.402.056.247.19.67.4,1.271-.031.04-.069.051-.113.033-1.848-.78-3.436-2.071-4.514-3.76-1.485-2.327-1.862-4.856-1.131-7.587.729-2.722,2.235-4.957,4.518-6.705.008-.006.012-.014.013-.024,0-.007.001-.014.003-.021Z" fill="#ff7220"/>
      <circle cx="98.286" cy="37.371" r=".827" fill="#f2e0b8"/>
      <path d="M82.693,37.316c.02.047.03.078.03.096-.002.693-.022,1.386-.059,2.078-.002.039.009.1.034.184v8.781c-.797,1.184-1.812,2.187-3.044,3.011-2.144,1.432-4.496,2.087-7.056,1.966-.145-.007-1.393-.068-1.427-.115-.003-.004-.008-.007-.013-.009l-1.101-.233c-.009-.002-.014-.007-.017-.015-.004-.013-.01-.02-.019-.022-.38-.068-.748-.179-1.102-.333-.017-.008-.032-.019-.045-.033l-.031-.036v-10.853c.027-.018.055-.033.084-.045,1.108-.456,2.223-.895,3.345-1.316,3.419-1.22,6.893-2.255,10.422-3.105Z" fill="#ff7220"/>
      <path d="M106.423,37.742c-.024.799-.029,1.356-.015,1.671.091,2.115.602,4.12,1.533,6.016l-.162.181c-.015.016-.023.035-.024.057-.049.81-.031,1.617-.015,2.427.049,2.429-.077,4.884.047,7.307.002.031.014.036.039.017.009-.007.017-.017.023-.029.01-.019.025-.033.045-.041.047-.02.076-.052.086-.096.004-.02.012-.037.023-.053.069-.099.122-.205.16-.32.007-.021.019-.039.036-.053.118-.096.251-.164.399-.205.018-.005.034-.014.047-.028.099-.097.198-.118.296-.064.051.028.096.091.134.188.05.129.133.239.137.389.002.062.008.118.018.17.041.205.002,1-.355.903.381-.453.279-1.028.066-1.534-.015-.035-.054-.053-.091-.04-.638.228-.937.696-.898,1.406-.051-.002-.099.013-.145.044-.019.012-.029.029-.03.051-.018.32-.027.64-.027.961.003,1.487.006,2.975.008,4.463,0,.02.009.034.026.043.501.258,1.206.187,1.741.076.002,0,.004-.002.005-.005.002-.004.003-.009.005-.015.002-.008.007-.012.015-.012.278.001.588-.023.93-.073,1.062-.156,2.072-.416,3.03-.778.491-.185,1.097-.474,1.82-.867.033-.018.138-.065.315-.142.204-.088.359-.248.532-.347.221-.126.405-.22.607-.389.239-.201.495-.372.723-.585.155-.145.315-.283.482-.415.014-.011.028-.011.043-.001.05.034.059.088.028.162-4.434,3.85-10.584,4.648-15.984,2.493-.769-.346-1.514-.737-2.235-1.174-.467-.314-.916-.647-1.348-.999-1.694-1.363-2.953-3.051-3.778-5.065-.211-.6-.344-1.024-.4-1.271-.689-3.024-.204-5.825,1.454-8.402,2.39-3.646,6.364-5.677,10.654-6.021Z" fill="#f0963f"/>
      <path d="M148.464,38.697l-6.572,5.98c-.007,0-.014.001-.02.004-.016.006-.022.017-.017.034,1.699,6.209,7.892,9.912,14.14,9.335.01,0,.019.001.028.007.005.003.01.007.015.011v1.454c-2.835.048-5.314-.022-8.664.014h-12.034c-.021,0-.03.01-.026.031.982,5.965,6.103,10.043,11.999,10.404,2.715.133,5.139-.486,7.548-1.663-3.68,2.858-5.71,7.309-5.655,11.951l-.745-.026c-.947-.017-1.804.033-2.572.151-.476.073-.803.12-.98.14-1.07-.019-2.14-.025-3.21-.018-.064,0-.133-.02-.204-.017-.34-.211-.68-.423-1.018-.636-3.665-2.313-6.297-5.937-7.32-10.15-.087-.359-.143-.789-.222-1.182-.029-.364-.043-.925-.043-1.684,0-3.27,0-6.539.001-9.809.001-1.334.179-2.551.683-3.789,1.224-3.014,3.207-5.592,5.947-7.466.954-.657,1.939-1.197,2.956-1.62,1.898-.79,3.894-1.275,5.987-1.454Z" fill="#3c602f"/>
      <path d="M139.521,41.771c-2.74,1.874-4.723,4.452-5.947,7.466-.503,1.238-.682,2.455-.683,3.789-.002,3.269-.002,6.539-.001,9.809,0,.758.015,1.32.043,1.684l-.184.153-1.498-.018c.006-.127.009-.254.009-.38.004-4.557.006-9.114.006-13.67,0-.374-.047-.849-.14-1.424.883-.934,1.62-1.968,2.212-3.101.252-.483.506-1.107.762-1.659.037-.056.063-.091.078-.103,1.368-1.166,2.516-2.52,3.443-4.06l.181-.051c.022-.006.037.001.046.022.037.084.095.145.176.183.02.009.037.023.05.042.034.048.081.075.139.08.019.002.034.01.047.024.187.22.262.497.524.664.107.069.156.168.266.241.099.065.191.18.328.204.019.004.033.013.043.029l.032.051c.007.011.016.014.027.01.015-.005.028,0,.04.016Z" fill="#bcb750"/>
      <path d="M156.036,44.657v5.889c-.201.017-.365.02-.49.011-.742-.056-1.591-.156-2.322-.303-2.988-.604-5.607-1.947-7.857-4.029-.205-.19-.605-.622-1.2-1.296-.06-.067-.145-.15-.255-.247.185-.013.369-.019.555-.02,3.856-.014,7.713-.016,11.569-.005Z" fill="#f9e58b"/>
      <path d="M141.892,44.677c.051.019.088.034.145.031.327-.019.649-.021.966-.007.282.584.646,1.048,1.056,1.561,1.956,2.449,4.912,4.195,7.917,4.99,1.249.33,2.585.509,4.006.535.021,0,.033-.01.038-.031l.017-.078v2.388s-.01-.008-.015-.011c-.009-.005-.018-.008-.028-.007-6.248.577-12.44-3.126-14.14-9.335-.004-.016.001-.028.017-.034.007-.002.013-.004.02-.004Z" fill="#eb563f"/>
      <path d="M143.514,44.682c.729,1.044,1.474,1.909,2.237,2.597,2.784,2.51,6.465,3.961,10.285,3.956v.444l-.017.078c-.004.021-.017.031-.038.031-1.422-.027-2.757-.205-4.006-.535-3.005-.795-5.961-2.541-7.917-4.99-.41-.513-.774-.977-1.056-1.561l.512-.019Z" fill="#ff7220"/>
      <path d="M143.514,44.682h.398c.111.098.196.18.255.247.595.674.995,1.106,1.2,1.296,2.25,2.082,4.869,3.425,7.857,4.029.731.148,1.58.247,2.322.303.125.009.289.006.49-.011v.689c-3.819.005-7.5-1.446-10.285-3.956-.763-.687-1.509-1.553-2.237-2.597Z" fill="#fc651a"/>
      <path d="M107.941,45.429c2.648,5.148,7.876,8.228,13.68,7.991-.861,1.811-2.048,3.465-3.562,4.761.032-.074.023-.128-.028-.162-.015-.01-.029-.01-.043.001-.167.132-.327.271-.482.415-.228.213-.484.384-.723.585-.203.17-.386.263-.607.389-.173.099-.328.258-.532.347-.177.077-.282.124-.315.142-.723.393-1.33.682-1.82.867-.958.362-1.968.622-3.03.778-.341.05-.651.075-.93.073-.008,0-.013.004-.015.012-.002.005-.003.01-.005.015,0,.002-.002.004-.005.005-.535.111-1.239.182-1.741-.076-.018-.009-.026-.023-.026-.043-.002-1.488-.005-2.975-.008-4.463,0-.32.009-.641.027-.961.001-.022.011-.039.03-.051.046-.031.094-.046.145-.044.243.38.55.437.923.169.356.097.396-.698.355-.903-.011-.051-.017-.108-.018-.17-.004-.149-.086-.26-.137-.389-.038-.097-.083-.16-.134-.188-.098-.054-.197-.033-.296.064-.013.013-.029.022-.047.028-.148.041-.281.11-.399.205-.017.014-.029.031-.036.053-.038.114-.091.221-.16.32-.011.016-.019.034-.023.053-.01.044-.038.076-.086.096-.02.008-.034.022-.045.041-.006.012-.014.021-.023.029-.024.019-.037.013-.039-.017-.124-2.424.002-4.878-.047-7.307-.016-.81-.034-1.617.015-2.427.001-.022.009-.041.024-.057l.162-.181Z" fill="#e88a3d"/>
      <path d="M85.571,47.772c.054,1.907.83,3.863,1.918,5.404-.033.039-.028.072.014.1.016.01.022.024.021.043l-.008.079c-.002.023.007.04.029.05.034.015.057.04.068.075.007.022,0,.038-.02.048-.093.049-.16.118-.2.208-.009.02-.003.035.017.045l.181.083c.022.01.024.024.006.04-.129.119-.217.288-.448.281-.007,0-.008.002-.002.006l.021.018s.004.008-.002.01c-.006.002-.011.004-.017.006-.018.007-.017.01.002.01h.028c.02,0,.034.009.043.028.038.084.109.12.214.107t0,0c-.132.021-.265.034-.4.04-.019,0-.034.01-.044.026-.03.05-.074.06-.132.029-.018-.01-.038-.015-.059-.015-.527-.004-1.047.051-1.561.167-.066.015-.175.002-.223.02-.154.055-.311.092-.473.11-.112.012-.249-.05-.363-.004-.212.086-.339.028-.511.034-.212.007-.424.011-.636.011-.02,0-.037-.007-.051-.02-.013-.012-.029-.016-.048-.012-.091.021-.094.017-.009-.012l.021-.007c.007-.002.007-.005,0-.008-.061-.029-.111-.071-.148-.127-.024-.036-.054-.036-.089,0l-.014-6.191v-.331s.009-.007.012-.015c.004-.012.01-.013.019-.004l.011.011s.007.003.009-.002c.003-.009.007-.017.012-.025.017-.024.025-.021.025.008v.02c0,.013.006.018.019.015l.059-.011c.016-.003.027.003.032.02l.015.049c.005.016.016.028.032.034.236.087.416-.006.617.04.103.023.202.06.296.11.018.009.037.013.057.01.372-.051.745-.099,1.118-.144.121-.015.236-.047.343-.096.019-.009.033-.023.042-.042l.153-.33Z" fill="#3c602f"/>
      <path d="M82.699,48.454l.014,6.191-.015,6.169c0,.012.008.024.02.028,1.585.527,3.21.876,4.875,1.046-.004.078-.019.144-.012.222.419,4.708-.908,9.484-3.977,13.114-.331.391-.874.925-1.629,1.6l-.029-.072c-.007-.018-.008-.037-.001-.056.093-.258.185-.561.276-.91.473-1.828.687-3.743.539-5.613-.588-7.473-6.394-13.042-13.919-13.312v-4.225l.031.036c.013.014.028.025.045.033.354.154.722.265,1.102.333.009.002.015.009.019.022.002.009.008.014.017.015l1.101.233c.006.001.01.004.013.009.034.047,1.283.108,1.427.115,2.561.121,4.913-.534,7.056-1.966,1.232-.823,2.247-1.827,3.046-3.011Z" fill="#d0ce56"/>
      <path d="M131.128,49.18c.093.575.14,1.049.14,1.424,0,4.556-.001,9.113-.006,13.67,0,.127-.003.253-.009.38l-.027.002-13.199-.002c-.013-.155-.025-.31-.036-.464-.039-.556-.707-.827-1.126-.473-.314.265-.227.577-.339.937l-7.96.005-6.876-.002c.007-1.34.136-2.668.386-3.983,5.4,2.155,11.55,1.358,15.984-2.493,1.514-1.296,2.701-2.95,3.562-4.761.008-.02.019-.03.033-.031,3.701-.223,6.859-1.627,9.473-4.21Z" fill="#52217d"/>
      <path d="M136.556,50.681c-.384.124-.911-.216-.831-.655.097-.528.719-.784,1.209-.808.118-.005.186.043.205.146.086.479-.069,1.151-.582,1.317Z" fill="#f2e0b8"/>
      <path d="M156.34,42.288c-.127.383-.714.606-1.02.282-.369-.391-.207-1.044.064-1.452.066-.098.145-.124.239-.079.437.214.887.737.717,1.249Z" fill="#f2e0b8"/>
      <path d="M87.489,53.175c2.607,3.577,6.484,5.209,10.832,5.368.031,0,.089-.013.171-.042.431.353.881.686,1.348.999-3.851,1.913-7.934,2.709-12.246,2.388-1.666-.17-3.291-.519-4.875-1.046-.012-.004-.02-.015-.02-.028l.015-6.169c.036-.037.065-.037.089,0,.038.056.087.098.148.127.007.003.006.006,0,.008l-.021.007c-.085.029-.082.033.009.012.019-.004.035,0,.048.012.014.013.031.02.051.02.212,0,.424-.004.636-.011.172-.006.298.052.511-.034.115-.047.251.016.363.004.161-.018.319-.054.473-.11.048-.017.157-.005.223-.02.514-.116,1.034-.171,1.561-.167.021,0,.04.005.059.015.058.031.102.021.132-.029.01-.017.025-.026.044-.026.135-.006.269-.019.4-.04t0,0c-.105.013-.177-.023-.214-.107-.009-.018-.023-.028-.043-.028h-.028c-.019,0-.019-.003-.002-.01.005-.002.011-.004.017-.006.006-.002.007-.006.002-.01l-.021-.018c-.005-.004-.004-.007.002-.006.23.007.318-.162.448-.281.018-.017.016-.03-.006-.04l-.181-.083c-.02-.009-.026-.024-.017-.045.04-.09.106-.16.2-.208.02-.011.027-.027.02-.048-.011-.036-.034-.061-.068-.075-.022-.01-.031-.026-.029-.05l.008-.079c.002-.018-.005-.033-.021-.043-.042-.028-.047-.061-.014-.1Z" fill="#3c602f"/>
      <path d="M108.874,56.18c-.372.268-.68.211-.923-.169-.039-.709.26-1.178.898-1.406.036-.013.076.005.091.04.213.506.315,1.082-.066,1.534Z" fill="#e88a3d"/>
      <path d="M147.372,55.535c.014.085-.031.143-.031.222.006,1.554.002,3.114-.012,4.678-3.867.024-7.572-1.623-9.926-4.715-.034-.045-.069-.106-.105-.184h10.073Z" fill="#8aba89"/>
      <path d="M156.036,55.521v1.439c-2.353,2.158-5.483,3.499-8.707,3.475.013-1.564.017-3.123.012-4.678,0-.08.045-.137.031-.222,3.35-.036,5.829.034,8.664-.014Z" fill="#719e75"/>
      <path d="M136.488,55.535c2.162,3.379,6.228,5.403,10.195,5.532.214.007.429.015.643.025l.01,4.841c0,.008-.003.014-.008.02l-.018.018c-5.896-.361-11.017-4.439-11.999-10.404-.004-.021.005-.031.026-.031h1.15Z" fill="#8aba89"/>
      <path d="M136.488,55.535h.811c.036.078.071.139.105.184,2.354,3.093,6.059,4.74,9.926,4.715,3.224.024,6.353-1.316,8.707-3.475l-.004.866c-2.507,2.103-5.409,3.191-8.706,3.266-.214-.01-.429-.018-.643-.025-3.967-.129-8.033-2.153-10.195-5.532Z" fill="#c1d798"/>
      <path d="M68.842,56.861c7.524.27,13.331,5.839,13.919,13.312.148,1.87-.066,3.785-.539,5.613-.09.349-.182.652-.276.91-.007.019-.006.037.001.056l.029.072c-.107.124-.184.263-.231.417-.101.329-.264.608-.443.978-.652,1.345-1.525,2.57-2.619,3.675-.736.704-1.538,1.323-2.404,1.858-.015.009-.014.016.002.021l.058.019h-7.497v-8.729c.02.073.04.145.105.194,1.07.809,2.304,1.278,3.636,1.515l.24.054c.033.007.051-.006.054-.04.141-1.866.432-3.634-.543-5.355-.837-1.478-1.948-2.194-3.441-2.913-.016-.007-.027-.003-.034.013l-.018.041v-11.711Z" fill="#eb563f"/>
      <rect x="107.508" y="37.742" width=".223" height="24.006" fill="#f5ce67" stroke="#f5ce67" stroke-miterlimit="10" stroke-width="3"/>
      <rect x="107.615" y="37.084" width=".253" height="25.664" transform="translate(-3.739 90.804) rotate(-45)" fill="#f5ce67" stroke="#f5ce67" stroke-miterlimit="10" stroke-width="3"/>
      <rect x="107.83" y="36.674" width=".223" height="25.838" transform="translate(66.683 -61.8) rotate(45)" fill="#f5ce67" stroke="#f5ce67" stroke-miterlimit="10" stroke-width="3"/>
      <rect x="106.814" y="36.946" width=".223" height="25.838" transform="translate(156.79 -57.06) rotate(90)" fill="#f5ce67" stroke="#f5ce67" stroke-miterlimit="10" stroke-width="3"/>
      <ellipse cx="108.076" cy="49.746" rx="14.07" ry="12.003" fill="none" stroke="#f5ce67" stroke-miterlimit="10" stroke-width="5"/>
      <path d="M107.605,32.846h26.115l-.084.02c-.023.005-.03.019-.02.041,1.478,3.367,1.752,6.961.806,10.517-.049.182-.166.481-.353.896-.009.021-.008.041.006.06l.027.039c-.257.552-.51,1.177-.762,1.659-.592,1.134-1.33,2.167-2.212,3.101-2.614,2.583-5.772,3.986-9.473,4.21-.014,0-.025.011-.033.031-5.805.237-11.032-2.843-13.68-7.991-.931-1.896-1.442-3.901-1.533-6.016-.013-.315-.008-.872.015-1.671.136-1.685.534-3.304,1.194-4.856.002-.005.003-.011.001-.016-.004-.012-.008-.02-.013-.024Z" fill="#ff7220"/>
      <g>
        <path d="M120.632,40.132c.319.49.663.96,1.034,1.409.314.381.577.693.791.936,1.524,1.734,3.476,2.872,5.738,3.363.258.056.516.112.774.168-.392.072-.785.137-1.179.196-2.257.333-4.523-.238-5.881-2.197-.771-1.112-1.143-2.509-1.476-3.803-.005-.021.002-.036.022-.045.068-.029.127-.038.178-.028Z" fill="#517a59"/>
        <path d="M120.632,40.132c2.649-.419,5.388-.01,7.015,2.307.72,1.026,1.104,2.303,1.561,3.46.01.025-.002.054-.027.065-.003.001-.006.002-.009.003l-.203.042c-.258-.056-.516-.112-.774-.168-2.262-.49-4.214-1.629-5.738-3.363-.213-.243-.477-.555-.791-.936-.371-.45-.715-.92-1.034-1.409Z" fill="#608d69"/>
      </g>
      <g>
        <path d="M120.136,40.252c-.337.065-.669.148-.996.249-.277.086-.505.16-.684.222-1.281.444-2.333,1.253-3.102,2.374-.088.128-.175.255-.263.383.048-.229.1-.457.155-.685.32-1.301,1.133-2.406,2.5-2.71.776-.172,1.618-.065,2.395.042.013.002.019.009.019.022,0,.043-.008.077-.024.103Z" fill="#517a59"/>
        <path d="M120.136,40.252c-.36,1.533-1.19,2.932-2.812,3.302-.718.164-1.497.089-2.228.08-.016,0-.029-.013-.029-.029,0-.002,0-.004,0-.005l.022-.12c.088-.128.176-.255.263-.383.769-1.121,1.821-1.93,3.102-2.374.179-.062.408-.136.684-.222.327-.102.659-.185.996-.249Z" fill="#608d69"/>
      </g>
    </g>
  </g>
  <path d="M29.585,7.992l6.682-3.808s-2.991-.125-4.911.896-1.771,2.913-1.771,2.913Z" fill="#69bb35"/>
  <path d="M30.28,7.894l6.713-3.756s-1.404,2.606-3.268,3.723-3.445.033-3.445.033Z" fill="#a9ce30"/>
  <path d="M28.481,7.912l-9.448-5.64s4.297-.074,7.014,1.442,2.434,4.198,2.434,4.198Z" fill="#69bb35"/>
  <path d="M27.964,7.999l-9.493-5.567s1.917,3.751,4.551,5.401,4.943.166,4.943.166Z" fill="#a9ce30"/>
</svg>