<svg xmlns="http://www.w3.org/2000/svg" xmlns:xlink="http://www.w3.org/1999/xlink" data-name="Capa 1" viewBox="0 0 163.056 57.162"><defs><clipPath id="c"><path fill="#ff7220" d="M27.333 9.419c-13.263 1.458-14.509 13.797-3.91 17.71 2.054.767 4.068.931 5.929.652l6.892-9.773-2.32-6.173-6.591-2.416Zm-2.302 13.708c-5.934-2.542.41-13.412 6.832-10.393 4.629 2.335-.843 12.955-6.832 10.393Z" clip-rule="evenodd"/></clipPath><clipPath id="d"><path fill="url(#a)" d="M27.361 9.411c-.821.09-1.596.223-2.326.392-6.352 2.049-7.773 10.873.53 13.502h.001a5.578 5.578 0 0 1-.508-.186c-5.934-2.542.41-13.412 6.832-10.393 1.236.623 1.751 1.837 1.73 3.232l1.723-1.571-2.376-3.287c-1.441-1.07-3.229-1.729-5.606-1.689Z" clip-rule="evenodd"/></clipPath><clipPath id="f"><path fill="#ff7220" d="M23.478 27.132c11.3 4.217 21.394-9.714 11.406-16.176-2.323-1.335-5.164-1.702-7.496-1.533 2.804.07 5.755 3.331 6.082 5.183v.002c.505 1.666-.105 3.932-1.37 5.763v.003l-.055.077-.044.062c-2.221 3.12-5.909 6.943-8.522 6.619Z" clip-rule="evenodd"/></clipPath><clipPath id="h"><path fill="url(#b)" d="M20.85 26.11a32.16 32.16 0 0 0-3.687.911C7.211 31.08 5.997 45.422 19.649 48.64l.002-.002a8.313 8.313 0 0 1-.838-.236c-9.837-3.364-.965-21.587 9.712-17.517 2.06.851 3.034 2.738 3.169 4.982l2.576-2.732-4.214-4.991c-2.444-1.544-5.394-2.386-9.207-2.033Z" clip-rule="evenodd"/></clipPath><clipPath id="j"><path fill="#ff7220" d="M16.715 55.023c18.657 5.403 33.181-18.189 16.357-27.358-3.892-1.863-8.499-2.108-12.223-1.555 4.511-.228 9.645 4.653 10.395 7.587v.003c1.014 2.614.308 6.327-1.502 9.421v.005l-.079.131-.063.105c-3.189 5.279-8.649 11.865-12.885 11.661Z" clip-rule="evenodd"/></clipPath><clipPath id="k"><path fill="none" d="M68.842 39.901h87.194v2.925H68.842z"/></clipPath><linearGradient id="a" x1="-194.164" x2="-198.034" y1="-56.556" y2="-38.211" data-name="Degradado sin nombre 20" gradientTransform="rotate(4.823 -845.742 2634.102)" gradientUnits="userSpaceOnUse"><stop offset="0" stop-color="#ffc823"/><stop offset="1" stop-color="#e94e1b"/></linearGradient><linearGradient xlink:href="#a" id="e" x1="-195.423" x2="-199.294" y1="-56.821" y2="-38.477" data-name="Degradado sin nombre 20" gradientTransform="rotate(74.135 -128.033 131.676)"/><linearGradient xlink:href="#a" id="g" x1="-211.157" x2="-189" y1="-22.492" y2="-30.972" data-name="Degradado sin nombre 20"/><linearGradient xlink:href="#a" id="b" x1="-211.157" x2="-189" y1="-22.492" y2="-30.972" data-name="Degradado sin nombre 20"/><linearGradient xlink:href="#a" id="i" x1="-211.426" x2="-189.269" y1="-23.194" y2="-31.674" data-name="Degradado sin nombre 20" gradientTransform="rotate(78.446 -130.272 140.64)"/></defs><path fill="#ff7220" d="M48.147 18.855h3.276c.923 0 1.611.85 1.419 1.753l-4.55 21.374a1.451 1.451 0 0 1-1.419 1.149h-3.276a1.45 1.45 0 0 1-1.419-1.753l4.55-21.374a1.451 1.451 0 0 1 1.419-1.149Zm11.501 24.276a1.45 1.45 0 0 1-1.159-.578l-6.535-8.681c-.52-.694-.763-1.352-.763-2.081 0-1.387.416-3.017 1.665-4.162l9.401-8.405a1.45 1.45 0 0 1 .967-.369h3.131c1.333 0 1.96 1.646.966 2.533l-8.743 7.801c-.763.659-1.352 1.179-1.352 2.15 0 .59.312 1.075.798 1.699l6.291 7.725c.772.948.097 2.367-1.125 2.367h-3.541Z"/><path fill="#ea5e18" d="m58.807 34.003-3.965-5.071s-1.262-1.521.556-3.575L52.6 27.883s-1.116 1.099-1.263 2.504-.327 1.791.274 2.964l6.44 8.622s.321 1.159 1.97 1.159h3.167s.775.113 1.277-.762-.152-1.605-.152-1.605l-5.507-6.761Z"/><g fill="#52217d"><path d="M155.962 29.915a.394.394 0 0 1 .106.138c.021.05.014.114-.021.191l-.553 1.458a.447.447 0 0 1-.122.192.244.244 0 0 1-.154.053.38.38 0 0 1-.223-.085 2.09 2.09 0 0 0-.521-.293 3.827 3.827 0 0 0-.596-.176 4.506 4.506 0 0 0-.617-.085 8.782 8.782 0 0 0-.596-.021c-.291 0-.55.039-.777.117-.227.078-.362.195-.404.351-.029.114-.009.2.058.261.067.06.17.108.309.144.138.036.307.068.505.096.198.028.415.068.649.117.383.071.72.169 1.011.293.291.124.525.28.702.468.177.188.293.411.346.67.053.259.034.566-.058.92a3.296 3.296 0 0 1-.596 1.208 3.38 3.38 0 0 1-.957.824 4.392 4.392 0 0 1-1.218.473 6.07 6.07 0 0 1-2.128.106 7.32 7.32 0 0 1-.819-.144 5.027 5.027 0 0 1-.782-.25 2.44 2.44 0 0 1-.628-.367.336.336 0 0 1-.101-.138c-.018-.05-.012-.113.016-.192l.596-1.617c.071-.184.17-.277.298-.277a.34.34 0 0 1 .213.085c.149.128.316.238.5.33.184.092.378.17.58.234.202.064.408.11.617.138a4.18 4.18 0 0 0 1.08.016c.156-.018.298-.046.426-.085.128-.039.236-.087.324-.144a.408.408 0 0 0 .176-.213c.043-.121.034-.211-.027-.271a.611.611 0 0 0-.293-.138 4.094 4.094 0 0 0-.484-.08 7.615 7.615 0 0 1-.612-.096c-.794-.121-1.38-.387-1.755-.798-.376-.411-.475-.95-.298-1.617.121-.44.31-.821.569-1.144.259-.323.569-.589.931-.798a4.3 4.3 0 0 1 1.197-.463 6.062 6.062 0 0 1 1.346-.149c.22 0 .456.012.707.037.252.025.503.067.755.128a4.7 4.7 0 0 1 .723.234c.23.096.431.215.601.356ZM73.544 24.9c-.196 0-.318.094-.365.283l-.613 2.274c-.031.157-.13.236-.295.236h-.707c-.149 0-.208-.078-.177-.236l2.25-8.365c.031-.157.13-.236.295-.236h4.218c.62 0 1.119.116 1.496.348.377.232.648.528.813.89.165.361.228.762.189 1.202-.039.44-.167.874-.383 1.302a4.358 4.358 0 0 1-.89 1.184c-.377.361-.821.64-1.331.836-.189.079-.259.196-.212.354l.848 2.415c.024.063.004.13-.059.2a.289.289 0 0 1-.224.106h-.825c-.086 0-.149-.016-.189-.047a.312.312 0 0 1-.094-.141l-.825-2.356c-.055-.165-.177-.247-.365-.247h-2.557Zm3.193-1.119a2.695 2.695 0 0 0 1.231-.295c.357-.189.65-.422.878-.701.228-.279.385-.581.471-.907.086-.326.09-.628.012-.907a1.298 1.298 0 0 0-.501-.701c-.255-.189-.611-.287-1.066-.295h-2.898c-.196 0-.318.094-.365.283l-.872 3.24c-.047.189.024.283.212.283h2.898ZM82.545 19.092c.031-.157.13-.236.295-.236h.707c.149 0 .208.079.177.236l-1.331 4.96c-.134.503-.173.917-.118 1.243.055.326.177.585.365.778.189.193.426.326.713.401.287.075.591.112.913.112.888 0 1.622-.204 2.203-.613.581-.408.99-1.052 1.225-1.932l1.331-4.948c.031-.157.13-.236.295-.236h.707c.149 0 .208.079.177.236l-1.331 4.972a5.658 5.658 0 0 1-.701 1.591c-.302.464-.666.85-1.09 1.16-.424.31-.901.546-1.431.707a5.873 5.873 0 0 1-1.714.242c-.471 0-.913-.061-1.325-.183s-.754-.326-1.025-.613c-.271-.287-.45-.666-.536-1.137-.086-.471-.035-1.056.153-1.756l1.343-4.984ZM91.416 20.035c-.157 0-.212-.078-.165-.236l.188-.707c.031-.157.13-.236.295-.236h7.187c.149 0 .208.079.177.236l-.189.707c-.047.157-.149.236-.306.236h-2.722c-.189 0-.306.094-.354.283l-1.92 7.14c-.031.157-.13.236-.295.236h-.707c-.149 0-.208-.078-.177-.236l1.92-7.14c.047-.189-.024-.283-.212-.283h-2.722ZM100.606 25.678l-1.237 1.779c-.102.157-.236.236-.401.236h-.73c-.087 0-.14-.025-.159-.077-.02-.051-.002-.12.053-.206l5.785-8.318c.102-.157.232-.236.389-.236h1.178c.149 0 .24.079.271.236l1.308 8.318c.016.087 0 .155-.047.206a.26.26 0 0 1-.2.077h-.73c-.157 0-.251-.078-.283-.236l-.271-1.779c-.024-.173-.134-.259-.33-.259h-4.123a.543.543 0 0 0-.471.259Zm3.829-5.526-2.698 3.9c-.118.173-.082.259.106.259h3.181c.189 0 .271-.086.247-.259l-.624-3.9c-.008-.181-.079-.181-.212 0ZM111.916 27.693c-.149 0-.208-.078-.177-.236l2.25-8.365c.031-.157.13-.236.295-.236h3.864c.66 0 1.208.118 1.644.353.436.236.772.55 1.007.942.236.393.375.841.418 1.343a5.144 5.144 0 0 1-.112 1.555 6.17 6.17 0 0 1-.654 1.691 6.193 6.193 0 0 1-1.155 1.484 5.75 5.75 0 0 1-1.579 1.06 4.606 4.606 0 0 1-1.938.406h-3.864Zm4.065-1.12a3.426 3.426 0 0 0 1.426-.318 4.198 4.198 0 0 0 1.149-.795c.334-.326.613-.693.836-1.102.224-.408.383-.825.477-1.249.086-.393.114-.776.082-1.149a2.392 2.392 0 0 0-.3-1.001 1.886 1.886 0 0 0-.719-.707c-.31-.177-.701-.269-1.172-.277h-2.545c-.196 0-.318.094-.365.283l-1.614 6.032c-.047.189.02.283.2.283h2.545ZM122.885 26.514h5.078c.157 0 .212.079.165.236l-.189.707c-.031.157-.13.236-.295.236h-6.303c-.149 0-.208-.078-.177-.236l2.25-8.365c.031-.157.13-.236.295-.236h6.303c.149 0 .208.079.177.236l-.189.707c-.047.157-.149.236-.306.236h-5.078c-.189 0-.306.094-.353.283l-.589 2.18c-.047.189.024.283.212.283h4.135c.157 0 .212.079.165.236l-.165.636c-.047.157-.145.236-.295.236h-4.135c-.196 0-.318.094-.365.283l-.554 2.062c-.047.189.024.283.212.283ZM139.39 26.514c.157 0 .212.079.165.236l-.189.707c-.031.157-.13.236-.295.236h-6.303c-.149 0-.208-.078-.177-.236l2.25-8.365c.031-.157.13-.236.295-.236h.707c.149 0 .208.079.177.236l-1.92 7.14c-.047.189.024.283.212.283h5.078ZM143.125 25.678l-1.237 1.779c-.102.157-.236.236-.401.236h-.73c-.087 0-.14-.025-.159-.077-.02-.051-.002-.12.053-.206l5.785-8.318c.102-.157.232-.236.389-.236h1.178c.149 0 .24.079.271.236l1.308 8.318c.016.087 0 .155-.047.206a.26.26 0 0 1-.2.077h-.73c-.157 0-.251-.078-.283-.236l-.271-1.779c-.024-.173-.134-.259-.33-.259h-4.123a.543.543 0 0 0-.471.259Zm3.829-5.526-2.698 3.9c-.118.173-.082.259.106.259h3.181c.189 0 .271-.086.247-.259l-.624-3.9c-.008-.181-.079-.181-.212 0ZM159.69 19.422a.374.374 0 0 1 .124.147c.027.059.022.132-.018.218l-.283.648c-.047.118-.114.177-.2.177-.039 0-.086-.02-.141-.059a2.651 2.651 0 0 0-1.172-.554 6.395 6.395 0 0 0-1.302-.141c-.448 0-.823.034-1.125.1a2.626 2.626 0 0 0-.748.271 1.357 1.357 0 0 0-.442.383 1.183 1.183 0 0 0-.194.448.68.68 0 0 0 .071.53c.094.157.234.302.418.436.184.134.402.259.654.377.251.118.514.24.789.365.322.149.64.308.954.477.314.169.585.363.813.583.228.22.389.475.483.766.094.291.086.632-.024 1.025a2.56 2.56 0 0 1-.418.831 2.88 2.88 0 0 1-.795.719 4.5 4.5 0 0 1-1.196.507c-.467.13-1.007.194-1.62.194a9.896 9.896 0 0 1-1.65-.147 5.892 5.892 0 0 1-.842-.212 2.586 2.586 0 0 1-.689-.336.374.374 0 0 1-.124-.147c-.028-.059-.022-.131.018-.218l.283-.648c.047-.118.114-.177.2-.177.039 0 .086.02.141.059.157.134.359.246.607.336.247.09.509.165.784.224a7.648 7.648 0 0 0 1.532.171c.495 0 .897-.033 1.208-.1.31-.067.56-.157.748-.271.189-.114.33-.243.424-.389.094-.145.165-.293.212-.442.071-.212.063-.399-.024-.56a1.303 1.303 0 0 0-.418-.442 3.938 3.938 0 0 0-.689-.371 72.867 72.867 0 0 1-.825-.359c-.322-.141-.64-.293-.954-.454a3.16 3.16 0 0 1-.801-.571 1.892 1.892 0 0 1-.471-.766c-.094-.29-.086-.636.024-1.037a2.6 2.6 0 0 1 .412-.831 2.84 2.84 0 0 1 .783-.719 4.452 4.452 0 0 1 1.166-.507c.452-.13.972-.194 1.561-.194.228 0 .463.01.707.029.243.02.485.053.725.1.24.047.471.114.695.2.224.087.434.196.63.33ZM71.183 36.768c-.063.304-.251.456-.562.456h-1.42c-.297 0-.41-.152-.339-.456l1.897-7.047c.078-.297.268-.445.572-.445h2.225c.268 0 .459.057.572.17.113.113.187.346.223.699l.445 3.613c.014.078.032.117.053.117.021 0 .06-.039.117-.117l2.374-3.613c.12-.177.228-.321.323-.434.095-.113.191-.201.286-.265s.194-.108.297-.132c.102-.025.221-.037.355-.037h2.236c.297 0 .406.148.328.445l-1.897 7.047c-.063.304-.251.456-.562.456h-1.42c-.297 0-.41-.152-.339-.456l1.091-4.059c.057-.198.028-.205-.085-.021L75.23 36.8c-.191.283-.434.424-.731.424h-1.091c-.304 0-.47-.141-.498-.424l-.53-4.111c-.021-.155-.057-.148-.106.021l-1.091 4.059ZM83.019 35.868l-.657 1.007c-.099.148-.185.244-.26.286s-.185.064-.334.064h-1.685c-.29 0-.339-.155-.148-.466l4.62-7.1c.099-.155.191-.258.276-.307a.7.7 0 0 1 .35-.074h2.564c.155 0 .261.025.318.074.056.05.092.152.106.307l.816 7.1c.035.311-.095.466-.392.466h-1.685c-.148 0-.251-.021-.307-.064-.057-.042-.092-.138-.106-.286l-.106-.985c-.021-.162-.117-.244-.286-.244l-2.681-.021c-.17 0-.304.081-.403.244Zm2.745-4.292-1.303 1.992c-.099.163-.064.244.106.244h1.367c.162 0 .24-.078.233-.233l-.233-2.003c-.014-.17-.071-.17-.17 0ZM96.064 33.441l.996-3.719c.085-.297.276-.445.572-.445h1.42c.304 0 .413.148.329.445l-1.886 7.047c-.071.304-.262.456-.572.456h-1.229a.55.55 0 0 1-.302-.079c-.081-.053-.168-.168-.26-.344l-1.907-3.772c-.071-.134-.127-.113-.17.064l-.985 3.677c-.085.304-.276.456-.572.456h-1.42c-.297 0-.41-.152-.339-.456l1.897-7.047c.078-.297.265-.445.562-.445h1.272c.12 0 .217.025.291.074.074.05.161.173.26.371l1.876 3.772c.07.134.127.117.17-.053ZM98.628 37.224c-.297 0-.41-.152-.339-.456l1.897-7.047c.078-.297.268-.445.572-.445h3.921c.586 0 1.086.097 1.499.291.413.194.738.463.975.805.237.343.38.751.429 1.224.049.473 0 .993-.148 1.558a5.63 5.63 0 0 1-1.802 2.898c-.431.364-.915.65-1.452.858a4.684 4.684 0 0 1-1.706.313h-3.847Zm4.101-2.056a2.466 2.466 0 0 0 1.531-.519c.434-.339.729-.819.885-1.441.078-.311.102-.583.074-.816a1.184 1.184 0 0 0-.223-.588 1.137 1.137 0 0 0-.493-.366 1.947 1.947 0 0 0-.737-.127l-1.441.011c-.17 0-.276.085-.318.254l-.89 3.338c-.042.17.017.254.18.254h1.431ZM109.796 35.868l-.657 1.007c-.099.148-.185.244-.26.286s-.185.064-.334.064h-1.685c-.29 0-.339-.155-.148-.466l4.62-7.1c.099-.155.191-.258.276-.307a.7.7 0 0 1 .35-.074h2.564c.155 0 .261.025.318.074.056.05.092.152.106.307l.816 7.1c.035.311-.095.466-.392.466h-1.685c-.148 0-.251-.021-.307-.064-.057-.042-.092-.138-.106-.286l-.106-.985c-.021-.162-.117-.244-.286-.244l-2.681-.021c-.17 0-.304.081-.403.244Zm2.745-4.292-1.303 1.992c-.099.163-.064.244.106.244h1.367c.162 0 .24-.078.233-.233l-.233-2.003c-.014-.17-.071-.17-.17 0ZM119.651 34.734c-.177 0-.286.085-.329.254l-.487 1.78c-.063.304-.251.456-.562.456h-1.42c-.297 0-.41-.152-.339-.456l1.897-7.047c.078-.297.268-.445.572-.445h4.398c.523 0 .947.095 1.272.286.325.191.563.44.715.747.152.307.219.652.201 1.033a3.285 3.285 0 0 1-.265 1.134c-.159.375-.385.726-.678 1.054s-.645.599-1.054.811c-.17.085-.237.201-.201.35l.477 2.003c.035.177.002.309-.101.397a.557.557 0 0 1-.376.132h-1.462c-.311 0-.487-.123-.53-.371l-.381-1.886c-.028-.155-.127-.233-.297-.233h-1.049Zm2.427-1.749c.212 0 .397-.044.556-.132.159-.088.291-.196.397-.323.106-.127.178-.265.217-.413a.774.774 0 0 0 .005-.413.616.616 0 0 0-.223-.323c-.113-.088-.272-.132-.477-.132h-1.971c-.177 0-.286.085-.328.254l-.329 1.229c-.05.17.011.254.18.254h1.971ZM136.022 33.441l.996-3.719c.085-.297.276-.445.572-.445h1.42c.304 0 .413.148.329.445l-1.886 7.047c-.071.304-.262.456-.572.456h-1.229a.55.55 0 0 1-.302-.079c-.081-.053-.168-.168-.26-.344l-1.907-3.772c-.071-.134-.127-.113-.17.064l-.985 3.677c-.085.304-.276.456-.572.456h-1.42c-.297 0-.41-.152-.339-.456l1.897-7.047c.078-.297.265-.445.562-.445h1.272c.12 0 .217.025.291.074.074.05.161.173.26.371l1.876 3.772c.07.134.127.117.17-.053ZM141.204 35.868l-.657 1.007c-.099.148-.185.244-.26.286s-.185.064-.334.064h-1.685c-.29 0-.339-.155-.148-.466l4.62-7.1c.099-.155.191-.258.276-.307a.7.7 0 0 1 .35-.074h2.564c.155 0 .261.025.318.074.056.05.092.152.106.307l.816 7.1c.035.311-.095.466-.392.466h-1.685c-.148 0-.251-.021-.307-.064-.057-.042-.092-.138-.106-.286l-.106-.985c-.021-.162-.117-.244-.286-.244l-2.681-.021c-.17 0-.304.081-.403.244Zm2.744-4.292-1.303 1.992c-.099.163-.064.244.106.244h1.367c.162 0 .24-.078.233-.233l-.233-2.003c-.014-.17-.071-.17-.17 0ZM127.702 29.277h2.001c.269 0 .465.256.394.516l-1.962 7.193a.408.408 0 0 1-.394.301h-2.001a.409.409 0 0 1-.394-.516l1.962-7.193a.408.408 0 0 1 .394-.301Z"/></g><path fill="#ff7220" fill-rule="evenodd" d="M27.333 9.419c-13.263 1.458-14.509 13.797-3.91 17.71 2.054.767 4.068.931 5.929.652l6.892-9.773-2.32-6.173-6.591-2.416Zm-2.302 13.708c-5.934-2.542.41-13.412 6.832-10.393 4.629 2.335-.843 12.955-6.832 10.393Z"/><g clip-path="url(#c)"><path fill="#ff7220" d="M9.836 22.088 16.23 5.154l21.763 8.218-6.395 16.934z"/></g><path fill="url(#a)" fill-rule="evenodd" d="M27.361 9.411c-.821.09-1.596.223-2.326.392-6.352 2.049-7.773 10.873.53 13.502h.001a5.578 5.578 0 0 1-.508-.186c-5.934-2.542.41-13.412 6.832-10.393 1.236.623 1.751 1.837 1.73 3.232l1.723-1.571-2.376-3.287c-1.441-1.07-3.229-1.729-5.606-1.689Z"/><g clip-path="url(#d)"><path fill="url(#e)" d="M18.449 7.699h14.998V24.18H18.449z" transform="rotate(-69.312 25.948 15.939)"/></g><path fill="#ff7220" fill-rule="evenodd" d="M23.478 27.132c11.3 4.217 21.394-9.714 11.406-16.176-2.323-1.335-5.164-1.702-7.496-1.533 2.804.07 5.755 3.331 6.082 5.183v.002c.505 1.666-.105 3.932-1.37 5.763v.003l-.055.077-.044.062c-2.221 3.12-5.909 6.943-8.522 6.619Z"/><g clip-path="url(#f)"><path fill="#ff7220" d="m21.047 26.215 6.92-18.328 17.946 6.776-6.921 18.328z"/></g><path fill="#ff7220" fill-rule="evenodd" d="M21.321 26.161s7.173-1.499 10.387-5.245 1.423 2.336 1.423 2.336l-1.239 2.083-.411 1.389-.332.66s-6.085.45-9.828-1.223Z"/><path fill="#ea6a2a" fill-rule="evenodd" d="M20.85 26.11C-.273 30.058-.78 50.023 16.715 55.023c3.392.982 6.645 1.003 9.6.329l9.884-16.528-4.473-9.632-10.877-3.082Zm-2.037 22.292c-9.837-3.364-.965-21.587 9.712-17.517 7.716 3.189.216 20.907-9.712 17.517Z"/><path fill="url(#g)" fill-rule="evenodd" d="M20.85 26.11a32.16 32.16 0 0 0-3.687.911C7.211 31.08 5.997 45.422 19.649 48.64l.002-.002a8.313 8.313 0 0 1-.838-.236c-9.837-3.364-.965-21.587 9.712-17.517 2.06.851 3.034 2.738 3.169 4.982l2.576-2.732-4.214-4.991c-2.444-1.544-5.394-2.386-9.207-2.033Z"/><g clip-path="url(#h)"><path fill="url(#i)" d="M7.295 23.495h24.154v26.541H7.295z" transform="rotate(-73.624 19.371 36.765)"/></g><path fill="#ff7220" fill-rule="evenodd" d="M16.715 55.023c18.657 5.403 33.181-18.189 16.357-27.358-3.892-1.863-8.499-2.108-12.223-1.555 4.511-.228 9.645 4.653 10.395 7.587v.003c1.014 2.614.308 6.327-1.502 9.421v.005l-.079.131-.063.105c-3.189 5.279-8.649 11.865-12.885 11.661Z"/><g clip-path="url(#j)"><path fill="#ff7220" d="m12.7 53.842 8.895-30.27 29.638 8.71-8.895 30.27z"/></g><g clip-path="url(#k)"><path fill="none" stroke="#d74d36" stroke-width="2" d="M75.704 32.846a.516.516 0 0 0-.132.11c-.031.036-.025.043.017.022l.091-.045c.024-.012.033-.005.026.021a2.865 2.865 0 0 1-.183.525c-.238.51-.479 1.018-.724 1.524a3.45 3.45 0 0 1-.169.306c-.23.373-.385.797-.56 1.198-.129.296-.336.605-.477.926-.145.329-.336.623-.476.955-.034.08-.105.13-.139.203-.175.37-.389.71-.526 1.106a3.341 3.341 0 0 1-.266.585c-.012.02-.01.039.006.056l.079.084" vector-effect="non-scaling-stroke"/><path fill="none" stroke="#b1402e" stroke-width="2" d="M72.271 40.421c-1.122.421-2.237.86-3.345 1.316a.487.487 0 0 0-.084.045" vector-effect="non-scaling-stroke"/><path fill="none" stroke="#8c5440" stroke-width="2" d="m78.52 32.846-.14.017c-.023.002-.024.01-.005.021a12.672 12.672 0 0 1 3.84 3.61c.144.207.281.443.411.707a.08.08 0 0 0 .034.036l.032.018" vector-effect="non-scaling-stroke"/><path fill="none" stroke="#792f2f" stroke-width="2" d="M82.693 37.255v.061" vector-effect="non-scaling-stroke"/><path fill="none" stroke="#af2f27" stroke-width="2" d="M82.693 37.316a102.12 102.12 0 0 0-10.422 3.105" vector-effect="non-scaling-stroke"/><path fill="none" stroke="#395348" stroke-width="2" d="m82.699 32.846-.006 4.409" vector-effect="non-scaling-stroke"/><path fill="none" stroke="#273a36" stroke-width="2" d="M85.566 32.84c-1.304 2.098-2.312 4.423-2.868 6.834" vector-effect="non-scaling-stroke"/><path fill="none" stroke="#532329" stroke-width="2" d="M82.698 39.674a.61.61 0 0 1-.034-.184c.037-.692.057-1.385.059-2.078a.313.313 0 0 0-.03-.096" vector-effect="non-scaling-stroke"/><path fill="none" stroke="#783d30" stroke-width="2" d="m89.603 32.846.02.017c.011.009.013.02.005.032-.187.278-.104.476-.186.776-.115.426-.23.794-.345 1.104" vector-effect="non-scaling-stroke"/><path fill="none" stroke="#2a4130" stroke-width="2" d="m89.097 34.775-.005-.227c0-.034-.009-.036-.024-.006-.14.285-.228.607-.348.874-.188.416-.371.948-.499 1.271-.392.984-.749 1.869-1.116 2.97-.11.33-.326.844-.437 1.289-.07.283-.217.584-.26.906-.02.149-.093.261-.149.397-.077.187-.06.405-.132.612-.091.26-.152.58-.188.863a1.595 1.595 0 0 1-.12.437.865.865 0 0 0-.068.419c0 .012-.005.019-.017.02l-.017.002c-.012.002-.021.008-.025.02l-.072.187a.076.076 0 0 1-.044.044c-.149.059-.391.18-.551.157-.163-.023-.287-.07-.448-.061-.35.021-.654.133-.996.165-.225.021-.37.094-.622.009-.019-.006-.033-.001-.043.015l-.108.18c-.013.021-.019.019-.019-.006v-.023c.001-.031-.003-.033-.012-.004 0 .003-.002.006-.004.008-.01.016-.016.015-.018-.004l-.033-.322s-.002-.006-.006-.002l-.017.018" vector-effect="non-scaling-stroke"/><path fill="none" stroke="#573128" stroke-width="2" d="M82.698 44.986v-5.312" vector-effect="non-scaling-stroke"/><path fill="none" stroke="#a4745a" stroke-width="2" d="M91.654 32.846a.083.083 0 0 0-.038.07l.009 1.17c0 .067.034.108.1.121l1.549.31" vector-effect="non-scaling-stroke"/><path fill="none" stroke="#752f30" stroke-width="2" d="m93.273 34.517.217.855" vector-effect="non-scaling-stroke"/><path fill="none" stroke="#aa2e28" stroke-width="2" d="M93.49 35.372a.088.088 0 0 0-.003.021.03.03 0 0 1-.013.024c-2.283 1.748-3.789 3.983-4.518 6.705-.731 2.731-.354 5.259 1.131 7.587 1.078 1.688 2.666 2.98 4.514 3.76.044.018.082.007.113-.033" vector-effect="non-scaling-stroke"/><path fill="none" stroke="#df8350" stroke-width="2" d="M94.715 53.436a12.461 12.461 0 0 0 3.778 5.065" vector-effect="non-scaling-stroke"/><path fill="none" stroke="#702623" stroke-width="2" d="M98.493 58.501a.584.584 0 0 1-.171.042c-4.348-.159-8.225-1.791-10.832-5.368" vector-effect="non-scaling-stroke"/><path fill="none" stroke="#722c27" stroke-width="2" d="M87.489 53.175c-1.089-1.541-1.864-3.497-1.918-5.404" vector-effect="non-scaling-stroke"/><path fill="none" stroke="#75352c" stroke-width="2" d="M85.571 47.772c-.024-.918.051-1.848.225-2.791.66-3.581 2.004-6.843 3.301-10.206" vector-effect="non-scaling-stroke"/><path fill="none" stroke="#7eac80" stroke-width="2" d="M97.493 32.846a20.23 20.23 0 0 0-.056 2.203" vector-effect="non-scaling-stroke"/><path fill="none" stroke="#567360" stroke-width="2" d="M97.437 35.048a4.902 4.902 0 0 1-.383-.013 117.559 117.559 0 0 1-3.781-.518" vector-effect="non-scaling-stroke"/><path fill="none" stroke="#a07e57" stroke-width="2" d="m103.962 32.846.103.018" vector-effect="non-scaling-stroke"/><path fill="none" stroke="#496556" stroke-width="2" d="M104.066 32.864a17.152 17.152 0 0 1-4.531 1.896 8.189 8.189 0 0 1-2.097.288" vector-effect="non-scaling-stroke"/><path fill="none" stroke="#7d4538" stroke-width="2" d="m104.36 32.846-.295.018" vector-effect="non-scaling-stroke"/><path fill="none" stroke="#843e38" stroke-width="2" d="M107.605 32.846s.009.012.013.024a.022.022 0 0 1-.001.016 15.52 15.52 0 0 0-1.194 4.856" vector-effect="non-scaling-stroke"/><path fill="none" stroke="#8b8153" stroke-width="2" d="M106.423 37.742c-4.29.344-8.264 2.375-10.654 6.021" vector-effect="non-scaling-stroke"/><path fill="none" stroke="#532329" stroke-width="2" d="M95.769 43.763a.089.089 0 0 0-.046-.001c-.015.003-.021-.003-.02-.018a1.114 1.114 0 0 0-.055-.454.112.112 0 0 1-.004-.06.677.677 0 0 0-.028-.326c-.051-.169-.064-.448-.111-.653a27.796 27.796 0 0 0-.721-2.651 67.387 67.387 0 0 1-1.264-4.183.117.117 0 0 0-.029-.046" vector-effect="non-scaling-stroke"/><path fill="none" stroke="#9f6e51" stroke-width="2" d="m133.721 32.846-.084.02c-.023.005-.03.019-.02.041 1.478 3.367 1.752 6.961.806 10.517-.049.182-.166.481-.353.896a.057.057 0 0 0 .006.06l.027.039" vector-effect="non-scaling-stroke"/><path fill="none" stroke="#925853" stroke-width="2" d="M134.102 44.419c-.257.552-.51 1.177-.762 1.659a13.797 13.797 0 0 1-2.212 3.101" vector-effect="non-scaling-stroke"/><path fill="none" stroke="#843e38" stroke-width="2" d="M131.128 49.18c-2.614 2.583-5.772 3.986-9.473 4.21-.014 0-.025.011-.033.031" vector-effect="non-scaling-stroke"/><path fill="none" stroke="#ee8f52" stroke-width="2" d="M121.621 53.42c-5.805.237-11.032-2.843-13.68-7.991" vector-effect="non-scaling-stroke"/><path fill="none" stroke="#f09457" stroke-width="2" d="M107.941 45.429a14.963 14.963 0 0 1-1.533-6.016c-.013-.315-.008-.872.015-1.671" vector-effect="non-scaling-stroke"/><path fill="none" stroke="#578072" stroke-width="2" d="M140.363 32.846a19.936 19.936 0 0 1-2.74 7.41" vector-effect="non-scaling-stroke"/><path fill="none" stroke="#51796c" stroke-width="2" d="M137.623 40.255a16.426 16.426 0 0 1-3.443 4.06.612.612 0 0 0-.078.103" vector-effect="non-scaling-stroke"/><path fill="none" stroke="#925652" stroke-width="2" d="m154.892 32.846.031.02c.014.009.015.02.001.031-.152.124-.301.25-.446.38a1139.341 1139.341 0 0 0-6.014 5.42" vector-effect="non-scaling-stroke"/><path fill="none" stroke="#374e59" stroke-width="2" d="M148.464 38.697c-2.093.18-4.088.664-5.987 1.454a16.158 16.158 0 0 0-2.956 1.62" vector-effect="non-scaling-stroke"/><path fill="none" stroke="#476a75" stroke-width="2" d="M139.521 41.771c-.011-.016-.025-.021-.04-.016-.011.004-.02 0-.027-.01l-.032-.051a.062.062 0 0 0-.043-.029c-.137-.024-.23-.139-.328-.204-.11-.073-.159-.172-.266-.241-.262-.167-.337-.443-.524-.664a.07.07 0 0 0-.047-.024.183.183 0 0 1-.139-.08.136.136 0 0 0-.05-.042.353.353 0 0 1-.176-.183c-.009-.021-.024-.028-.046-.022l-.181.051" vector-effect="non-scaling-stroke"/><path fill="none" stroke="#7d2c24" stroke-width="2" d="M156.037 41.421a1.022 1.022 0 0 0-.421-.142c-.016-.002-.025.005-.028.021a2.988 2.988 0 0 1-.176.64c-.192.481.152.804.624.661" vector-effect="non-scaling-stroke"/><path fill="none" stroke="#eb905d" stroke-width="2" d="M156.036 44.657c-3.856-.011-7.713-.009-11.569.005-.185 0-.37.007-.555.02" vector-effect="non-scaling-stroke"/><path fill="none" stroke="#ea854b" stroke-width="2" d="M143.912 44.682h-.398" vector-effect="non-scaling-stroke"/><path fill="none" stroke="#a36c51" stroke-width="2" d="m143.514 44.682-.512.019" vector-effect="non-scaling-stroke"/><path fill="none" stroke="#e74d3a" stroke-width="2" d="M143.002 44.701a9.175 9.175 0 0 0-.966.007c-.058.004-.094-.012-.145-.031" vector-effect="non-scaling-stroke"/><path fill="none" stroke="#803431" stroke-width="2" d="m141.892 44.677 6.572-5.98" vector-effect="non-scaling-stroke"/><path fill="none" stroke="#202f27" stroke-width="2" d="m85.571 47.772-.153.33a.082.082 0 0 1-.042.042 1.165 1.165 0 0 1-.343.096 69.68 69.68 0 0 0-1.118.144.087.087 0 0 1-.057-.01 1.16 1.16 0 0 0-.296-.11c-.201-.046-.381.047-.617-.04a.05.05 0 0 1-.032-.034l-.015-.049c-.005-.016-.016-.023-.032-.02l-.059.011c-.013.002-.019-.003-.019-.015v-.02c0-.029-.008-.032-.025-.008a.142.142 0 0 0-.012.025c-.002.005-.005.006-.009.002l-.011-.011c-.009-.009-.015-.008-.019.004-.003.009-.007.014-.013.015" vector-effect="non-scaling-stroke"/><path fill="none" stroke="#552923" stroke-width="2" d="M82.698 48.124v-3.138" vector-effect="non-scaling-stroke"/><path fill="none" stroke="#be7947" stroke-width="2" d="M95.769 43.763c-1.658 2.577-2.143 5.377-1.454 8.402.056.247.19.67.4 1.271" vector-effect="non-scaling-stroke"/><path fill="none" stroke="#51201e" stroke-width="2" d="M82.698 48.124v.331" vector-effect="non-scaling-stroke"/><path fill="none" stroke="#6f5241" stroke-width="2" d="M82.699 48.454a11.001 11.001 0 0 1-3.046 3.011c-2.144 1.432-4.496 2.087-7.056 1.966-.145-.007-1.393-.068-1.427-.115a.03.03 0 0 0-.013-.009l-1.101-.233a.022.022 0 0 1-.017-.015c-.004-.013-.01-.02-.019-.022a4.934 4.934 0 0 1-1.102-.333.145.145 0 0 1-.045-.033l-.031-.036" vector-effect="non-scaling-stroke"/><path fill="none" stroke="#f7d36d" stroke-width="2" d="m107.941 45.429-.162.181a.087.087 0 0 0-.024.057c-.049.81-.031 1.617-.015 2.427.049 2.429-.077 4.884.047 7.307.002.031.014.036.039.017a.085.085 0 0 0 .023-.029.086.086 0 0 1 .045-.041.135.135 0 0 0 .086-.096.14.14 0 0 1 .023-.053 1.23 1.23 0 0 0 .16-.32.114.114 0 0 1 .036-.053c.118-.096.251-.164.399-.205a.099.099 0 0 0 .047-.028c.099-.097.198-.118.296-.064.051.028.096.091.134.188.05.129.133.239.137.389.002.062.008.118.018.17.041.205.002 1-.355.903" vector-effect="non-scaling-stroke"/><path fill="none" stroke="#877845" stroke-width="2" d="M108.874 56.18c.381-.453.279-1.028.066-1.534a.072.072 0 0 0-.091-.04c-.638.228-.937.696-.898 1.406" vector-effect="non-scaling-stroke"/><path fill="none" stroke="#f7d36d" stroke-width="2" d="M107.951 56.011a.238.238 0 0 0-.145.044.06.06 0 0 0-.03.051 17.1 17.1 0 0 0-.027.961l.008 4.463c0 .02.009.034.026.043.501.258 1.206.187 1.741.076.002 0 .004-.002.005-.005l.005-.015c.002-.008.007-.012.015-.012.278.001.588-.023.93-.073a14.513 14.513 0 0 0 3.03-.778c.491-.185 1.097-.474 1.82-.867.033-.018.138-.065.315-.142.204-.088.359-.248.532-.347.221-.126.405-.22.607-.389.239-.201.495-.372.723-.585a7.63 7.63 0 0 1 .482-.415c.014-.011.028-.011.043-.001.05.034.059.088.028.162" vector-effect="non-scaling-stroke"/><path fill="none" stroke="#843e38" stroke-width="2" d="M141.892 44.677a.045.045 0 0 0-.02.004c-.016.006-.022.017-.017.034 1.699 6.209 7.892 9.912 14.14 9.335.01 0 .019.001.028.007l.015.011" vector-effect="non-scaling-stroke"/><path fill="none" stroke="#496556" stroke-width="2" d="M156.036 55.521c-2.835.048-5.314-.022-8.664.014" vector-effect="non-scaling-stroke"/><path fill="none" stroke="#567360" stroke-width="2" d="M147.372 55.535h-10.073" vector-effect="non-scaling-stroke"/><path fill="none" stroke="#718168" stroke-width="2" d="M137.299 55.535h-.811" vector-effect="non-scaling-stroke"/><path fill="none" stroke="#567360" stroke-width="2" d="M136.488 55.535h-1.15c-.021 0-.03.01-.026.031.982 5.965 6.103 10.043 11.999 10.404" vector-effect="non-scaling-stroke"/><path fill="none" stroke="#314654" stroke-width="2" d="M132.934 64.519a23.47 23.47 0 0 1-.043-1.684l.001-9.809c.001-1.334.179-2.551.683-3.789 1.224-3.014 3.207-5.592 5.947-7.466M131.253 64.654c.006-.127.009-.254.009-.38.004-4.557.006-9.114.006-13.67 0-.374-.047-.849-.14-1.424" vector-effect="non-scaling-stroke"/><path fill="none" stroke="#f7d979" stroke-width="2" d="M156.036 50.546c-.201.017-.365.02-.49.011a19.959 19.959 0 0 1-2.322-.303c-2.988-.604-5.607-1.947-7.857-4.029-.205-.19-.605-.622-1.2-1.296a3.13 3.13 0 0 0-.255-.247" vector-effect="non-scaling-stroke"/><path fill="none" stroke="#a87657" stroke-width="2" d="M143.002 44.701c.282.584.646 1.048 1.056 1.561 1.956 2.449 4.912 4.195 7.917 4.99 1.249.33 2.585.509 4.006.535.021 0 .033-.01.038-.031l.017-.078" vector-effect="non-scaling-stroke"/><path fill="none" stroke="#b1b66c" stroke-width="2" d="M143.514 44.682c.729 1.044 1.474 1.909 2.237 2.597a15.395 15.395 0 0 0 10.285 3.956" vector-effect="non-scaling-stroke"/><path fill="none" stroke="#8a7d4c" stroke-width="2" d="M121.621 53.42c-.861 1.811-2.048 3.465-3.562 4.761" vector-effect="non-scaling-stroke"/><path fill="none" stroke="#86733f" stroke-width="2" d="M107.951 56.011c.243.38.55.437.923.169" vector-effect="non-scaling-stroke"/><path fill="none" stroke="#191f1d" stroke-width="2" d="M87.489 53.175c-.033.039-.028.072.014.1.016.01.022.024.021.043l-.008.079c-.002.023.007.04.029.05.034.015.057.04.068.075.007.022 0 .038-.02.048a.429.429 0 0 0-.2.208c-.009.02-.003.035.017.045l.181.083c.022.01.024.024.006.04-.129.119-.217.288-.448.281-.007 0-.008.002-.002.006l.021.018s.004.008-.002.01l-.017.006c-.018.007-.017.01.002.01h.028c.02 0 .034.009.043.028.038.084.109.12.214.107a3.541 3.541 0 0 1-.4.04.05.05 0 0 0-.044.026c-.03.05-.074.06-.132.029a.12.12 0 0 0-.059-.015 6.829 6.829 0 0 0-1.561.167c-.066.015-.175.002-.223.02a2.084 2.084 0 0 1-.473.11c-.112.012-.249-.05-.363-.004-.212.086-.339.028-.511.034-.212.007-.424.011-.636.011a.073.073 0 0 1-.051-.02c-.013-.012-.029-.016-.048-.012-.091.021-.094.017-.009-.012l.021-.007c.007-.002.007-.005 0-.008a.358.358 0 0 1-.148-.127c-.024-.036-.054-.036-.089 0" vector-effect="non-scaling-stroke"/><path fill="none" stroke="#3e5a45" stroke-width="2" d="m82.713 54.645-.014-6.191" vector-effect="non-scaling-stroke"/><path fill="none" stroke="#3b5341" stroke-width="2" d="m82.713 54.645-.015 6.169a.03.03 0 0 0 .02.028 22.72 22.72 0 0 0 4.875 1.046" vector-effect="non-scaling-stroke"/><path fill="none" stroke="#9f6e51" stroke-width="2" d="m81.976 76.824-.029-.072a.077.077 0 0 1-.001-.056c.093-.258.185-.561.276-.91.473-1.828.687-3.743.539-5.613-.588-7.473-6.394-13.042-13.919-13.312" vector-effect="non-scaling-stroke"/><path fill="none" stroke="#7eac80" stroke-width="2" d="M147.372 55.535c.014.085-.031.143-.031.222.006 1.554.002 3.114-.012 4.678" vector-effect="non-scaling-stroke"/><path fill="none" stroke="#a6c990" stroke-width="2" d="M147.33 60.435c-3.867.024-7.572-1.623-9.926-4.715a1.015 1.015 0 0 1-.105-.184" vector-effect="non-scaling-stroke"/><path fill="none" stroke="#99bb86" stroke-width="2" d="M156.036 56.96c-2.353 2.158-5.483 3.499-8.707 3.475" vector-effect="non-scaling-stroke"/><path fill="none" stroke="#a6c990" stroke-width="2" d="M136.488 55.535c2.162 3.379 6.228 5.403 10.195 5.532.214.007.429.015.643.025" vector-effect="non-scaling-stroke"/><path fill="none" stroke="#99bb86" stroke-width="2" d="M156.032 57.826c-2.507 2.103-5.409 3.191-8.706 3.266" vector-effect="non-scaling-stroke"/><path fill="#ea5e18" d="M68.842 32.846h6.862a.516.516 0 0 0-.132.11c-.031.036-.025.043.017.022l.091-.045c.024-.012.033-.005.026.021a2.865 2.865 0 0 1-.183.525c-.238.51-.479 1.018-.724 1.524a3.45 3.45 0 0 1-.169.306c-.23.373-.385.797-.56 1.198-.129.296-.336.605-.477.926-.145.329-.336.623-.476.955-.034.08-.105.13-.139.203-.175.37-.389.71-.526 1.106a3.341 3.341 0 0 1-.266.585c-.012.02-.01.039.006.056l.079.084c-1.122.421-2.237.86-3.345 1.316a.487.487 0 0 0-.084.045v-8.936Z"/><path fill="#fc651a" d="M75.704 32.846h2.817l-.14.017c-.023.002-.024.01-.005.021a12.672 12.672 0 0 1 3.84 3.61c.144.207.281.443.411.707a.08.08 0 0 0 .034.036l.032.018v.061a102.12 102.12 0 0 0-10.422 3.105l-.079-.084c-.016-.017-.018-.036-.006-.056.108-.188.196-.383.266-.585.137-.397.351-.736.526-1.106.034-.073.105-.122.139-.203.14-.332.331-.626.476-.955.141-.321.348-.63.477-.926.175-.4.331-.825.56-1.198.066-.107.122-.208.169-.306.245-.506.487-1.014.724-1.524.078-.169.139-.344.183-.525.007-.026-.002-.033-.026-.021l-.091.045c-.042.021-.048.013-.017-.022a.516.516 0 0 1 .132-.11Z"/><path fill="#517a59" d="M78.52 32.846h4.179l-.006 4.409-.032-.018a.084.084 0 0 1-.034-.036 5.538 5.538 0 0 0-.411-.707 12.66 12.66 0 0 0-3.84-3.61c-.02-.012-.018-.019.005-.021l.14-.017Z"/><path fill="#d0ce56" d="m82.699 32.846 2.867-.007c-1.304 2.098-2.312 4.423-2.868 6.834a.61.61 0 0 1-.034-.184c.037-.692.057-1.385.059-2.078a.313.313 0 0 0-.03-.096v-.061l.006-4.409Z"/><path fill="#3c602f" d="m85.566 32.84 4.037.007.02.017c.011.009.013.02.005.032-.187.278-.104.476-.186.776-.115.426-.23.794-.345 1.104l-.005-.227c0-.034-.009-.036-.024-.006-.14.285-.228.607-.348.874-.188.416-.371.948-.499 1.271-.392.984-.749 1.869-1.116 2.97-.11.33-.326.844-.437 1.289-.07.283-.217.584-.26.906-.02.149-.093.261-.149.397-.077.187-.06.405-.132.612-.091.26-.152.58-.188.863a1.595 1.595 0 0 1-.12.437.865.865 0 0 0-.068.419c0 .012-.005.019-.017.02l-.017.002c-.012.002-.021.008-.025.02l-.072.187a.076.076 0 0 1-.044.044c-.149.059-.391.18-.551.157-.163-.023-.287-.07-.448-.061-.35.021-.654.133-.996.165-.225.021-.37.094-.622.009-.019-.006-.033-.001-.043.015l-.108.18c-.013.021-.019.019-.019-.006v-.023c.001-.031-.003-.033-.012-.004 0 .003-.002.006-.004.008-.01.016-.016.015-.018-.004l-.033-.322s-.002-.006-.006-.002l-.017.018v-5.312c.557-2.411 1.564-4.736 2.868-6.834Z"/><path fill="#52217d" d="M89.603 32.846h2.051a.083.083 0 0 0-.038.07l.009 1.17c0 .067.034.108.1.121l1.549.31.217.855a.088.088 0 0 0-.003.021.03.03 0 0 1-.013.024c-2.283 1.748-3.789 3.983-4.518 6.705-.731 2.731-.354 5.259 1.131 7.587 1.078 1.688 2.666 2.98 4.514 3.76.044.018.082.007.113-.033a12.461 12.461 0 0 0 3.778 5.065.584.584 0 0 1-.171.042c-4.348-.159-8.225-1.791-10.832-5.368-1.089-1.541-1.864-3.497-1.918-5.404-.024-.918.051-1.848.225-2.791.66-3.581 2.004-6.843 3.301-10.206.115-.31.23-.678.345-1.104.082-.301-.001-.498.186-.776.008-.012.007-.022-.005-.032l-.02-.017Z"/><path fill="#8aba89" d="M91.654 32.846h5.838a20.212 20.212 0 0 0-.056 2.202 4.902 4.902 0 0 1-.383-.013 117.559 117.559 0 0 1-3.781-.518l-1.549-.31c-.066-.013-.099-.054-.1-.121l-.009-1.17c0-.017.005-.032.014-.046a.136.136 0 0 1 .024-.024Z"/><path fill="#719e75" d="M97.493 32.846h6.469l.103.018a17.152 17.152 0 0 1-4.531 1.896 8.189 8.189 0 0 1-2.097.288c-.022-.736-.003-1.47.056-2.203Z"/><path fill="#d9613e" d="M103.962 32.846h.398l-.295.018-.103-.018Z"/><path fill="#d0ce56" d="M104.36 32.846h3.245s.009.012.013.024a.022.022 0 0 1-.001.016 15.52 15.52 0 0 0-1.194 4.856c-4.29.344-8.264 2.375-10.654 6.021a.089.089 0 0 0-.046-.001c-.015.003-.021-.003-.02-.018a1.114 1.114 0 0 0-.055-.454.112.112 0 0 1-.004-.06.677.677 0 0 0-.028-.326c-.051-.169-.064-.448-.111-.653a27.796 27.796 0 0 0-.721-2.651 67.387 67.387 0 0 1-1.264-4.183.117.117 0 0 0-.029-.046l-.217-.855c1.258.193 2.518.366 3.781.518.052.006.179.01.383.013.665 0 1.364-.096 2.097-.288a17.138 17.138 0 0 0 4.531-1.896l.295-.018Z"/><path fill="none" stroke="#588361" stroke-width="2" d="M120.531 34.03c.074.58.18 1.153.318 1.719.117.48.218.875.305 1.187.618 2.225 1.881 4.098 3.705 5.524l.623.488" vector-effect="non-scaling-stroke"/><path fill="#608d69" d="M133.721 32.846h6.642a19.925 19.925 0 0 1-2.74 7.409 16.426 16.426 0 0 1-3.443 4.06.612.612 0 0 0-.078.103l-.027-.039a.059.059 0 0 1-.006-.06c.187-.415.305-.713.353-.896.945-3.556.672-7.151-.806-10.517-.01-.022-.003-.036.02-.041l.084-.02Z"/><path fill="#d0ce56" d="M140.363 32.846h14.529l.031.021c.014.009.015.02.001.031-.152.124-.301.25-.446.38a1139.341 1139.341 0 0 0-6.014 5.42c-2.093.18-4.088.664-5.987 1.454a16.158 16.158 0 0 0-2.956 1.62c-.011-.016-.025-.021-.04-.016-.011.004-.02 0-.027-.01l-.032-.051a.062.062 0 0 0-.043-.029c-.137-.024-.23-.139-.328-.204-.11-.073-.159-.172-.266-.241-.262-.167-.337-.443-.524-.664a.07.07 0 0 0-.047-.024.183.183 0 0 1-.139-.08.136.136 0 0 0-.05-.042.353.353 0 0 1-.176-.183c-.009-.021-.024-.028-.046-.022l-.181.051a19.923 19.923 0 0 0 2.74-7.41Z"/><path fill="#ff7220" d="M154.892 32.846h1.144v8.574a1.013 1.013 0 0 0-.42-.142c-.016-.002-.025.005-.028.021a2.988 2.988 0 0 1-.176.64c-.192.481.152.804.624.661v2.056c-3.856-.011-7.713-.009-11.569.005-.185 0-.37.007-.555.02h-.398l-.512.019a9.175 9.175 0 0 0-.966.007c-.058.004-.094-.012-.145-.031l6.572-5.98c1.998-1.814 4.003-3.621 6.014-5.42.145-.13.294-.257.446-.38.013-.011.013-.021-.001-.031l-.031-.02Z"/><path fill="#3c602f" d="M89.097 34.775c-1.297 3.363-2.641 6.624-3.301 10.206a13.55 13.55 0 0 0-.225 2.791l-.153.33a.082.082 0 0 1-.042.042 1.165 1.165 0 0 1-.343.096 69.68 69.68 0 0 0-1.118.144.087.087 0 0 1-.057-.01 1.16 1.16 0 0 0-.296-.11c-.201-.046-.381.047-.617-.04a.05.05 0 0 1-.032-.034l-.015-.049c-.005-.016-.016-.023-.032-.02l-.059.011c-.013.002-.019-.003-.019-.015v-.02c0-.029-.008-.032-.025-.008a.142.142 0 0 0-.012.025c-.002.005-.005.006-.009.002l-.011-.011c-.009-.009-.015-.008-.019.004-.003.009-.007.014-.013.015v-3.138l.017-.018s.005-.003.006.002l.033.322c.002.019.008.021.018.004l.004-.008c.009-.029.013-.028.012.004v.023c0 .025.006.027.019.006l.108-.18c.01-.016.025-.021.043-.015.252.084.396.012.622-.009.342-.032.646-.144.996-.165.162-.01.285.038.448.061.16.023.402-.099.551-.157a.074.074 0 0 0 .044-.044l.072-.187a.03.03 0 0 1 .025-.02l.017-.002c.012-.002.017-.008.017-.02a.865.865 0 0 1 .068-.419c.061-.141.101-.287.12-.437.036-.282.097-.603.188-.863.072-.207.055-.425.132-.612.056-.135.129-.248.149-.397.043-.322.19-.623.26-.906.111-.445.327-.959.437-1.289.367-1.102.724-1.986 1.116-2.97.128-.322.311-.854.499-1.271.121-.267.208-.59.348-.874.015-.031.023-.029.024.006l.005.227Z"/><path fill="#ff7220" d="M93.49 35.372a.117.117 0 0 1 .029.046 68.291 68.291 0 0 0 1.264 4.183c.251.754.492 1.638.721 2.651.047.205.059.484.111.653a.664.664 0 0 1 .028.326.112.112 0 0 0 .004.06c.05.149.069.3.055.454-.001.015.006.021.02.018a.089.089 0 0 1 .046.001c-1.658 2.577-2.143 5.377-1.454 8.402.056.247.19.67.4 1.271-.031.04-.069.051-.113.033-1.848-.78-3.436-2.071-4.514-3.76-1.485-2.327-1.862-4.856-1.131-7.587.729-2.722 2.235-4.957 4.518-6.705a.032.032 0 0 0 .013-.024l.003-.021Z"/><circle cx="98.286" cy="37.371" r=".827" fill="#f2e0b8"/><path fill="#ff7220" d="M82.693 37.316c.02.047.03.078.03.096a41.148 41.148 0 0 1-.059 2.078c-.002.039.009.1.034.184v8.781a10.98 10.98 0 0 1-3.044 3.011c-2.144 1.432-4.496 2.087-7.056 1.966-.145-.007-1.393-.068-1.427-.115a.03.03 0 0 0-.013-.009l-1.101-.233a.022.022 0 0 1-.017-.015c-.004-.013-.01-.02-.019-.022a4.934 4.934 0 0 1-1.102-.333.145.145 0 0 1-.045-.033l-.031-.036V41.783a.487.487 0 0 1 .084-.045c1.108-.456 2.223-.895 3.345-1.316a102.195 102.195 0 0 1 10.422-3.105Z"/><path fill="#f0963f" d="M106.423 37.742a26.359 26.359 0 0 0-.015 1.671c.091 2.115.602 4.12 1.533 6.016l-.162.181a.087.087 0 0 0-.024.057c-.049.81-.031 1.617-.015 2.427.049 2.429-.077 4.884.047 7.307.002.031.014.036.039.017a.085.085 0 0 0 .023-.029.086.086 0 0 1 .045-.041.135.135 0 0 0 .086-.096.14.14 0 0 1 .023-.053 1.23 1.23 0 0 0 .16-.32.114.114 0 0 1 .036-.053c.118-.096.251-.164.399-.205a.099.099 0 0 0 .047-.028c.099-.097.198-.118.296-.064.051.028.096.091.134.188.05.129.133.239.137.389.002.062.008.118.018.17.041.205.002 1-.355.903.381-.453.279-1.028.066-1.534a.072.072 0 0 0-.091-.04c-.638.228-.937.696-.898 1.406a.238.238 0 0 0-.145.044.06.06 0 0 0-.03.051 17.1 17.1 0 0 0-.027.961l.008 4.463c0 .02.009.034.026.043.501.258 1.206.187 1.741.076.002 0 .004-.002.005-.005l.005-.015c.002-.008.007-.012.015-.012.278.001.588-.023.93-.073a14.513 14.513 0 0 0 3.03-.778c.491-.185 1.097-.474 1.82-.867.033-.018.138-.065.315-.142.204-.088.359-.248.532-.347.221-.126.405-.22.607-.389.239-.201.495-.372.723-.585a7.63 7.63 0 0 1 .482-.415c.014-.011.028-.011.043-.001.05.034.059.088.028.162-4.434 3.85-10.584 4.648-15.984 2.493a20.669 20.669 0 0 1-2.235-1.174 18.277 18.277 0 0 1-1.348-.999 12.461 12.461 0 0 1-3.778-5.065c-.211-.6-.344-1.024-.4-1.271-.689-3.024-.204-5.825 1.454-8.402 2.39-3.646 6.364-5.677 10.654-6.021Z"/><path fill="#3c602f" d="m148.464 38.697-6.572 5.98a.045.045 0 0 0-.02.004c-.016.006-.022.017-.017.034 1.699 6.209 7.892 9.912 14.14 9.335.01 0 .019.001.028.007l.015.011v1.454c-2.835.048-5.314-.022-8.664.014H135.34c-.021 0-.03.01-.026.031.982 5.965 6.103 10.043 11.999 10.404 2.715.133 5.139-.486 7.548-1.663-3.68 2.858-5.71 7.309-5.655 11.951l-.745-.026a15.222 15.222 0 0 0-2.572.151c-.476.073-.803.12-.98.14-1.07-.019-2.14-.025-3.21-.018-.064 0-.133-.02-.204-.017-.34-.211-.68-.423-1.018-.636-3.665-2.313-6.297-5.937-7.32-10.15-.087-.359-.143-.789-.222-1.182a23.47 23.47 0 0 1-.043-1.684l.001-9.809c.001-1.334.179-2.551.683-3.789 1.224-3.014 3.207-5.592 5.947-7.466a16.125 16.125 0 0 1 2.956-1.62 19.897 19.897 0 0 1 5.987-1.454Z"/><path fill="#bcb750" d="M139.521 41.771c-2.74 1.874-4.723 4.452-5.947 7.466-.503 1.238-.682 2.455-.683 3.789-.002 3.269-.002 6.539-.001 9.809 0 .758.015 1.32.043 1.684l-.184.153-1.498-.018c.006-.127.009-.254.009-.38.004-4.557.006-9.114.006-13.67 0-.374-.047-.849-.14-1.424a13.788 13.788 0 0 0 2.212-3.101c.252-.483.506-1.107.762-1.659a.57.57 0 0 1 .078-.103 16.444 16.444 0 0 0 3.443-4.06l.181-.051c.022-.006.037.001.046.022a.35.35 0 0 0 .176.183.12.12 0 0 1 .05.042.183.183 0 0 0 .139.08c.019.002.034.01.047.024.187.22.262.497.524.664.107.069.156.168.266.241.099.065.191.18.328.204a.063.063 0 0 1 .043.029l.032.051c.007.011.016.014.027.01.015-.005.028 0 .04.016Z"/><path fill="#f9e58b" d="M156.036 44.657v5.889c-.201.017-.365.02-.49.011a19.959 19.959 0 0 1-2.322-.303c-2.988-.604-5.607-1.947-7.857-4.029-.205-.19-.605-.622-1.2-1.296a3.13 3.13 0 0 0-.255-.247 8.55 8.55 0 0 1 .555-.02c3.856-.014 7.713-.016 11.569-.005Z"/><path fill="#eb563f" d="M141.892 44.677c.051.019.088.034.145.031.327-.019.649-.021.966-.007.282.584.646 1.048 1.056 1.561 1.956 2.449 4.912 4.195 7.917 4.99 1.249.33 2.585.509 4.006.535.021 0 .033-.01.038-.031l.017-.078v2.388l-.015-.011a.047.047 0 0 0-.028-.007c-6.248.577-12.44-3.126-14.14-9.335-.004-.016.001-.028.017-.034.007-.002.013-.004.02-.004Z"/><path fill="#ff7220" d="M143.514 44.682c.729 1.044 1.474 1.909 2.237 2.597a15.395 15.395 0 0 0 10.285 3.956v.444l-.017.078c-.004.021-.017.031-.038.031a16.895 16.895 0 0 1-4.006-.535c-3.005-.795-5.961-2.541-7.917-4.99-.41-.513-.774-.977-1.056-1.561l.512-.019Z"/><path fill="#fc651a" d="M143.514 44.682h.398c.111.098.196.18.255.247.595.674.995 1.106 1.2 1.296 2.25 2.082 4.869 3.425 7.857 4.029.731.148 1.58.247 2.322.303.125.009.289.006.49-.011v.689a15.399 15.399 0 0 1-10.285-3.956c-.763-.687-1.509-1.553-2.237-2.597Z"/><path fill="#e88a3d" d="M107.941 45.429c2.648 5.148 7.876 8.228 13.68 7.991-.861 1.811-2.048 3.465-3.562 4.761.032-.074.023-.128-.028-.162-.015-.01-.029-.01-.043.001a7.971 7.971 0 0 0-.482.415c-.228.213-.484.384-.723.585-.203.17-.386.263-.607.389-.173.099-.328.258-.532.347a6.541 6.541 0 0 0-.315.142c-.723.393-1.33.682-1.82.867-.958.362-1.968.622-3.03.778-.341.05-.651.075-.93.073-.008 0-.013.004-.015.012l-.005.015c0 .002-.002.004-.005.005-.535.111-1.239.182-1.741-.076-.018-.009-.026-.023-.026-.043l-.008-4.463c0-.32.009-.641.027-.961a.06.06 0 0 1 .03-.051.238.238 0 0 1 .145-.044c.243.38.55.437.923.169.356.097.396-.698.355-.903a.878.878 0 0 1-.018-.17c-.004-.149-.086-.26-.137-.389-.038-.097-.083-.16-.134-.188-.098-.054-.197-.033-.296.064a.118.118 0 0 1-.047.028c-.148.041-.281.11-.399.205a.11.11 0 0 0-.036.053 1.245 1.245 0 0 1-.16.32.148.148 0 0 0-.023.053.133.133 0 0 1-.086.096.09.09 0 0 0-.045.041.095.095 0 0 1-.023.029c-.024.019-.037.013-.039-.017-.124-2.424.002-4.878-.047-7.307-.016-.81-.034-1.617.015-2.427a.087.087 0 0 1 .024-.057l.162-.181Z"/><path fill="#3c602f" d="M85.571 47.772c.054 1.907.83 3.863 1.918 5.404-.033.039-.028.072.014.1.016.01.022.024.021.043l-.008.079c-.002.023.007.04.029.05.034.015.057.04.068.075.007.022 0 .038-.02.048a.429.429 0 0 0-.2.208c-.009.02-.003.035.017.045l.181.083c.022.01.024.024.006.04-.129.119-.217.288-.448.281-.007 0-.008.002-.002.006l.021.018s.004.008-.002.01l-.017.006c-.018.007-.017.01.002.01h.028c.02 0 .034.009.043.028.038.084.109.12.214.107a3.541 3.541 0 0 1-.4.04.05.05 0 0 0-.044.026c-.03.05-.074.06-.132.029a.12.12 0 0 0-.059-.015 6.829 6.829 0 0 0-1.561.167c-.066.015-.175.002-.223.02a2.084 2.084 0 0 1-.473.11c-.112.012-.249-.05-.363-.004-.212.086-.339.028-.511.034-.212.007-.424.011-.636.011a.073.073 0 0 1-.051-.02c-.013-.012-.029-.016-.048-.012-.091.021-.094.017-.009-.012l.021-.007c.007-.002.007-.005 0-.008a.358.358 0 0 1-.148-.127c-.024-.036-.054-.036-.089 0l-.014-6.191v-.331s.009-.007.012-.015c.004-.012.01-.013.019-.004l.011.011s.007.003.009-.002a.115.115 0 0 1 .012-.025c.017-.024.025-.021.025.008v.02c0 .013.006.018.019.015l.059-.011c.016-.003.027.003.032.02l.015.049a.052.052 0 0 0 .032.034c.236.087.416-.006.617.04.103.023.202.06.296.11a.094.094 0 0 0 .057.01 69.68 69.68 0 0 1 1.118-.144c.121-.015.236-.047.343-.096a.086.086 0 0 0 .042-.042l.153-.33Z"/><path fill="#d0ce56" d="m82.699 48.454.014 6.191-.015 6.169a.03.03 0 0 0 .02.028 22.72 22.72 0 0 0 4.875 1.046c-.004.078-.019.144-.012.222.419 4.708-.908 9.484-3.977 13.114-.331.391-.874.925-1.629 1.6l-.029-.072a.077.077 0 0 1-.001-.056c.093-.258.185-.561.276-.91.473-1.828.687-3.743.539-5.613-.588-7.473-6.394-13.042-13.919-13.312v-4.225l.031.036a.145.145 0 0 0 .045.033c.354.154.722.265 1.102.333.009.002.015.009.019.022.002.009.008.014.017.015l1.101.233c.006.001.01.004.013.009.034.047 1.283.108 1.427.115 2.561.121 4.913-.534 7.056-1.966a11.001 11.001 0 0 0 3.046-3.011Z"/><path fill="#52217d" d="M131.128 49.18c.093.575.14 1.049.14 1.424 0 4.556-.001 9.113-.006 13.67 0 .127-.003.253-.009.38l-.027.002-13.199-.002-.036-.464c-.039-.556-.707-.827-1.126-.473-.314.265-.227.577-.339.937l-7.96.005-6.876-.002c.007-1.34.136-2.668.386-3.983 5.4 2.155 11.55 1.358 15.984-2.493 1.514-1.296 2.701-2.95 3.562-4.761.008-.02.019-.03.033-.031 3.701-.223 6.859-1.627 9.473-4.21Z"/><path fill="#f2e0b8" d="M136.556 50.681c-.384.124-.911-.216-.831-.655.097-.528.719-.784 1.209-.808.118-.005.186.043.205.146.086.479-.069 1.151-.582 1.317ZM156.34 42.288c-.127.383-.714.606-1.02.282-.369-.391-.207-1.044.064-1.452.066-.098.145-.124.239-.079.437.214.887.737.717 1.249Z"/><path fill="#3c602f" d="M87.489 53.175c2.607 3.577 6.484 5.209 10.832 5.368a.612.612 0 0 0 .171-.042c.431.353.881.686 1.348.999-3.851 1.913-7.934 2.709-12.246 2.388a22.694 22.694 0 0 1-4.875-1.046.03.03 0 0 1-.02-.028l.015-6.169c.036-.037.065-.037.089 0a.364.364 0 0 0 .148.127c.007.003.006.006 0 .008l-.021.007c-.085.029-.082.033.009.012a.051.051 0 0 1 .048.012c.014.013.031.02.051.02.212 0 .424-.004.636-.011.172-.006.298.052.511-.034.115-.047.251.016.363.004.161-.018.319-.054.473-.11.048-.017.157-.005.223-.02a6.829 6.829 0 0 1 1.561-.167c.021 0 .04.005.059.015.058.031.102.021.132-.029a.049.049 0 0 1 .044-.026c.135-.006.269-.019.4-.04-.105.013-.177-.023-.214-.107-.009-.018-.023-.028-.043-.028h-.028c-.019 0-.019-.003-.002-.01l.017-.006c.006-.002.007-.006.002-.01l-.021-.018c-.005-.004-.004-.007.002-.006.23.007.318-.162.448-.281.018-.017.016-.03-.006-.04l-.181-.083c-.02-.009-.026-.024-.017-.045a.42.42 0 0 1 .2-.208c.02-.011.027-.027.02-.048a.113.113 0 0 0-.068-.075c-.022-.01-.031-.026-.029-.05l.008-.079a.042.042 0 0 0-.021-.043c-.042-.028-.047-.061-.014-.1Z"/><path fill="#e88a3d" d="M108.874 56.18c-.372.268-.68.211-.923-.169-.039-.709.26-1.178.898-1.406a.073.073 0 0 1 .091.04c.213.506.315 1.082-.066 1.534Z"/><path fill="#8aba89" d="M147.372 55.535c.014.085-.031.143-.031.222.006 1.554.002 3.114-.012 4.678-3.867.024-7.572-1.623-9.926-4.715a1.015 1.015 0 0 1-.105-.184h10.073Z"/><path fill="#719e75" d="M156.036 55.521v1.439c-2.353 2.158-5.483 3.499-8.707 3.475.013-1.564.017-3.123.012-4.678 0-.08.045-.137.031-.222 3.35-.036 5.829.034 8.664-.014Z"/><path fill="#8aba89" d="M136.488 55.535c2.162 3.379 6.228 5.403 10.195 5.532.214.007.429.015.643.025l.01 4.841a.03.03 0 0 1-.008.02l-.018.018c-5.896-.361-11.017-4.439-11.999-10.404-.004-.021.005-.031.026-.031h1.15Z"/><path fill="#c1d798" d="M136.488 55.535h.811c.036.078.071.139.105.184 2.354 3.093 6.059 4.74 9.926 4.715 3.224.024 6.353-1.316 8.707-3.475l-.004.866c-2.507 2.103-5.409 3.191-8.706 3.266-.214-.01-.429-.018-.643-.025-3.967-.129-8.033-2.153-10.195-5.532Z"/><path fill="#eb563f" d="M68.842 56.861c7.524.27 13.331 5.839 13.919 13.312.148 1.87-.066 3.785-.539 5.613-.09.349-.182.652-.276.91a.077.077 0 0 0 .001.056l.029.072a1.143 1.143 0 0 0-.231.417c-.101.329-.264.608-.443.978a13.69 13.69 0 0 1-2.619 3.675 14.472 14.472 0 0 1-2.404 1.858c-.015.009-.014.016.002.021l.058.019h-7.497v-8.729c.02.073.04.145.105.194 1.07.809 2.304 1.278 3.636 1.515l.24.054c.033.007.051-.006.054-.04.141-1.866.432-3.634-.543-5.355-.837-1.478-1.948-2.194-3.441-2.913-.016-.007-.027-.003-.034.013l-.018.041V56.861Z"/><path fill="#f5ce67" stroke="#f5ce67" stroke-miterlimit="10" stroke-width="3" d="M107.508 37.742h.223v24.006h-.223z"/><path fill="#f5ce67" stroke="#f5ce67" stroke-miterlimit="10" stroke-width="3" d="m98.579 40.931.179-.179L116.905 58.9l-.18.18z"/><path fill="#f5ce67" stroke="#f5ce67" stroke-miterlimit="10" stroke-width="3" d="m116.998 40.38.158.157-18.27 18.27-.158-.157z"/><path fill="#f5ce67" stroke="#f5ce67" stroke-miterlimit="10" stroke-width="3" d="M119.844 49.754v.223H94.006v-.223z"/><ellipse cx="108.076" cy="49.746" fill="none" stroke="#f5ce67" stroke-miterlimit="10" stroke-width="5" rx="14.07" ry="12.003"/><path fill="#ff7220" d="M107.605 32.846h26.115l-.084.02c-.023.005-.03.019-.02.041 1.478 3.367 1.752 6.961.806 10.517-.049.182-.166.481-.353.896a.057.057 0 0 0 .006.06l.027.039c-.257.552-.51 1.177-.762 1.659a13.797 13.797 0 0 1-2.212 3.101c-2.614 2.583-5.772 3.986-9.473 4.21-.014 0-.025.011-.033.031-5.805.237-11.032-2.843-13.68-7.991a14.963 14.963 0 0 1-1.533-6.016c-.013-.315-.008-.872.015-1.671a15.52 15.52 0 0 1 1.194-4.856.022.022 0 0 0 .001-.016c-.004-.012-.008-.02-.013-.024Z"/><path fill="#517a59" d="M120.632 40.132c.319.49.663.96 1.034 1.409.314.381.577.693.791.936 1.524 1.734 3.476 2.872 5.738 3.363l.774.168c-.392.072-.785.137-1.179.196-2.257.333-4.523-.238-5.881-2.197-.771-1.112-1.143-2.509-1.476-3.803-.005-.021.002-.036.022-.045a.306.306 0 0 1 .178-.028Z"/><path fill="#608d69" d="M120.632 40.132c2.649-.419 5.388-.01 7.015 2.307.72 1.026 1.104 2.303 1.561 3.46a.05.05 0 0 1-.027.065l-.009.003-.203.042-.774-.168c-2.262-.49-4.214-1.629-5.738-3.363a41.5 41.5 0 0 1-.791-.936c-.371-.45-.715-.92-1.034-1.409Z"/><path fill="#517a59" d="M120.136 40.252a9.414 9.414 0 0 0-.996.249c-.277.086-.505.16-.684.222a6.151 6.151 0 0 0-3.102 2.374l-.263.383c.048-.229.1-.457.155-.685.32-1.301 1.133-2.406 2.5-2.71.776-.172 1.618-.065 2.395.042.013.002.019.009.019.022a.194.194 0 0 1-.024.103Z"/><path fill="#608d69" d="M120.136 40.252c-.36 1.533-1.19 2.932-2.812 3.302-.718.164-1.497.089-2.228.08a.029.029 0 0 1-.029-.029V43.6l.022-.12.263-.383a6.151 6.151 0 0 1 3.102-2.374c.179-.062.408-.136.684-.222a8.95 8.95 0 0 1 .996-.249Z"/></g><path fill="#69bb35" d="m29.585 7.992 6.682-3.808s-2.991-.125-4.911.896-1.771 2.913-1.771 2.913Z"/><path fill="#a9ce30" d="m30.28 7.894 6.713-3.756s-1.404 2.606-3.268 3.723-3.445.033-3.445.033Z"/><path fill="#69bb35" d="m28.481 7.912-9.448-5.64s4.297-.074 7.014 1.442 2.434 4.198 2.434 4.198Z"/><path fill="#a9ce30" d="m27.964 7.999-9.493-5.567s1.917 3.751 4.551 5.401 4.943.166 4.943.166Z"/></svg>